<svg width="108" height="104" viewBox="0 0 108 104" fill="none" xmlns="http://www.w3.org/2000/svg">
<path d="M50.1958 3.70821C51.3932 0.0229711 56.6068 0.022963 57.8042 3.70821L67.6954 34.15C68.2308 35.7981 69.7667 36.9139 71.4996 36.9139H103.508C107.383 36.9139 108.994 41.8724 105.859 44.15L79.9638 62.964C78.5618 63.9826 77.9752 65.7881 78.5107 67.4361L88.4018 97.8779C89.5992 101.563 85.3813 104.628 82.2464 102.35L56.3511 83.536C54.9492 82.5174 53.0508 82.5174 51.6489 83.536L25.7536 102.35C22.6187 104.628 18.4008 101.563 19.5982 97.8779L29.4893 67.4361C30.0248 65.7881 29.4382 63.9826 28.0362 62.964L2.14093 44.15C-0.993925 41.8724 0.617169 36.9139 4.49206 36.9139H36.5004C38.2333 36.9139 39.7691 35.7981 40.3046 34.15L50.1958 3.70821Z" fill="#ECCC5A"/>
</svg>
