<svg width="1801" height="1799" viewBox="0 0 1801 1799" fill="none" xmlns="http://www.w3.org/2000/svg">
<rect x="2" width="1799" height="1799" fill="#CACACA"/>
<path d="M2 881.594H1801" stroke="#FF0000" stroke-width="3"/>
<path d="M2.29785 857.704C3.92182 856.26 6.48423 854.485 7.31651 852.404C7.99842 850.699 8.61028 855.841 9.24676 857.563C10.0221 859.661 9.87848 861.785 9.87848 863.986C9.87848 868.63 9.87848 873.274 9.87848 877.919" stroke="black" stroke-width="3" stroke-linecap="round"/>
<path d="M1752.16 856.163C1754.5 856.163 1763.8 842.311 1763.84 843.027C1764.35 852.801 1762.38 862.446 1762.38 872.219" stroke="black" stroke-width="3" stroke-linecap="round"/>
<path d="M1779.89 850.325C1774.45 856.45 1778.78 882.25 1786.46 872.868C1790.29 868.184 1788.65 860.384 1788.65 854.704C1788.65 849.429 1784.89 848.865 1779.89 848.865" stroke="black" stroke-width="3" stroke-linecap="round"/>
<path d="M41.5 858.278C41.8382 855.234 49.3953 855.628 51.2474 855.628C53.7172 855.628 57.7591 854.742 58.8745 857.866C61.6475 865.63 55.407 868.655 49.6866 872.295C48.5558 873.015 41.1067 877.017 46.5945 877.861C55.6009 879.247 64.8592 876.83 73.8342 876.83" stroke="black" stroke-width="3" stroke-linecap="round"/>
<path d="M97.1572 856.158C97.1572 854.713 98.8569 854.831 100.043 854.567C104.265 853.629 107.831 854.533 111.175 857.277C113.618 859.282 116.596 862.923 116.122 866.347C115.515 870.728 110.571 871.306 107.052 872.266C104.238 873.033 105.772 872.421 107.759 873.414C109.728 874.399 112.136 875.545 113.472 877.36C116.811 881.901 108.105 881.774 105.638 880.541" stroke="black" stroke-width="3" stroke-linecap="round"/>
<path d="M149.634 853.508C149.634 857.474 149.637 861.281 148.28 865.081C147.682 866.754 146.641 868.535 145.276 869.704C144.55 870.327 143.79 870.793 145.158 869.881C150.785 866.13 158.379 867.821 163.946 864.109" stroke="black" stroke-width="3" stroke-linecap="round"/>
<path d="M171.367 852.447C171.001 862.326 165.536 871.164 165.536 881.071" stroke="black" stroke-width="3" stroke-linecap="round"/>
<path d="M198.931 856.688C198.931 859.963 195.398 862.569 195.839 865.875C196.043 867.41 201.747 868.383 203.054 869.409C204.628 870.646 206.389 873.19 204.909 875.24C202.51 878.561 195.472 877.402 192.04 876.83" stroke="black" stroke-width="3" stroke-linecap="round"/>
<path d="M200.521 858.809C201.133 856.358 217.158 857.219 219.073 857.219" stroke="black" stroke-width="3" stroke-linecap="round"/>
<path d="M250.347 857.219C245.269 857.609 240.084 860.039 237.213 864.345C235.569 866.811 232.753 871.013 233.738 874.181C234.705 877.288 238.941 879.468 241.572 880.954C245.198 883.002 251.568 884.852 250.759 878.304C250.155 873.408 246.064 869.406 241.336 868.88" stroke="black" stroke-width="3" stroke-linecap="round"/>
<path d="M273.67 855.627C276.776 855.938 279.674 857.803 282.829 858.189C283.616 858.285 290.356 857.947 289.985 858.925C289.416 860.423 287.626 861.709 286.451 862.636C282.632 865.647 278.467 868.306 274.347 870.881C272.034 872.327 267.52 873.868 266.779 876.83" stroke="black" stroke-width="3" stroke-linecap="round"/>
<path d="M276.851 870.471C282.052 870.239 288.076 867.174 292.753 865.17" stroke="black" stroke-width="3" stroke-linecap="round"/>
<path d="M318.197 858.809C313.83 857.465 309.81 857.627 306.947 861.753C300.834 870.566 308.331 875.444 315.487 880.247C318.748 882.435 321.895 884.84 325.382 886.667C325.915 886.946 328.739 887.794 328.739 888.728C328.739 890.695 312.453 884.733 311.306 884.37C309.161 883.69 301.884 882.989 303.414 878.951C304.931 874.945 312.41 872.458 315.664 870.205C317.766 868.75 319.62 863.842 318.903 861.282C318.092 858.385 312.305 859.28 310.246 859.869" stroke="black" stroke-width="3" stroke-linecap="round"/>
<path d="M357.951 859.338C353.181 858.905 348.37 857.885 344.081 860.929C340.24 863.654 343.192 868.116 346.348 869.616C350.066 871.382 355.255 870.339 357.951 867.172C361.323 863.21 355.698 860.957 352.65 859.868" stroke="black" stroke-width="3" stroke-linecap="round"/>
<path d="M357.952 861.988C360.518 864.554 367.835 870.219 363.164 874.062C357.416 878.79 346.055 883.204 338.869 880.011" stroke="black" stroke-width="3" stroke-linecap="round"/>
<path d="M381.274 866.759C383.527 865.719 384.813 863.323 386.958 861.988C388.871 860.798 393.398 858.515 395.822 859.397C398.58 860.4 395.948 873.759 397.176 876.83" stroke="black" stroke-width="3" stroke-linecap="round"/>
<path d="M408.838 859.338C408.838 863.507 406.741 878.42 414.139 878.42C419.127 878.42 415.496 865.582 412.548 864.109" stroke="black" stroke-width="3" stroke-linecap="round"/>
</svg>
