<svg width="141" height="55" viewBox="0 0 141 55" fill="none" xmlns="http://www.w3.org/2000/svg">
<path fill-rule="evenodd" clip-rule="evenodd" d="M137.515 34.1738C127.219 33.5945 116.441 34.0743 110.843 33.3553C108.998 33.1185 106.762 32.5693 109.267 32.0487C116.204 30.6066 124.741 30.2699 132.37 31.574C129.192 28.6264 126.949 23.9447 125.888 19.6738C125.757 19.1475 125.021 17.0934 125.351 16.083C125.474 15.7081 125.744 15.476 126.246 15.5204C126.532 15.546 126.803 15.7143 127.058 16.0096C127.8 16.8695 129.12 19.8756 130.447 22.8004C132.417 27.1398 134.243 30.3771 137.515 34.1738Z" fill="#F4A5D2"/>
<path fill-rule="evenodd" clip-rule="evenodd" d="M0.700104 3.79468C13.0157 1.35526 27.2726 4.81046 40.1478 15.9283C37.4508 17.1194 35.0122 18.5773 32.8936 20.3282C27.8805 24.4702 23.5094 29.0487 22.8732 36.121C21.9904 45.9317 30.7771 56.1117 43.4538 54.1238C58.7018 51.7323 58.5672 38.747 53.8079 29.2849C51.5754 24.8455 48.7401 20.7633 45.3599 16.907C57.5586 14.2567 70.688 14.635 82.8916 16.4677C97.6372 18.6821 112.172 23.2952 124.679 29.1711C128.569 30.9989 130.42 31.5721 134.702 32.7483C116.827 18.3033 69.6219 5.37189 42.9633 14.8129C31.568 3.69489 14.8716 -1.05044 0.558228 1.53312L0.700104 3.79468ZM51.5325 31.557C49.3176 26.8831 46.2455 22.2977 42.6981 18.2506C30.429 22.2361 18.7032 38.7876 32.4188 48.9751C36.2265 51.8032 41.2316 52.7229 46.5098 50.6959C55.0379 47.4211 55.1022 39.0895 51.5325 31.557Z" fill="#F4A5D2"/>
</svg>
