<svg width="1801" height="1799" viewBox="0 0 1801 1799" fill="none" xmlns="http://www.w3.org/2000/svg">
<rect x="2" width="1799" height="1799" fill="black"/>
<path d="M2 899H1801" stroke="#FF0000" stroke-width="3"/>
<path d="M2.29785 875.11C3.92182 873.666 6.48423 871.891 7.31651 869.81C7.99842 868.106 8.61028 873.247 9.24676 874.969C10.0221 877.067 9.87848 879.191 9.87848 881.392C9.87848 886.036 9.87848 890.681 9.87848 895.325" stroke="white" stroke-width="3" stroke-linecap="round"/>
<path d="M1752.16 873.57C1754.5 873.57 1763.8 859.717 1763.84 860.433C1764.35 870.208 1762.38 879.852 1762.38 889.625" stroke="white" stroke-width="3" stroke-linecap="round"/>
<path d="M1779.89 867.731C1774.45 873.856 1778.78 899.657 1786.46 890.274C1790.29 885.59 1788.65 877.79 1788.65 872.11C1788.65 866.836 1784.89 866.271 1779.89 866.271" stroke="white" stroke-width="3" stroke-linecap="round"/>
<path d="M41.5 875.684C41.8382 872.64 49.3953 873.034 51.2474 873.034C53.7172 873.034 57.7591 872.149 58.8745 875.272C61.6475 883.036 55.407 886.061 49.6866 889.701C48.5558 890.421 41.1067 894.423 46.5945 895.267C55.6009 896.653 64.8592 894.237 73.8342 894.237" stroke="white" stroke-width="3" stroke-linecap="round"/>
<path d="M97.1572 873.564C97.1572 872.12 98.8569 872.237 100.043 871.974C104.265 871.035 107.831 871.94 111.175 874.683C113.618 876.688 116.596 880.329 116.122 883.753C115.515 888.134 110.571 888.712 107.052 889.672C104.238 890.439 105.772 889.827 107.759 890.821C109.728 891.805 112.136 892.951 113.472 894.767C116.811 899.308 108.105 899.18 105.638 897.947" stroke="white" stroke-width="3" stroke-linecap="round"/>
<path d="M149.634 870.914C149.634 874.88 149.637 878.687 148.28 882.487C147.682 884.16 146.641 885.941 145.276 887.111C144.55 887.733 143.79 888.199 145.158 887.287C150.785 883.536 158.379 885.227 163.946 881.515" stroke="white" stroke-width="3" stroke-linecap="round"/>
<path d="M171.367 869.854C171.001 879.732 165.536 888.57 165.536 898.477" stroke="white" stroke-width="3" stroke-linecap="round"/>
<path d="M198.931 874.094C198.931 877.369 195.398 879.975 195.839 883.282C196.043 884.816 201.747 885.789 203.054 886.815C204.628 888.052 206.389 890.596 204.909 892.646C202.51 895.968 195.472 894.808 192.04 894.236" stroke="white" stroke-width="3" stroke-linecap="round"/>
<path d="M200.521 876.215C201.133 873.764 217.158 874.625 219.073 874.625" stroke="white" stroke-width="3" stroke-linecap="round"/>
<path d="M250.347 874.625C245.269 875.016 240.084 877.445 237.213 881.751C235.569 884.218 232.753 888.419 233.738 891.587C234.705 894.695 238.941 896.874 241.572 898.36C245.198 900.409 251.568 902.259 250.759 895.71C250.155 890.814 246.064 886.812 241.336 886.287" stroke="white" stroke-width="3" stroke-linecap="round"/>
<path d="M273.67 873.033C276.776 873.344 279.674 875.209 282.829 875.595C283.616 875.692 290.356 875.353 289.985 876.331C289.416 877.829 287.626 879.115 286.451 880.042C282.632 883.053 278.467 885.713 274.347 888.287C272.034 889.733 267.52 891.274 266.779 894.236" stroke="white" stroke-width="3" stroke-linecap="round"/>
<path d="M276.851 887.877C282.052 887.646 288.076 884.58 292.753 882.576" stroke="white" stroke-width="3" stroke-linecap="round"/>
<path d="M318.197 876.215C313.83 874.871 309.81 875.034 306.947 879.16C300.834 887.972 308.331 892.851 315.487 897.653C318.748 899.841 321.895 902.246 325.382 904.073C325.915 904.352 328.739 905.201 328.739 906.134C328.739 908.101 312.453 902.139 311.306 901.776C309.161 901.096 301.884 900.395 303.414 896.357C304.931 892.352 312.41 889.864 315.664 887.611C317.766 886.156 319.62 881.249 318.903 878.688C318.092 875.791 312.305 876.686 310.246 877.275" stroke="white" stroke-width="3" stroke-linecap="round"/>
<path d="M357.951 876.745C353.181 876.311 348.37 875.291 344.081 878.335C340.24 881.061 343.192 885.523 346.348 887.022C350.066 888.788 355.255 887.746 357.951 884.578C361.323 880.616 355.698 878.363 352.65 877.275" stroke="white" stroke-width="3" stroke-linecap="round"/>
<path d="M357.952 879.395C360.518 881.961 367.835 887.626 363.164 891.468C357.416 896.197 346.055 900.61 338.869 897.417" stroke="white" stroke-width="3" stroke-linecap="round"/>
<path d="M381.274 884.165C383.527 883.126 384.813 880.73 386.958 879.395C388.871 878.204 393.398 875.922 395.822 876.803C398.58 877.806 395.948 891.166 397.176 894.237" stroke="white" stroke-width="3" stroke-linecap="round"/>
<path d="M408.838 876.744C408.838 880.913 406.741 895.827 414.139 895.827C419.127 895.827 415.496 882.989 412.548 881.515" stroke="white" stroke-width="3" stroke-linecap="round"/>
</svg>
