<svg width="99" height="99" viewBox="0 0 99 99" fill="none" xmlns="http://www.w3.org/2000/svg">
<circle cx="49.5" cy="49.5" r="49" fill="#FFDF38" stroke="black"/>
<path d="M8.4375 50.75V48.25L28.5625 38V42L13.125 49.4375L13.25 49.1875V49.8125L13.125 49.5625L28.5625 57V61L8.4375 50.75Z" fill="black"/>
<path d="M50.0625 51.25C49.2917 51.25 48.6302 50.974 48.0781 50.4219C47.526 49.8698 47.25 49.2083 47.25 48.4375C47.25 47.6667 47.526 47.0052 48.0781 46.4531C48.6302 45.901 49.2917 45.625 50.0625 45.625C50.8333 45.625 51.4948 45.901 52.0469 46.4531C52.599 47.0052 52.875 47.6667 52.875 48.4375C52.875 48.9479 52.7448 49.4167 52.4844 49.8437C52.2344 50.2708 51.8958 50.6146 51.4688 50.875C51.0521 51.125 50.5833 51.25 50.0625 51.25Z" fill="black"/>
<path d="M92.5625 50.75L72.4375 61V57L87.875 49.5625L87.75 49.8125V49.1875L87.875 49.4375L72.4375 42V38L92.5625 48.25V50.75Z" fill="black"/>
</svg>
