<svg width="99" height="99" viewBox="0 0 99 99" fill="none" xmlns="http://www.w3.org/2000/svg">
<circle cx="49.5" cy="49.5" r="48.5" fill="#ECCC5A" stroke="black" stroke-width="2"/>
<path d="M5.4375 50.75V48.25L25.5625 38V42L10.125 49.4375L10.25 49.1875V49.8125L10.125 49.5625L25.5625 57V61L5.4375 50.75Z" fill="black"/>
<path d="M49.0625 52.25C48.2917 52.25 47.6302 51.974 47.0781 51.4219C46.526 50.8698 46.25 50.2083 46.25 49.4375C46.25 48.6667 46.526 48.0052 47.0781 47.4531C47.6302 46.901 48.2917 46.625 49.0625 46.625C49.8333 46.625 50.4948 46.901 51.0469 47.4531C51.599 48.0052 51.875 48.6667 51.875 49.4375C51.875 49.9479 51.7448 50.4167 51.4844 50.8437C51.2344 51.2708 50.8958 51.6146 50.4688 51.875C50.0521 52.125 49.5833 52.25 49.0625 52.25Z" fill="black"/>
<path d="M93.5625 50.75L73.4375 61V57L88.875 49.5625L88.75 49.8125V49.1875L88.875 49.4375L73.4375 42V38L93.5625 48.25V50.75Z" fill="black"/>
</svg>
