<svg width="67" height="780" viewBox="0 0 67 780" fill="none" xmlns="http://www.w3.org/2000/svg">
<circle cx="33.5" cy="389.5" r="33.5" fill="#D9D9D9"/>
<path d="M34 424.5V356V0V780" stroke="#FF0000" stroke-width="3"/>
<path d="M10.4883 389.029C12.8104 386.707 13.6552 383.834 14.5332 380.74C15.0241 379.01 15.8975 374.316 12.8356 374.316C11.7266 374.316 11.0541 375.194 11.0541 376.307C11.0541 377.661 13.8171 378.057 14.7008 377.492C15.2197 377.159 15.8455 376.42 16.2937 375.972C16.7072 375.558 16.4358 375.468 16.105 375.909C14.4732 378.085 12.4668 380.928 13.5901 383.789C14.2367 385.437 16.3364 387.52 18.2218 387.52C19.6517 387.52 20.7288 386.307 21.8056 385.445" stroke="white" stroke-width="3" stroke-linecap="round"/>
<path d="M22.9375 373.561C24.0916 373.405 24.3925 373.314 25.201 373.98C26.2378 374.834 26.5278 376.343 26.8567 377.585C27.1565 378.718 27.1081 379.664 26.5213 380.687C26.3528 380.981 25.7393 382.137 25.2953 382.039C24.3413 381.827 25.3367 379.26 25.5887 378.832C26.1717 377.841 26.8797 376.776 27.7578 376.024C28.4736 375.41 29.3355 374.965 30.0213 374.316C30.4509 373.909 30.2972 374.751 30.2938 375.049C30.2759 376.588 29.7335 377.846 29.4345 379.325C29.0772 381.091 29.5508 381.844 30.692 380.236C31.6332 378.91 32.5309 377.584 33.406 376.212C33.8138 375.573 34.2512 374.968 34.5168 374.253C34.5908 374.054 34.7519 373.483 34.8102 373.687C35.0834 374.643 34.6168 376.322 34.5378 377.302C34.4153 378.821 34.5703 380.103 35.1979 381.483" stroke="white" stroke-width="3" stroke-linecap="round"/>
<path d="M8.60205 400.911C9.29549 400.834 9.75112 398.032 9.96432 397.474C10.4791 396.128 12.1777 393.176 14.0721 393.555C14.7199 393.684 14.5755 399.199 14.5227 399.821C14.4142 401.102 13.9958 402.255 14.8266 403.363" stroke="white" stroke-width="3" stroke-linecap="round"/>
<path d="M21.6173 392.612C20.4689 394.778 19.3619 397.758 19.5844 400.262C19.7878 402.55 21.6376 399.07 21.9212 398.627C23.2388 396.57 25.1756 394.325 25.0021 391.721C24.9319 390.669 24.1436 391.715 24.0694 392.235" stroke="white" stroke-width="3" stroke-linecap="round"/>
<path d="M25.5784 392.234C25.5784 394.086 24.9728 399.499 27.0873 400.345" stroke="white" stroke-width="3" stroke-linecap="round"/>
<path d="M44.2519 373.939C44.1884 376.223 43.7682 378.206 45.195 380.216C46.28 381.745 47.2153 381.046 48.1291 379.724C48.7485 378.828 49.3398 377.867 49.8686 376.915C49.9772 376.72 50.4453 375.347 50.4869 375.784C50.5969 376.939 50.9581 378.042 51.0213 379.21C51.0764 380.23 51.0629 381.231 51.2309 382.239" stroke="white" stroke-width="3" stroke-linecap="round"/>
<path d="M41.2339 367.148C42.5405 367.987 44.0382 368.747 45.5617 369.108C46.9991 369.448 48.5056 368.579 49.7219 367.903" stroke="white" stroke-width="3" stroke-linecap="round"/>
<path d="M45.3837 387.143C45.6223 390.483 45.3582 393.414 44.1682 396.574C43.8086 397.528 43.2977 398.555 42.4286 399.152C41.9146 399.504 42.3656 398.252 42.4077 398.156C43.2757 396.179 45.6772 394.973 47.4586 393.975C48.7654 393.243 50.123 392.636 51.6083 392.424" stroke="white" stroke-width="3" stroke-linecap="round"/>
<path d="M52.7397 389.217C52.6443 392.272 51.7461 395.326 50.9373 398.25C50.3032 400.542 50.2033 403.567 48.9673 405.627" stroke="white" stroke-width="3" stroke-linecap="round"/>
<path d="M49.9106 404.496C51.6592 402.456 53.0162 400.108 54.3537 397.789C55.2334 396.264 55.9994 394.676 56.8897 393.157C56.9192 393.107 58.3478 390.858 58.3882 391.282C58.6477 394.007 57.5315 396.992 56.8058 399.56C56.1333 401.94 55.63 404.31 54.249 406.382" stroke="white" stroke-width="3" stroke-linecap="round"/>
<path d="M51.231 398.838C52.5056 398.904 53.7231 399.275 54.9929 399.372C56.2452 399.469 57.5205 399.404 58.7758 399.404" stroke="white" stroke-width="3" stroke-linecap="round"/>
</svg>
