<svg width="450" height="450" viewBox="0 0 450 450" fill="none" xmlns="http://www.w3.org/2000/svg">
<path d="M434.996 243.284C427.623 356.875 327.386 442.86 211.088 435.312C94.7897 427.763 6.5093 329.542 13.8822 215.951C21.255 102.36 121.492 16.375 237.79 23.9236C354.089 31.4722 442.369 129.693 434.996 243.284Z" fill="#ECCC5A" stroke="black"/>
<path d="M220.002 151.938L171.831 101.292L170.877 171.63L100.027 164.391L145.387 216.616L87.9328 253.367L155.687 266.564L134.17 333.808L197.747 300.094L225.23 363.478L252.869 299.272L314.035 330.522L292.06 265.736L358.266 247.153L298.17 213.332L341.593 156.311L269.435 169.227L266.737 99.5317L220.002 151.938Z" fill="#131213"/>
<path d="M237.421 48.4033L240.279 32.6608L243.134 33.1638L241.924 39.8283L249.225 41.1151L250.435 34.4507L253.298 34.9551L250.439 50.6976L247.577 50.1932L248.791 43.5057L241.49 42.2189L240.275 48.9064L237.421 48.4033Z" fill="black"/>
<path d="M270.623 38.548L265.982 53.86L263.2 53.0472L267.841 37.7353L270.623 38.548Z" fill="black"/>
<path d="M292.529 50.0305C292.576 49.5933 292.561 49.1778 292.482 48.7839C292.409 48.3873 292.274 48.018 292.076 47.6761C291.883 47.3363 291.622 47.0333 291.295 46.7674C290.969 46.4966 290.586 46.2693 290.143 46.0852C289.35 45.7551 288.557 45.6594 287.765 45.798C286.972 45.9367 286.232 46.3167 285.543 46.9381C284.86 47.5568 284.281 48.4157 283.805 49.515C283.325 50.6237 283.094 51.6359 283.111 52.5514C283.129 53.4669 283.364 54.2554 283.815 54.9169C284.268 55.5736 284.908 56.074 285.736 56.4181C286.486 56.7302 287.197 56.8568 287.869 56.7981C288.547 56.7414 289.148 56.5122 289.674 56.1105C290.202 55.7041 290.62 55.1448 290.929 54.4327L291.494 54.7779L287.484 53.1096L288.384 51.0306L294.378 53.5241L293.614 55.2877C293.07 56.5446 292.33 57.5199 291.394 58.2134C290.458 58.907 289.411 59.3063 288.253 59.4112C287.097 59.5114 285.909 59.3075 284.687 58.7993C283.326 58.2332 282.263 57.4326 281.496 56.3976C280.737 55.3597 280.312 54.1592 280.222 52.796C280.138 51.4301 280.431 49.9729 281.102 48.4244C281.616 47.2391 282.242 46.2505 282.983 45.4586C283.728 44.6687 284.546 44.0758 285.439 43.6798C286.333 43.2791 287.265 43.0801 288.234 43.0829C289.205 43.0809 290.174 43.2809 291.141 43.683C291.959 44.023 292.669 44.4596 293.272 44.9926C293.878 45.5209 294.361 46.1165 294.72 46.7794C295.085 47.4444 295.316 48.1496 295.413 48.895C295.51 49.6405 295.458 50.397 295.256 51.1647L292.529 50.0305Z" fill="black"/>
<path d="M306.734 50.7428L299.558 65.0432L296.946 63.786L304.122 49.4856L306.734 50.7428Z" fill="black"/>
<path d="M350.341 82.1951C350.752 81.6471 350.884 81.054 350.738 80.4158C350.596 79.781 350.204 79.1782 349.562 78.6072C349.11 78.2058 348.661 77.9282 348.213 77.7745C347.766 77.6207 347.35 77.5821 346.966 77.6586C346.582 77.7351 346.252 77.9185 345.974 78.2086C345.747 78.4527 345.607 78.7145 345.553 78.994C345.503 79.277 345.519 79.5697 345.6 79.872C345.685 80.1705 345.809 80.469 345.973 80.7674C346.136 81.0658 346.314 81.3526 346.506 81.6278L347.371 82.899C347.727 83.4033 348.032 83.9283 348.285 84.474C348.542 85.0231 348.712 85.5782 348.794 86.1392C348.881 86.7037 348.846 87.2612 348.689 87.8117C348.533 88.3622 348.218 88.891 347.746 89.3982C347.108 90.0845 346.366 90.5297 345.522 90.7337C344.682 90.9339 343.786 90.8798 342.835 90.5713C341.892 90.2624 340.942 89.6824 339.984 88.8311C339.054 88.0041 338.378 87.145 337.955 86.2538C337.536 85.3661 337.386 84.4802 337.505 83.5962C337.627 82.7156 338.035 81.8726 338.727 81.067L340.858 82.9616C340.51 83.3973 340.323 83.8508 340.297 84.3222C340.27 84.7937 340.376 85.257 340.614 85.7123C340.856 86.171 341.202 86.6011 341.654 87.0025C342.125 87.4212 342.602 87.7193 343.083 87.897C343.573 88.0742 344.034 88.1289 344.467 88.061C344.904 87.9893 345.28 87.7874 345.596 87.4553C345.876 87.1468 346.019 86.8138 346.024 86.4564C346.033 86.0951 345.938 85.7042 345.739 85.2835C345.548 84.8625 345.288 84.4083 344.959 83.9209L343.918 82.3683C343.163 81.245 342.734 80.1773 342.631 79.1653C342.534 78.153 342.876 77.2274 343.657 76.3885C344.299 75.6984 345.052 75.2636 345.916 75.0841C346.784 74.9081 347.682 74.9713 348.609 75.2736C349.541 75.572 350.425 76.0933 351.262 76.8372C352.111 77.5916 352.719 78.3974 353.088 79.2547C353.464 80.1117 353.597 80.9582 353.488 81.7944C353.382 82.6269 353.028 83.3781 352.426 84.0481L350.341 82.1951Z" fill="black"/>
<path d="M352.432 98.7051L364.577 88.2887L371.534 96.0277L369.69 97.6094L364.67 92.026L361.373 94.8539L366.032 100.036L364.188 101.618L359.529 96.4357L356.214 99.2788L361.275 104.909L359.431 106.49L352.432 98.7051Z" fill="black"/>
<path d="M366.18 112.885L379.412 103.89L382.897 108.774C383.611 109.775 384.034 110.734 384.164 111.653C384.298 112.576 384.171 113.427 383.781 114.208C383.399 114.991 382.786 115.669 381.942 116.243C381.093 116.82 380.23 117.142 379.351 117.211C378.48 117.28 377.629 117.088 376.798 116.632C375.972 116.174 375.202 115.444 374.488 114.444L372.006 110.965L373.996 109.612L376.251 112.773C376.669 113.358 377.093 113.781 377.522 114.043C377.957 114.302 378.397 114.412 378.842 114.374C379.296 114.336 379.757 114.158 380.226 113.839C380.696 113.52 381.031 113.156 381.233 112.748C381.439 112.338 381.495 111.887 381.401 111.397C381.311 110.904 381.056 110.363 380.636 109.773L379.093 107.611L367.864 115.245L366.18 112.885ZM376.977 115.538L373.282 122.838L371.403 120.205L375.139 112.962L376.977 115.538Z" fill="black"/>
<path d="M393.492 122.834L384.376 132.354L384.455 132.498L397.61 130.252L399.157 133.039L382.27 135.577L380.533 132.448L391.949 120.054L393.492 122.834Z" fill="black"/>
<path d="M408.437 145.591L393.548 151.451L392.438 148.773L407.326 142.914L408.437 145.591Z" fill="black"/>
<path d="M410.342 165.901L409.537 163.093C409.977 162.887 410.344 162.629 410.64 162.317C410.94 162.003 411.17 161.652 411.329 161.264C411.489 160.875 411.572 160.459 411.581 160.014C411.595 159.573 411.535 159.117 411.4 158.647C411.16 157.81 410.737 157.127 410.129 156.595C409.527 156.062 408.769 155.723 407.855 155.577C406.946 155.429 405.91 155.513 404.749 155.827C403.568 156.147 402.625 156.6 401.92 157.185C401.222 157.773 400.759 158.443 400.53 159.196C400.308 159.952 400.316 160.746 400.554 161.577C400.686 162.038 400.87 162.452 401.105 162.82C401.347 163.191 401.635 163.504 401.968 163.759C402.303 164.02 402.677 164.212 403.092 164.337C403.509 164.467 403.956 164.513 404.432 164.476L405.222 167.289C404.458 167.382 403.704 167.341 402.96 167.165C402.218 166.994 401.52 166.695 400.867 166.267C400.218 165.839 399.648 165.286 399.156 164.61C398.67 163.933 398.295 163.136 398.033 162.22C397.645 160.868 397.613 159.576 397.938 158.344C398.262 157.113 398.93 156.031 399.941 155.099C400.952 154.166 402.287 153.475 403.946 153.026C405.61 152.575 407.121 152.498 408.479 152.793C409.842 153.088 410.99 153.681 411.922 154.572C412.855 155.463 413.513 156.579 413.898 157.921C414.143 158.777 414.251 159.606 414.221 160.407C414.19 161.209 414.024 161.961 413.721 162.663C413.424 163.364 412.991 163.991 412.424 164.544C411.863 165.101 411.169 165.553 410.342 165.901Z" fill="black"/>
<path d="M403.495 178.22L419.304 175.757L421.01 186.022L418.61 186.396L417.379 178.99L413.087 179.659L414.229 186.533L411.829 186.908L410.686 180.033L406.371 180.705L407.612 188.173L405.212 188.547L403.495 178.22Z" fill="black"/>
<path d="M419.423 205.543C420.101 205.439 420.617 205.109 420.969 204.551C421.322 203.998 421.477 203.292 421.435 202.434C421.404 201.831 421.287 201.317 421.084 200.894C420.88 200.47 420.616 200.151 420.293 199.936C419.969 199.721 419.607 199.62 419.206 199.633C418.873 199.648 418.588 199.736 418.351 199.898C418.114 200.065 417.916 200.285 417.758 200.558C417.605 200.831 417.479 201.131 417.381 201.458C417.282 201.786 417.202 202.116 417.141 202.447L416.841 203.962C416.731 204.571 416.57 205.16 416.358 205.727C416.147 206.3 415.871 206.815 415.529 207.274C415.187 207.737 414.765 208.111 414.263 208.394C413.761 208.677 413.163 208.834 412.471 208.865C411.535 208.907 410.698 208.705 409.961 208.259C409.23 207.812 408.641 207.145 408.195 206.258C407.755 205.375 407.502 204.294 407.438 203.015C407.376 201.772 407.515 200.684 407.854 199.751C408.193 198.823 408.72 198.085 409.433 197.537C410.146 196.994 411.032 196.678 412.092 196.589L412.234 199.437C411.68 199.504 411.225 199.696 410.871 200.014C410.516 200.333 410.26 200.738 410.102 201.23C409.945 201.727 409.881 202.277 409.911 202.88C409.943 203.51 410.064 204.057 410.275 204.522C410.492 204.992 410.776 205.355 411.127 205.61C411.484 205.865 411.892 205.985 412.35 205.97C412.766 205.946 413.103 205.808 413.362 205.557C413.626 205.305 413.838 204.959 413.998 204.519C414.164 204.084 414.306 203.578 414.423 202.999L414.8 201.16C415.072 199.829 415.533 198.765 416.181 197.97C416.835 197.179 417.735 196.758 418.879 196.707C419.821 196.665 420.659 196.883 421.392 197.361C422.125 197.844 422.709 198.519 423.144 199.386C423.583 200.252 423.831 201.245 423.887 202.363C423.944 203.497 423.796 204.5 423.443 205.37C423.096 206.246 422.586 206.944 421.913 207.464C421.246 207.984 420.462 208.272 419.563 208.328L419.423 205.543Z" fill="black"/>
<path d="M409.719 242.928L425.476 245.705L424.958 248.556L418.288 247.381L416.963 254.676L423.634 255.851L423.114 258.711L407.357 255.934L407.876 253.074L414.57 254.254L415.895 246.959L409.201 245.779L409.719 242.928Z" fill="black"/>
<path d="M420.498 276.443L405.14 271.957L405.981 269.183L421.339 273.67L420.498 276.443Z" fill="black"/>
<path d="M407.827 296.93C408.268 296.973 408.688 296.953 409.087 296.87C409.489 296.795 409.863 296.657 410.211 296.458C410.556 296.263 410.865 296.002 411.137 295.676C411.414 295.351 411.647 294.969 411.838 294.529C412.179 293.74 412.284 292.955 412.152 292.172C412.02 291.39 411.643 290.661 411.022 289.985C410.404 289.316 409.542 288.751 408.436 288.291C407.32 287.827 406.3 287.608 405.374 287.635C404.449 287.662 403.65 287.902 402.977 288.355C402.309 288.811 401.796 289.449 401.44 290.271C401.117 291.017 400.982 291.722 401.035 292.387C401.085 293.057 401.311 293.65 401.711 294.166C402.117 294.684 402.678 295.093 403.394 295.391L403.04 295.954L404.766 291.968L406.858 292.838L404.278 298.795L402.503 298.057C401.238 297.531 400.26 296.808 399.569 295.889C398.877 294.97 398.485 293.938 398.39 292.793C398.301 291.65 398.519 290.472 399.045 289.258C399.63 287.905 400.45 286.845 401.504 286.076C402.56 285.314 403.778 284.881 405.156 284.778C406.538 284.681 408.007 284.957 409.565 285.605C410.758 286.101 411.751 286.712 412.543 287.436C413.334 288.166 413.925 288.97 414.316 289.849C414.712 290.73 414.904 291.65 414.891 292.609C414.883 293.571 414.672 294.532 414.255 295.492C413.903 296.305 413.455 297.012 412.91 297.615C412.37 298.219 411.764 298.703 411.09 299.066C410.414 299.433 409.699 299.669 408.945 299.773C408.191 299.876 407.427 299.832 406.653 299.64L407.827 296.93Z" fill="black"/>
<path d="M407.44 311.29L392.981 304.441L394.264 301.842L408.724 308.691L407.44 311.29Z" fill="black"/>
<path d="M374.99 353.116C375.55 353.516 376.156 353.644 376.809 353.5C377.459 353.36 378.077 352.976 378.662 352.346C379.074 351.904 379.358 351.464 379.517 351.027C379.675 350.589 379.715 350.183 379.638 349.807C379.56 349.432 379.374 349.109 379.077 348.839C378.828 348.617 378.561 348.48 378.275 348.428C377.986 348.38 377.686 348.396 377.377 348.476C377.071 348.56 376.766 348.682 376.46 348.842C376.154 349.003 375.861 349.177 375.579 349.365L374.277 350.214C373.76 350.563 373.222 350.862 372.664 351.111C372.101 351.363 371.533 351.531 370.959 351.613C370.382 351.698 369.811 351.665 369.249 351.513C368.686 351.361 368.146 351.055 367.628 350.595C366.927 349.972 366.474 349.248 366.267 348.423C366.064 347.602 366.121 346.726 366.439 345.796C366.757 344.874 367.352 343.943 368.225 343.005C369.073 342.094 369.953 341.431 370.865 341.016C371.774 340.605 372.681 340.456 373.585 340.57C374.485 340.688 375.347 341.084 376.169 341.76L374.227 343.847C373.782 343.508 373.318 343.325 372.836 343.301C372.354 343.276 371.88 343.381 371.414 343.614C370.944 343.852 370.503 344.191 370.092 344.634C369.662 345.095 369.356 345.562 369.174 346.033C368.991 346.512 368.934 346.963 369.003 347.386C369.075 347.813 369.281 348.18 369.62 348.489C369.935 348.762 370.275 348.9 370.641 348.905C371.01 348.913 371.41 348.819 371.841 348.624C372.272 348.436 372.737 348.181 373.237 347.858L374.827 346.837C375.978 346.097 377.071 345.675 378.106 345.572C379.142 345.475 380.088 345.807 380.944 346.569C381.649 347.195 382.092 347.93 382.274 348.775C382.452 349.623 382.385 350.501 382.074 351.408C381.767 352.32 381.232 353.185 380.469 354.005C379.695 354.836 378.87 355.433 377.992 355.795C377.115 356.165 376.248 356.297 375.393 356.192C374.542 356.09 373.774 355.745 373.09 355.158L374.99 353.116Z" fill="black"/>
<path d="M358.096 355.037L368.792 366.936L360.893 373.711L359.269 371.904L364.968 367.016L362.064 363.786L356.774 368.323L355.15 366.516L360.44 361.979L357.52 358.731L351.774 363.66L350.149 361.853L358.096 355.037Z" fill="black"/>
<path d="M343.566 368.332L352.86 381.356L347.898 384.729C346.881 385.42 345.904 385.826 344.967 385.947C344.026 386.071 343.154 385.939 342.353 385.551C341.551 385.171 340.854 384.566 340.261 383.735C339.665 382.899 339.328 382.051 339.251 381.191C339.173 380.337 339.364 379.506 339.822 378.697C340.284 377.891 341.023 377.143 342.04 376.452L345.574 374.05L346.972 376.009L343.761 378.191C343.166 378.596 342.737 379.007 342.473 379.426C342.212 379.849 342.103 380.279 342.146 380.715C342.187 381.159 342.373 381.612 342.703 382.074C343.033 382.537 343.407 382.868 343.825 383.068C344.246 383.273 344.706 383.332 345.207 383.243C345.71 383.16 346.261 382.914 346.859 382.507L349.056 381.014L341.169 369.961L343.566 368.332ZM340.942 378.88L333.455 375.205L336.13 373.387L343.558 377.101L340.942 378.88Z" fill="black"/>
<path d="M333.53 395.017L323.735 385.95L323.59 386.027L326.027 398.978L323.208 400.467L320.431 383.844L323.595 382.173L336.342 393.533L333.53 395.017Z" fill="black"/>
<path d="M310.801 406.618L304.671 391.838L307.368 390.777L313.498 405.556L310.801 406.618Z" fill="black"/>
<path d="M290.204 408.256L293.024 407.491C293.236 407.93 293.502 408.298 293.82 408.595C294.139 408.897 294.496 409.13 294.889 409.293C295.283 409.456 295.703 409.544 296.151 409.558C296.596 409.578 297.054 409.523 297.527 409.395C298.366 409.168 299.05 408.756 299.578 408.16C300.108 407.569 300.44 406.82 300.576 405.915C300.714 405.014 300.617 403.986 300.285 402.829C299.948 401.652 299.48 400.711 298.882 400.004C298.281 399.304 297.599 398.836 296.838 398.599C296.073 398.37 295.274 398.368 294.439 398.594C293.977 398.719 293.562 398.896 293.194 399.125C292.823 399.361 292.511 399.642 292.258 399.97C292 400.299 291.811 400.668 291.69 401.079C291.564 401.491 291.523 401.933 291.567 402.407L288.742 403.156C288.638 402.397 288.67 401.649 288.839 400.912C289.002 400.178 289.295 399.489 289.717 398.845C290.141 398.207 290.69 397.648 291.366 397.169C292.042 396.694 292.84 396.332 293.76 396.083C295.118 395.715 296.419 395.7 297.664 396.037C298.909 396.374 300.008 397.05 300.96 398.066C301.912 399.081 302.624 400.415 303.098 402.067C303.573 403.724 303.67 405.225 303.389 406.569C303.109 407.918 302.526 409.05 301.639 409.965C300.753 410.879 299.636 411.519 298.289 411.884C297.429 412.117 296.596 412.213 295.788 412.173C294.98 412.133 294.22 411.959 293.509 411.65C292.798 411.346 292.161 410.909 291.597 410.338C291.029 409.775 290.565 409.08 290.204 408.256Z" fill="black"/>
<path d="M277.322 401.341L279.945 417.125L269.663 418.727L269.264 416.33L276.683 415.174L275.97 410.889L269.085 411.962L268.686 409.566L275.572 408.493L274.856 404.185L267.376 405.35L266.978 402.953L277.322 401.341Z" fill="black"/>
<path d="M249.677 417.036C249.784 417.714 250.117 418.231 250.677 418.586C251.232 418.942 251.939 419.101 252.797 419.062C253.401 419.035 253.914 418.921 254.337 418.719C254.76 418.518 255.078 418.256 255.291 417.934C255.504 417.611 255.603 417.25 255.589 416.849C255.572 416.516 255.482 416.231 255.319 415.993C255.151 415.755 254.929 415.557 254.656 415.397C254.382 415.242 254.081 415.115 253.752 415.015C253.424 414.915 253.094 414.834 252.762 414.77L251.245 414.463C250.635 414.35 250.045 414.186 249.476 413.971C248.902 413.757 248.385 413.478 247.925 413.134C247.459 412.79 247.083 412.366 246.797 411.863C246.511 411.359 246.351 410.762 246.316 410.07C246.27 409.134 246.468 408.299 246.911 407.564C247.354 406.835 248.018 406.25 248.904 405.809C249.784 405.374 250.864 405.127 252.144 405.07C253.388 405.014 254.477 405.158 255.412 405.502C256.342 405.846 257.083 406.376 257.635 407.091C258.182 407.807 258.502 408.695 258.597 409.754L255.748 409.882C255.679 409.327 255.484 408.872 255.164 408.516C254.843 408.16 254.437 407.902 253.944 407.742C253.446 407.582 252.895 407.515 252.291 407.542C251.662 407.57 251.115 407.689 250.651 407.897C250.182 408.111 249.82 408.393 249.567 408.743C249.313 409.099 249.195 409.506 249.213 409.964C249.239 410.38 249.379 410.717 249.631 410.977C249.885 411.242 250.232 411.456 250.673 411.619C251.109 411.787 251.617 411.931 252.196 412.051L254.038 412.437C255.371 412.716 256.438 413.182 257.237 413.835C258.031 414.492 258.457 415.393 258.514 416.538C258.561 417.479 258.348 418.315 257.873 419.046C257.393 419.776 256.721 420.356 255.856 420.786C254.991 421.221 254 421.464 252.881 421.514C251.747 421.565 250.743 421.412 249.87 421.055C248.992 420.703 248.291 420.19 247.767 419.514C247.243 418.845 246.951 418.06 246.89 417.161L249.677 417.036Z" fill="black"/>
<path d="M210.797 410.102L207.938 425.844L205.084 425.341L206.294 418.677L198.993 417.39L197.782 424.054L194.92 423.55L197.779 407.807L200.641 408.312L199.427 414.999L206.728 416.286L207.943 409.599L210.797 410.102Z" fill="black"/>
<path d="M177.973 420.986L182.614 405.674L185.397 406.487L180.755 421.799L177.973 420.986Z" fill="black"/>
<path d="M155.69 408.471C155.642 408.909 155.658 409.324 155.737 409.718C155.809 410.115 155.945 410.484 156.143 410.826C156.336 411.166 156.596 411.469 156.924 411.735C157.249 412.005 157.633 412.233 158.076 412.417C158.869 412.747 159.662 412.843 160.454 412.704C161.246 412.565 161.987 412.185 162.676 411.564C163.358 410.945 163.938 410.086 164.414 408.987C164.894 407.878 165.125 406.866 165.107 405.951C165.09 405.035 164.855 404.247 164.404 403.585C163.951 402.928 163.31 402.428 162.483 402.084C161.733 401.772 161.022 401.645 160.349 401.704C159.672 401.761 159.071 401.99 158.545 402.391C158.017 402.798 157.599 403.357 157.29 404.069L156.725 403.724L160.735 405.392L159.835 407.471L153.84 404.978L154.604 403.214C155.149 401.957 155.889 400.982 156.825 400.289C157.761 399.595 158.808 399.196 159.966 399.091C161.122 398.991 162.31 399.195 163.532 399.703C164.893 400.269 165.956 401.069 166.722 402.104C167.482 403.142 167.907 404.343 167.997 405.706C168.081 407.072 167.787 408.529 167.117 410.078C166.603 411.263 165.976 412.251 165.236 413.043C164.491 413.833 163.672 414.426 162.78 414.822C161.886 415.223 160.954 415.422 159.985 415.419C159.013 415.421 158.044 415.221 157.078 414.819C156.26 414.479 155.55 414.042 154.946 413.509C154.341 412.981 153.858 412.385 153.498 411.723C153.134 411.058 152.903 410.352 152.806 409.607C152.709 408.861 152.761 408.105 152.963 407.337L155.69 408.471Z" fill="black"/>
<path d="M141.599 407.67L150.025 394.068L152.518 395.547L144.092 409.149L141.599 407.67Z" fill="black"/>
<path d="M97.8774 376.31C97.4671 376.858 97.3349 377.451 97.4807 378.089C97.6227 378.724 98.0148 379.327 98.6571 379.898C99.1086 380.299 99.558 380.577 100.005 380.73C100.453 380.884 100.868 380.923 101.252 380.846C101.637 380.77 101.967 380.586 102.244 380.296C102.471 380.052 102.612 379.79 102.666 379.511C102.716 379.228 102.7 378.935 102.618 378.633C102.533 378.334 102.409 378.036 102.246 377.737C102.083 377.439 101.905 377.152 101.713 376.877L100.847 375.606C100.492 375.102 100.187 374.577 99.9339 374.031C99.6767 373.482 99.5068 372.927 99.4243 372.366C99.3379 371.801 99.373 371.244 99.5296 370.693C99.6862 370.143 100 369.614 100.472 369.107C101.111 368.42 101.852 367.975 102.697 367.771C103.537 367.571 104.433 367.625 105.383 367.934C106.326 368.242 107.277 368.823 108.234 369.674C109.165 370.501 109.841 371.36 110.264 372.251C110.682 373.139 110.832 374.025 110.714 374.909C110.592 375.789 110.184 376.632 109.491 377.438L107.36 375.543C107.709 375.108 107.896 374.654 107.922 374.183C107.948 373.711 107.842 373.248 107.605 372.793C107.363 372.334 107.016 371.904 106.565 371.502C106.094 371.084 105.617 370.786 105.135 370.608C104.646 370.431 104.185 370.376 103.752 370.444C103.315 370.516 102.939 370.717 102.623 371.05C102.343 371.358 102.2 371.691 102.195 372.048C102.186 372.41 102.281 372.801 102.479 373.221C102.671 373.642 102.931 374.097 103.26 374.584L104.301 376.137C105.055 377.26 105.484 378.328 105.588 379.34C105.685 380.352 105.343 381.278 104.562 382.116C103.92 382.807 103.167 383.241 102.303 383.421C101.435 383.597 100.537 383.534 99.6093 383.231C98.6779 382.933 97.7937 382.412 96.9568 381.668C96.1082 380.913 95.4995 380.107 95.1308 379.25C94.7546 378.393 94.6213 377.547 94.7308 376.71C94.8367 375.878 95.1908 375.127 95.7929 374.457L97.8774 376.31Z" fill="black"/>
<path d="M95.7868 359.801L83.6419 370.217L76.685 362.478L78.5292 360.896L83.5485 366.48L86.8456 363.652L82.1868 358.469L84.0311 356.888L88.6899 362.07L92.0049 359.227L86.9438 353.597L88.7881 352.015L95.7868 359.801Z" fill="black"/>
<path d="M82.0391 345.617L68.8071 354.613L65.322 349.729C64.608 348.728 64.1856 347.769 64.0548 346.85C63.9209 345.927 64.0487 345.076 64.4381 344.295C64.8201 343.512 65.4333 342.834 66.2775 342.26C67.1261 341.683 67.9897 341.361 68.8683 341.292C69.7397 341.222 70.5905 341.415 71.4209 341.871C72.247 342.329 73.017 343.059 73.7309 344.059L76.2132 347.538L74.2232 348.891L71.9679 345.73C71.5504 345.145 71.1267 344.722 70.6968 344.46C70.2626 344.201 69.8226 344.091 69.3768 344.129C68.9237 344.167 68.4623 344.345 67.9928 344.664C67.5234 344.983 67.1878 345.347 66.9862 345.754C66.7804 346.165 66.7244 346.616 66.8183 347.106C66.9079 347.599 67.163 348.14 67.5835 348.73L69.1264 350.892L80.3555 343.258L82.0391 345.617ZM71.2422 342.965L74.9373 335.665L76.8159 338.298L73.0801 345.541L71.2422 342.965Z" fill="black"/>
<path d="M54.7263 335.669L63.8424 326.149L63.7628 326.005L50.6086 328.251L49.0616 325.464L65.9485 322.926L67.685 326.055L56.2695 338.449L54.7263 335.669Z" fill="black"/>
<path d="M44.1885 313.495L59.0769 307.635L60.1874 310.313L45.2989 316.172L44.1885 313.495Z" fill="black"/>
<path d="M42.2821 293.18L43.0871 295.988C42.6475 296.194 42.2802 296.453 41.985 296.765C41.6847 297.078 41.4548 297.429 41.2953 297.817C41.1358 298.206 41.052 298.622 41.044 299.067C41.0295 299.508 41.0897 299.964 41.2246 300.434C41.4643 301.271 41.8878 301.954 42.4952 302.486C43.0975 303.019 43.8557 303.358 44.7699 303.504C45.6789 303.652 46.7141 303.568 47.8754 303.254C49.0567 302.934 49.9997 302.481 50.7043 301.897C51.4025 301.308 51.8658 300.638 52.0944 299.885C52.3165 299.129 52.3084 298.335 52.0702 297.504C51.9382 297.043 51.7545 296.629 51.519 296.261C51.2771 295.89 50.9896 295.577 50.6565 295.322C50.3219 295.061 49.9471 294.869 49.532 294.744C49.1156 294.614 48.6689 294.568 48.1921 294.605L47.4022 291.792C48.1663 291.699 48.9203 291.74 49.6642 291.916C50.4066 292.087 51.1046 292.386 51.7579 292.814C52.4063 293.242 52.9763 293.795 53.4681 294.471C53.9548 295.148 54.3294 295.945 54.592 296.861C54.9794 298.213 55.0111 299.505 54.6869 300.737C54.3627 301.968 53.695 303.05 52.6836 303.983C51.6723 304.915 50.3372 305.606 48.6782 306.055C47.0143 306.506 45.5033 306.583 44.1455 306.288C42.7826 305.993 41.6348 305.401 40.7023 304.509C39.7697 303.618 39.1111 302.502 38.7265 301.16C38.4811 300.304 38.3736 299.475 38.404 298.674C38.4344 297.872 38.6008 297.12 38.9033 296.418C39.2008 295.717 39.6332 295.09 40.2007 294.537C40.7616 293.98 41.4554 293.528 42.2821 293.18Z" fill="black"/>
<path d="M49.1293 280.863L33.3201 283.326L31.614 273.061L34.0147 272.687L35.2456 280.093L39.5376 279.424L38.3951 272.55L40.7958 272.175L41.9383 279.05L46.2534 278.378L45.0123 270.91L47.413 270.536L49.1293 280.863Z" fill="black"/>
<path d="M33.2011 253.543C32.5232 253.646 32.0078 253.977 31.6551 254.535C31.3021 255.088 31.147 255.794 31.19 256.652C31.2202 257.255 31.3371 257.769 31.5409 258.192C31.7446 258.616 32.0083 258.935 32.3319 259.15C32.6555 259.365 33.0178 259.466 33.4187 259.453C33.7517 259.438 34.0367 259.35 34.2737 259.188C34.5104 259.021 34.708 258.801 34.8664 258.528C35.0197 258.255 35.1454 257.955 35.2438 257.627C35.3421 257.3 35.4221 256.97 35.4837 256.639L35.7834 255.124C35.8937 254.515 36.0545 253.926 36.266 253.359C36.4773 252.786 36.7539 252.271 37.096 251.812C37.4378 251.348 37.8598 250.975 38.3619 250.692C38.864 250.409 39.461 250.252 40.153 250.22C41.0896 250.178 41.9263 250.381 42.663 250.827C43.3946 251.274 43.9834 251.941 44.4293 252.828C44.8698 253.711 45.122 254.791 45.1861 256.071C45.2483 257.314 45.1098 258.402 44.7706 259.335C44.4311 260.263 43.9049 261.001 43.1918 261.549C42.4785 262.092 41.5921 262.408 40.5328 262.497L40.3902 259.649C40.9449 259.582 41.3994 259.39 41.7537 259.072C42.108 258.753 42.3641 258.348 42.522 257.856C42.6797 257.359 42.7434 256.809 42.7132 256.205C42.6817 255.576 42.5604 255.029 42.3494 254.564C42.133 254.094 41.8489 253.731 41.4971 253.476C41.1402 253.221 40.7326 253.101 40.2745 253.116C39.8585 253.14 39.5212 253.278 39.2626 253.529C38.9989 253.781 38.7867 254.127 38.6262 254.567C38.4602 255.002 38.3187 255.508 38.2017 256.087L37.8244 257.926C37.5521 259.257 37.0916 260.321 36.4431 261.116C35.7891 261.907 34.8897 262.328 33.745 262.379C32.8033 262.421 31.9658 262.203 31.2327 261.725C30.4993 261.242 29.9154 260.567 29.4809 259.7C29.0412 258.834 28.7933 257.841 28.7374 256.723C28.6806 255.589 28.8286 254.586 29.1814 253.716C29.5286 252.84 30.0386 252.142 30.7114 251.621C31.3789 251.101 32.1624 250.813 33.0617 250.757L33.2011 253.543Z" fill="black"/>
<path d="M38.4993 215.576L22.7422 212.799L23.26 209.947L29.9307 211.123L31.2554 203.828L24.5847 202.653L25.104 199.793L40.8612 202.57L40.3419 205.43L33.6482 204.25L32.3235 211.545L39.0172 212.724L38.4993 215.576Z" fill="black"/>
<path d="M28.1202 185.221L43.7001 188.863L43.0186 191.68L27.4387 188.038L28.1202 185.221Z" fill="black"/>
<path d="M40.3909 161.571C39.9497 161.528 39.5296 161.548 39.1307 161.631C38.7292 161.706 38.3546 161.844 38.0071 162.043C37.6617 162.238 37.353 162.499 37.0809 162.825C36.804 163.15 36.5704 163.532 36.3799 163.972C36.0383 164.761 35.9336 165.546 36.0657 166.329C36.1978 167.111 36.5743 167.84 37.1954 168.516C37.8136 169.185 38.6758 169.75 39.7818 170.21C40.8975 170.674 41.918 170.893 42.8433 170.866C43.7687 170.839 44.5679 170.599 45.2409 170.146C45.9092 169.69 46.4213 169.052 46.7774 168.23C47.1003 167.484 47.2355 166.779 47.183 166.114C47.1325 165.444 46.907 164.851 46.5064 164.335C46.1009 163.817 45.54 163.408 44.8235 163.11L45.1781 162.547L43.4516 166.533L41.3597 165.663L43.9401 159.706L45.7146 160.444C46.9793 160.97 47.9574 161.693 48.6489 162.612C49.3403 163.531 49.7332 164.563 49.8276 165.708C49.9171 166.851 49.699 168.029 49.1732 169.243C48.5874 170.596 47.7676 171.656 46.7138 172.425C45.6574 173.187 44.4399 173.62 43.0614 173.723C41.6802 173.82 40.2105 173.544 38.6525 172.896C37.4599 172.4 36.4672 171.789 35.6743 171.065C34.8836 170.335 34.2927 169.531 33.9016 168.652C33.5057 167.771 33.314 166.851 33.3266 165.892C33.3343 164.93 33.5463 163.969 33.9624 163.009C34.3143 162.196 34.7626 161.489 35.3074 160.886C35.8473 160.282 36.4541 159.798 37.1277 159.435C37.8034 159.068 38.5183 158.832 39.2726 158.728C40.0269 158.625 40.7909 158.669 41.5647 158.861L40.3909 161.571Z" fill="black"/>
<path d="M43.9704 141.953L57.9765 149.688L56.5293 152.199L42.5232 144.464L43.9704 141.953Z" fill="black"/>
<path d="M73.2279 105.388C72.6683 104.988 72.0619 104.86 71.4088 105.004C70.7592 105.144 70.1417 105.528 69.5563 106.157C69.1447 106.6 68.8598 107.04 68.7016 107.477C68.5434 107.915 68.503 108.321 68.5804 108.697C68.6579 109.072 68.8447 109.395 69.1409 109.665C69.39 109.887 69.6575 110.023 69.9433 110.076C70.2327 110.124 70.5321 110.108 70.8415 110.028C71.147 109.944 71.4526 109.822 71.7582 109.661C72.0638 109.501 72.3576 109.327 72.6395 109.139L73.9415 108.29C74.4582 107.941 74.9959 107.642 75.5546 107.393C76.1168 107.14 76.6849 106.973 77.259 106.891C77.8366 106.806 78.4068 106.839 78.9696 106.991C79.5323 107.143 80.0726 107.449 80.5903 107.909C81.291 108.532 81.7447 109.256 81.9516 110.081C82.1546 110.902 82.0973 111.778 81.7797 112.707C81.4617 113.63 80.8664 114.56 79.9936 115.498C79.1456 116.41 78.2654 117.073 77.3529 117.488C76.444 117.899 75.5375 118.048 74.6335 117.934C73.7331 117.816 72.8716 117.42 72.0491 116.744L73.9916 114.657C74.4365 114.996 74.9 115.179 75.3822 115.203C75.8643 115.228 76.3385 115.123 76.8047 114.89C77.2745 114.652 77.7151 114.312 78.1267 113.87C78.556 113.409 78.862 112.942 79.0447 112.471C79.2271 111.992 79.284 111.541 79.2155 111.118C79.1431 110.691 78.9374 110.324 78.5984 110.015C78.2834 109.742 77.9431 109.603 77.5775 109.599C77.208 109.591 76.8079 109.685 76.3771 109.88C75.9461 110.068 75.4809 110.323 74.9816 110.646L73.3913 111.667C72.2407 112.407 71.1476 112.829 70.1123 112.932C69.0766 113.029 68.1305 112.696 67.2741 111.935C66.5696 111.309 66.1264 110.574 65.9447 109.729C65.7666 108.881 65.8331 108.003 66.1443 107.095C66.4516 106.184 66.9867 105.319 67.7495 104.499C68.5229 103.668 69.3485 103.071 70.2262 102.709C71.1036 102.339 71.9698 102.207 72.8249 102.312C73.6761 102.414 74.4438 102.758 75.1278 103.346L73.2279 105.388Z" fill="black"/>
<path d="M90.1224 103.466L79.4259 91.5675L87.3249 84.7929L88.9492 86.5998L83.2503 91.4875L86.1542 94.7179L91.444 90.1811L93.0683 91.988L87.7786 96.5248L90.6982 99.7726L96.4445 94.8442L98.0688 96.6511L90.1224 103.466Z" fill="black"/>
<path d="M104.652 90.1714L95.3586 77.1472L100.321 73.774C101.337 73.083 102.314 72.677 103.251 72.5562C104.193 72.4324 105.064 72.5642 105.865 72.9515C106.667 73.3317 107.365 73.9373 107.958 74.7683C108.554 75.6035 108.89 76.4515 108.967 77.3122C109.045 78.1657 108.855 78.9971 108.396 79.8064C107.934 80.6115 107.195 81.3595 106.178 82.0506L102.644 84.4531L101.247 82.4944L104.458 80.3115C105.052 79.9074 105.481 79.4959 105.745 79.0772C106.006 78.6541 106.116 78.2243 106.073 77.7876C106.031 77.3437 105.845 76.8907 105.515 76.4285C105.186 75.9664 104.812 75.6351 104.394 75.4345C103.972 75.2298 103.512 75.1714 103.012 75.2595C102.509 75.3434 101.958 75.5888 101.359 75.9958L99.1623 77.4892L107.049 88.5419L104.652 90.1714ZM107.277 79.6229L114.764 83.2976L112.089 85.116L104.66 81.4017L107.277 79.6229Z" fill="black"/>
<path d="M114.688 63.4874L124.483 72.5545L124.628 72.478L122.191 59.5264L125.01 58.0383L127.787 74.661L124.623 76.3315L111.876 64.9719L114.688 63.4874Z" fill="black"/>
<path d="M136.92 51.2903L143.749 65.76L141.104 66.9456L134.276 52.4759L136.92 51.2903Z" fill="black"/>
<path d="M157.418 48.7041L154.636 49.5979C154.402 49.1696 154.12 48.8146 153.788 48.533C153.454 48.2464 153.087 48.0307 152.686 47.8861C152.285 47.7414 151.86 47.6728 151.412 47.6801C150.966 47.6809 150.511 47.7562 150.045 47.906C149.217 48.1721 148.553 48.615 148.054 49.2348C147.553 49.8497 147.256 50.6124 147.164 51.5228C147.07 52.4282 147.216 53.4506 147.602 54.59C147.995 55.7491 148.508 56.6675 149.139 57.3453C149.774 58.0165 150.477 58.4524 151.249 58.6529C152.024 58.8469 152.823 58.8117 153.646 58.5472C154.103 58.4006 154.509 58.2044 154.866 57.9586C155.225 57.7062 155.524 57.4107 155.761 57.072C156.003 56.7317 156.174 56.3538 156.275 55.9385C156.381 55.5215 156.401 55.0776 156.335 54.6066L159.122 53.7276C159.262 54.4811 159.266 55.2294 159.133 55.9722C159.005 56.7135 158.745 57.415 158.354 58.0768C157.961 58.7337 157.438 59.3172 156.786 59.8275C156.133 60.3328 155.352 60.7312 154.445 61.0228C153.106 61.453 151.807 61.5287 150.546 61.2499C149.286 60.9711 148.156 60.3469 147.156 59.3773C146.156 58.4077 145.38 57.109 144.828 55.4814C144.274 53.8488 144.105 52.355 144.322 51C144.537 49.64 145.066 48.4829 145.908 47.5286C146.75 46.5743 147.835 45.8837 149.164 45.4567C150.012 45.1842 150.841 45.0493 151.65 45.0518C152.459 45.0544 153.227 45.1934 153.953 45.4689C154.677 45.7394 155.334 46.1462 155.926 46.6892C156.52 47.2257 157.017 47.8973 157.418 48.7041Z" fill="black"/>
<path d="M170.608 55.0163L167.229 39.3771L177.426 37.3022L177.939 39.6771L170.582 41.1741L171.5 45.4199L178.329 44.0303L178.842 46.4052L172.013 47.7948L172.935 52.0634L180.353 50.5539L180.867 52.9288L170.608 55.0163Z" fill="black"/>
<path d="M197.466 38.076C197.327 37.4036 196.969 36.9028 196.392 36.5736C195.82 36.2439 195.107 36.1181 194.251 36.1961C193.649 36.2509 193.142 36.3886 192.73 36.6093C192.317 36.83 192.012 37.1062 191.814 37.438C191.617 37.7698 191.535 38.1355 191.569 38.535C191.602 38.8668 191.705 39.1476 191.88 39.3775C192.059 39.6069 192.29 39.7951 192.571 39.942C192.852 40.0838 193.159 40.197 193.492 40.2817C193.824 40.3665 194.158 40.4328 194.493 40.4808L196.023 40.7178C196.639 40.8029 197.236 40.9394 197.814 41.1272C198.398 41.3146 198.928 41.5696 199.404 41.8923C199.886 42.2144 200.282 42.6203 200.592 43.1098C200.902 43.5993 201.091 44.1887 201.159 44.8781C201.251 45.8111 201.093 46.6543 200.686 47.4079C200.278 48.1564 199.643 48.7713 198.779 49.2526C197.921 49.7283 196.854 50.0243 195.578 50.1406C194.338 50.2536 193.243 50.16 192.292 49.8596C191.347 49.5588 190.581 49.0638 189.995 48.3745C189.414 47.6848 189.051 46.8132 188.905 45.7596L191.745 45.5008C191.841 46.0516 192.058 46.4973 192.395 46.8379C192.732 47.1785 193.151 47.4175 193.651 47.5549C194.156 47.6919 194.71 47.733 195.312 47.6781C195.939 47.6209 196.48 47.4775 196.933 47.2479C197.392 47.0126 197.739 46.7142 197.976 46.3528C198.212 45.9861 198.31 45.5744 198.27 45.1178C198.224 44.7037 198.068 44.3727 197.803 44.1249C197.538 43.8719 197.181 43.6744 196.732 43.5322C196.288 43.3844 195.774 43.2639 195.189 43.1707L193.331 42.8695C191.985 42.6522 190.897 42.2362 190.068 41.6215C189.242 41.0011 188.774 40.1208 188.661 38.9805C188.569 38.0423 188.742 37.1976 189.181 36.4464C189.625 35.6947 190.269 35.0842 191.112 34.6151C191.955 34.1408 192.934 33.8529 194.049 33.7512C195.18 33.6481 196.19 33.7548 197.08 34.0712C197.974 34.3819 198.699 34.8624 199.255 35.5125C199.81 36.1574 200.14 36.9275 200.244 37.8228L197.466 38.076Z" fill="black"/>
<path d="M322.139 70.8892C321.58 70.8529 321.112 70.6214 320.738 70.1947C320.363 69.7681 320.194 69.275 320.23 68.7156C320.267 68.1562 320.498 67.6891 320.925 67.3144C321.351 66.9398 321.844 66.7706 322.404 66.8069C322.963 66.8432 323.43 67.0747 323.805 67.5014C324.18 67.9281 324.349 68.4211 324.313 68.9806C324.289 69.351 324.172 69.685 323.963 69.9827C323.761 70.2809 323.499 70.5144 323.177 70.6833C322.863 70.8451 322.517 70.9138 322.139 70.8892Z" fill="black"/>
<path d="M219.928 43.7437C219.369 43.7074 218.902 43.4759 218.527 43.0492C218.152 42.6226 217.983 42.1295 218.019 41.5701C218.056 41.0106 218.287 40.5436 218.714 40.1689C219.141 39.7943 219.634 39.6251 220.193 39.6614C220.752 39.6977 221.219 39.9292 221.594 40.3559C221.969 40.7826 222.138 41.2756 222.102 41.835C222.078 42.2055 221.961 42.5395 221.752 42.8372C221.55 43.1354 221.288 43.3689 220.966 43.5378C220.652 43.6996 220.306 43.7683 219.928 43.7437Z" fill="black"/>
<path d="M59.1785 132.935C58.6191 132.899 58.152 132.667 57.7774 132.241C57.4027 131.814 57.2335 131.321 57.2698 130.761C57.3061 130.202 57.5376 129.735 57.9643 129.36C58.391 128.986 58.884 128.816 59.4435 128.853C60.0029 128.889 60.4699 129.121 60.8446 129.547C61.2193 129.974 61.3885 130.467 61.3521 131.026C61.3281 131.397 61.2115 131.731 61.0024 132.029C60.8009 132.327 60.539 132.56 60.2167 132.729C59.9026 132.891 59.5565 132.96 59.1785 132.935Z" fill="black"/>
<path d="M416.949 227.457C416.39 227.42 415.923 227.189 415.548 226.762C415.173 226.335 415.004 225.842 415.04 225.283C415.077 224.724 415.308 224.256 415.735 223.882C416.161 223.507 416.655 223.338 417.214 223.374C417.773 223.411 418.24 223.642 418.615 224.069C418.99 224.495 419.159 224.989 419.123 225.548C419.099 225.918 418.982 226.252 418.773 226.55C418.571 226.848 418.309 227.082 417.987 227.251C417.673 227.413 417.327 227.481 416.949 227.457Z" fill="black"/>
<path d="M226.737 416.311C226.177 416.275 225.71 416.043 225.335 415.617C224.961 415.19 224.792 414.697 224.828 414.137C224.864 413.578 225.096 413.111 225.522 412.736C225.949 412.362 226.442 412.192 227.002 412.229C227.561 412.265 228.028 412.497 228.403 412.923C228.777 413.35 228.947 413.843 228.91 414.402C228.886 414.773 228.77 415.107 228.561 415.405C228.359 415.703 228.097 415.936 227.775 416.105C227.461 416.267 227.115 416.336 226.737 416.311Z" fill="black"/>
<path d="M32.3865 237.658C31.8271 237.621 31.36 237.39 30.9854 236.963C30.6107 236.537 30.4415 236.044 30.4778 235.484C30.5141 234.925 30.7456 234.458 31.1723 234.083C31.599 233.708 32.0921 233.539 32.6515 233.575C33.2109 233.612 33.678 233.843 34.0526 234.27C34.4273 234.697 34.5965 235.19 34.5602 235.749C34.5361 236.12 34.4195 236.454 34.2104 236.751C34.0089 237.049 33.747 237.283 33.4248 237.452C33.1106 237.614 32.7645 237.682 32.3865 237.658Z" fill="black"/>
<path d="M125.143 395.067C124.583 395.031 124.116 394.799 123.742 394.372C123.367 393.946 123.198 393.453 123.234 392.893C123.27 392.334 123.502 391.867 123.929 391.492C124.355 391.118 124.848 390.948 125.408 390.985C125.967 391.021 126.434 391.252 126.809 391.679C127.184 392.106 127.353 392.599 127.317 393.158C127.292 393.529 127.176 393.863 126.967 394.16C126.765 394.459 126.503 394.692 126.181 394.861C125.867 395.023 125.521 395.091 125.143 395.067Z" fill="black"/>
<path d="M391.405 328.353C390.846 328.317 390.379 328.085 390.004 327.659C389.629 327.232 389.46 326.739 389.496 326.179C389.533 325.62 389.764 325.153 390.191 324.778C390.618 324.404 391.111 324.234 391.67 324.271C392.229 324.307 392.697 324.539 393.071 324.965C393.446 325.392 393.615 325.885 393.579 326.444C393.555 326.815 393.438 327.149 393.229 327.447C393.027 327.745 392.766 327.978 392.443 328.147C392.129 328.309 391.783 328.378 391.405 328.353Z" fill="black"/>
</svg>
