<svg width="452" height="461" viewBox="0 0 452 461" fill="none" xmlns="http://www.w3.org/2000/svg">
<circle cx="225.286" cy="235.265" r="211.5" transform="rotate(3.7137 225.286 235.265)" fill="#ECCC5A" stroke="black"/>
<path d="M220.957 155.58L172.745 103.695L171.681 175.856L100.668 168.539L146.06 222.046L88.4076 259.837L156.309 273.273L134.636 342.292L198.421 307.608L225.875 372.592L253.68 306.68L314.949 338.646L293.019 272.215L359.416 253.05L299.224 218.445L342.841 159.879L270.486 173.241L267.887 101.744L220.957 155.58Z" fill="#131213"/>
<path d="M238.674 48.7788L241.491 33.0289L244.344 33.5393L243.151 40.2069L250.45 41.5124L251.642 34.8448L254.503 35.3566L251.686 51.1066L248.825 50.5948L250.022 43.9041L242.724 42.5986L241.527 49.2892L238.674 48.7788Z" fill="black"/>
<path d="M273.656 39.0237L276.434 39.8503L273.453 49.8693C273.126 50.9676 272.579 51.8563 271.812 52.5354C271.049 53.2161 270.132 53.6522 269.059 53.8437C267.987 54.0302 266.827 53.9377 265.579 53.5664C264.326 53.1935 263.302 52.6361 262.507 51.8941C261.713 51.147 261.183 50.2802 260.917 49.2935C260.651 48.3069 260.681 47.2644 261.008 46.1662L263.989 36.1472L266.767 36.9738L263.855 46.7607C263.665 47.3996 263.635 48.0103 263.766 48.5927C263.902 49.1766 264.185 49.6873 264.614 50.1248C265.045 50.5574 265.613 50.8784 266.317 51.0878C267.021 51.2973 267.671 51.3387 268.269 51.2122C268.872 51.0821 269.388 50.8091 269.816 50.393C270.245 49.977 270.554 49.4495 270.744 48.8105L273.656 39.0237Z" fill="black"/>
<path d="M293.865 50.6589C293.91 50.2196 293.893 49.8018 293.812 49.4055C293.738 49.0063 293.602 48.6344 293.403 48.2898C293.209 47.9471 292.948 47.6413 292.621 47.3723C292.296 47.0985 291.913 46.868 291.472 46.6808C290.681 46.345 289.891 46.2448 289.104 46.3802C288.317 46.5156 287.582 46.894 286.899 47.5153C286.224 48.1338 285.652 48.9944 285.184 50.0971C284.712 51.2094 284.487 52.2258 284.509 53.1462C284.532 54.0667 284.769 54.8605 285.221 55.5278C285.676 56.1903 286.315 56.6965 287.14 57.0465C287.888 57.364 288.596 57.4949 289.265 57.4392C289.938 57.3856 290.535 57.1582 291.056 56.757C291.579 56.351 291.993 55.7908 292.296 55.0764L292.86 55.4263L288.862 53.7292L289.747 51.6436L295.723 54.1803L294.972 55.9494C294.437 57.2103 293.706 58.187 292.778 58.8796C291.85 59.5722 290.811 59.9684 289.659 60.0681C288.51 60.1631 287.327 59.9521 286.109 59.4352C284.752 58.8593 283.69 58.0492 282.922 57.0048C282.162 55.9577 281.733 54.7487 281.636 53.3778C281.545 52.0042 281.83 50.5407 282.489 48.9873C282.994 47.7983 283.612 46.8076 284.345 46.0152C285.082 45.2248 285.894 44.6328 286.779 44.2392C287.667 43.8408 288.593 43.6454 289.557 43.653C290.524 43.6558 291.489 43.8617 292.452 44.2708C293.267 44.6167 293.976 45.0591 294.579 45.598C295.184 46.132 295.668 46.7332 296.029 47.4015C296.395 48.0718 296.628 48.7819 296.729 49.5318C296.829 50.2816 296.781 51.042 296.584 51.8127L293.865 50.6589Z" fill="black"/>
<path d="M308.096 51.498L301.038 65.8574L298.437 64.579L305.494 50.2195L308.096 51.498Z" fill="black"/>
<path d="M351.754 83.6236C352.16 83.0697 352.29 82.47 352.145 81.8242C352.004 81.182 351.615 80.5718 350.98 79.9936C350.533 79.5871 350.088 79.3059 349.645 79.1499C349.203 78.9939 348.792 78.9544 348.412 79.0314C348.032 79.1084 347.705 79.2935 347.432 79.5867C347.208 79.8333 347.069 80.0979 347.016 80.3807C346.967 80.6669 346.983 80.9629 347.064 81.2688C347.148 81.5708 347.271 81.8728 347.433 82.1749C347.595 82.4769 347.771 82.7672 347.961 83.0458L348.818 84.3324C349.171 84.843 349.472 85.3743 349.723 85.9265C349.978 86.4822 350.147 87.0439 350.229 87.6115C350.315 88.1826 350.281 88.7464 350.127 89.3031C349.973 89.8598 349.662 90.3944 349.196 90.9068C348.566 91.6004 347.833 92.0499 346.998 92.2554C346.167 92.4571 345.282 92.4014 344.341 92.0883C343.408 91.7749 342.468 91.1872 341.52 90.3251C340.599 89.4876 339.929 88.6179 339.511 87.716C339.096 86.8177 338.946 85.9214 339.062 85.0274C339.182 84.1368 339.584 83.2845 340.268 82.4704L342.378 84.389C342.034 84.8293 341.849 85.2879 341.824 85.7647C341.798 86.2415 341.904 86.7103 342.139 87.1711C342.379 87.6353 342.722 88.0707 343.169 88.4772C343.635 88.9012 344.107 89.2033 344.584 89.3835C345.068 89.5633 345.524 89.6191 345.952 89.5509C346.384 89.4788 346.756 89.275 347.068 88.9394C347.344 88.6276 347.485 88.291 347.49 87.9294C347.499 87.564 347.404 87.1684 347.207 86.7427C347.017 86.3166 346.759 85.8569 346.434 85.3636L345.402 83.7921C344.655 82.655 344.23 81.5746 344.126 80.5509C344.03 79.5268 344.367 78.5909 345.138 77.7432C345.772 77.0458 346.516 76.6068 347.37 76.4261C348.228 76.249 349.116 76.3139 350.034 76.6206C350.956 76.9235 351.831 77.4516 352.659 78.205C353.499 78.969 354.102 79.7847 354.467 80.6522C354.84 81.5194 354.973 82.3759 354.866 83.2216C354.762 84.0635 354.413 84.823 353.818 85.5001L351.754 83.6236Z" fill="black"/>
<path d="M354.012 100.545L366.035 89.9875L372.901 97.807L371.075 99.4102L366.121 93.7687L362.857 96.6348L367.456 101.871L365.63 103.474L361.032 98.2379L357.75 101.12L362.745 106.808L360.92 108.411L354.012 100.545Z" fill="black"/>
<path d="M367.746 115.128L380.875 105.983L384.304 110.906C385.007 111.915 385.421 112.883 385.547 113.811C385.676 114.743 385.546 115.605 385.157 116.396C384.776 117.188 384.167 117.876 383.329 118.46C382.487 119.046 381.631 119.376 380.761 119.448C379.899 119.522 379.058 119.331 378.238 118.873C377.422 118.413 376.663 117.679 375.961 116.67L373.518 113.163L375.493 111.788L377.712 114.974C378.123 115.564 378.54 115.991 378.965 116.253C379.393 116.514 379.828 116.623 380.27 116.582C380.718 116.543 381.175 116.361 381.641 116.036C382.107 115.712 382.441 115.343 382.642 114.93C382.847 114.514 382.904 114.059 382.813 113.564C382.726 113.065 382.476 112.519 382.062 111.925L380.544 109.746L369.402 117.506L367.746 115.128ZM378.419 117.767L374.734 125.16L372.885 122.506L376.611 115.17L378.419 117.767Z" fill="black"/>
<path d="M394.933 125.368L385.841 135.025L385.919 135.17L398.973 132.829L400.49 135.632L383.734 138.289L382.031 135.142L393.42 122.572L394.933 125.368Z" fill="black"/>
<path d="M409.868 148.676L395.033 154.67L393.947 151.982L408.782 145.988L409.868 148.676Z" fill="black"/>
<path d="M411.704 169.255L410.92 166.441C411.359 166.232 411.727 165.97 412.023 165.655C412.324 165.338 412.555 164.985 412.716 164.594C412.878 164.203 412.964 163.784 412.975 163.337C412.992 162.895 412.935 162.438 412.803 161.966C412.57 161.128 412.152 160.444 411.55 159.915C410.954 159.383 410.2 159.047 409.29 158.906C408.386 158.764 407.354 158.854 406.195 159.177C405.016 159.505 404.073 159.965 403.368 160.557C402.668 161.152 402.203 161.828 401.97 162.584C401.744 163.345 401.747 164.141 401.979 164.974C402.108 165.436 402.288 165.851 402.521 166.218C402.759 166.59 403.044 166.903 403.374 167.157C403.706 167.416 404.078 167.606 404.491 167.729C404.905 167.857 405.35 167.901 405.825 167.86L406.594 170.679C405.832 170.778 405.081 170.741 404.341 170.569C403.603 170.402 402.909 170.106 402.261 169.681C401.618 169.255 401.053 168.704 400.567 168.028C400.087 167.351 399.719 166.553 399.463 165.635C399.085 164.28 399.062 162.984 399.392 161.746C399.723 160.507 400.395 159.417 401.409 158.475C402.422 157.533 403.757 156.831 405.412 156.37C407.073 155.907 408.579 155.82 409.93 156.108C411.286 156.395 412.426 156.983 413.349 157.872C414.273 158.761 414.922 159.878 415.297 161.222C415.536 162.08 415.638 162.912 415.603 163.716C415.567 164.521 415.397 165.277 415.091 165.984C414.79 166.689 414.355 167.321 413.786 167.88C413.224 168.442 412.53 168.901 411.704 169.255Z" fill="black"/>
<path d="M404.933 182.211L420.729 179.669L422.383 189.943L419.984 190.329L418.791 182.916L414.503 183.607L415.61 190.487L413.211 190.873L412.104 183.993L407.792 184.687L408.995 192.161L406.596 192.547L404.933 182.211Z" fill="black"/>
<path d="M420.805 210.002C421.483 209.897 421.999 209.565 422.353 209.006C422.708 208.452 422.864 207.746 422.824 206.888C422.795 206.284 422.68 205.771 422.477 205.348C422.274 204.925 422.012 204.606 421.689 204.392C421.366 204.178 421.004 204.078 420.603 204.091C420.27 204.107 419.985 204.196 419.747 204.359C419.51 204.526 419.312 204.747 419.153 205.02C418.999 205.294 418.873 205.594 418.773 205.922C418.674 206.25 418.593 206.58 418.531 206.911L418.227 208.427C418.116 209.038 417.953 209.627 417.74 210.195C417.528 210.768 417.25 211.284 416.906 211.744C416.563 212.208 416.141 212.583 415.638 212.868C415.135 213.152 414.538 213.311 413.846 213.344C412.91 213.388 412.074 213.188 411.338 212.743C410.608 212.298 410.021 211.632 409.578 210.746C409.139 209.865 408.89 208.784 408.829 207.504C408.77 206.261 408.912 205.172 409.253 204.238C409.595 203.31 410.123 202.57 410.838 202.02C411.552 201.475 412.439 201.157 413.498 201.065L413.633 203.913C413.079 203.981 412.624 204.175 412.269 204.494C411.914 204.814 411.657 205.219 411.497 205.712C411.339 206.21 411.273 206.76 411.302 207.364C411.332 207.993 411.452 208.54 411.661 209.005C411.877 209.474 412.16 209.836 412.511 210.091C412.867 210.345 413.274 210.464 413.732 210.447C414.148 210.422 414.486 210.284 414.745 210.032C415.009 209.779 415.222 209.433 415.384 208.992C415.551 208.557 415.694 208.05 415.812 207.47L416.194 205.63C416.47 204.298 416.933 203.233 417.584 202.436C418.239 201.643 419.14 201.22 420.284 201.166C421.226 201.121 422.063 201.337 422.794 201.813C423.526 202.295 424.108 202.968 424.54 203.834C424.978 204.7 425.223 205.692 425.276 206.811C425.33 207.945 425.179 208.948 424.824 209.82C424.475 210.697 423.963 211.396 423.289 211.918C422.62 212.44 421.836 212.73 420.937 212.788L420.805 210.002Z" fill="black"/>
<path d="M411.068 248.606L426.818 251.424L426.307 254.277L419.64 253.084L418.334 260.382L425.002 261.575L424.49 264.436L408.74 261.618L409.252 258.758L415.943 259.954L417.248 252.656L410.557 251.459L411.068 248.606Z" fill="black"/>
<path d="M420.821 283.589L419.994 286.367L409.975 283.385C408.877 283.059 407.988 282.512 407.309 281.744C406.629 280.982 406.193 280.064 406.001 278.991C405.815 277.92 405.907 276.76 406.278 275.512C406.651 274.259 407.209 273.235 407.951 272.439C408.698 271.645 409.565 271.115 410.551 270.849C411.538 270.583 412.58 270.613 413.679 270.94L423.698 273.922L422.871 276.7L413.084 273.787C412.445 273.597 411.834 273.568 411.252 273.699C410.668 273.835 410.157 274.117 409.72 274.547C409.287 274.978 408.966 275.545 408.757 276.249C408.547 276.953 408.506 277.604 408.633 278.201C408.763 278.805 409.036 279.321 409.452 279.749C409.868 280.177 410.395 280.486 411.034 280.676L420.821 283.589Z" fill="black"/>
<path d="M409.186 303.797C409.625 303.842 410.043 303.824 410.439 303.743C410.838 303.67 411.21 303.533 411.555 303.334C411.898 303.14 412.203 302.88 412.472 302.553C412.746 302.227 412.977 301.844 413.164 301.403C413.5 300.612 413.6 299.823 413.464 299.036C413.329 298.248 412.951 297.513 412.329 296.831C411.711 296.155 410.85 295.584 409.748 295.115C408.635 294.643 407.619 294.418 406.699 294.441C405.778 294.463 404.984 294.7 404.317 295.153C403.654 295.607 403.148 296.247 402.798 297.071C402.481 297.819 402.35 298.527 402.405 299.196C402.459 299.87 402.687 300.467 403.088 300.988C403.494 301.511 404.054 301.924 404.768 302.227L404.418 302.792L406.116 298.793L408.201 299.679L405.664 305.655L403.895 304.904C402.634 304.369 401.658 303.637 400.965 302.709C400.273 301.782 399.876 300.742 399.777 299.591C399.682 298.442 399.893 297.258 400.41 296.04C400.985 294.684 401.796 293.621 402.84 292.854C403.887 292.093 405.096 291.664 406.467 291.567C407.841 291.477 409.304 291.761 410.857 292.421C412.046 292.926 413.037 293.544 413.83 294.276C414.62 295.014 415.212 295.825 415.606 296.711C416.004 297.598 416.199 298.524 416.192 299.489C416.189 300.455 415.983 301.42 415.574 302.384C415.228 303.199 414.786 303.908 414.247 304.511C413.713 305.116 413.111 305.599 412.443 305.96C411.773 306.327 411.063 306.56 410.313 306.66C409.563 306.761 408.803 306.712 408.032 306.515L409.186 303.797Z" fill="black"/>
<path d="M408.689 318.696L394.284 311.731L395.546 309.121L409.95 316.087L408.689 318.696Z" fill="black"/>
<path d="M376.223 361.686C376.777 362.091 377.377 362.221 378.022 362.076C378.665 361.935 379.275 361.547 379.853 360.911C380.26 360.464 380.541 360.019 380.697 359.577C380.853 359.135 380.892 358.723 380.815 358.344C380.738 357.964 380.553 357.637 380.26 357.363C380.013 357.139 379.749 357.001 379.466 356.948C379.18 356.898 378.884 356.914 378.578 356.995C378.276 357.08 377.974 357.203 377.672 357.364C377.37 357.526 377.079 357.702 376.801 357.892L375.514 358.75C375.004 359.102 374.472 359.404 373.92 359.655C373.364 359.91 372.803 360.079 372.235 360.161C371.664 360.247 371.1 360.213 370.544 360.059C369.987 359.904 369.452 359.594 368.94 359.128C368.246 358.497 367.797 357.765 367.591 356.93C367.39 356.099 367.445 355.213 367.758 354.273C368.072 353.34 368.659 352.4 369.522 351.452C370.359 350.531 371.229 349.861 372.131 349.442C373.029 349.027 373.925 348.878 374.819 348.994C375.71 349.114 376.562 349.516 377.376 350.2L375.458 352.31C375.017 351.965 374.559 351.781 374.082 351.755C373.605 351.73 373.136 351.835 372.676 352.071C372.211 352.31 371.776 352.654 371.369 353.101C370.945 353.567 370.643 354.038 370.463 354.515C370.283 354.999 370.228 355.456 370.296 355.884C370.368 356.315 370.572 356.687 370.907 356.999C371.219 357.276 371.556 357.417 371.917 357.422C372.283 357.43 372.678 357.336 373.104 357.139C373.53 356.949 373.99 356.691 374.483 356.365L376.055 355.334C377.192 354.587 378.272 354.162 379.296 354.058C380.32 353.961 381.256 354.298 382.103 355.069C382.801 355.704 383.24 356.448 383.421 357.302C383.598 358.16 383.533 359.048 383.226 359.966C382.923 360.887 382.395 361.762 381.642 362.591C380.878 363.431 380.062 364.033 379.194 364.399C378.327 364.772 377.471 364.905 376.625 364.797C375.783 364.693 375.024 364.344 374.347 363.75L376.223 361.686Z" fill="black"/>
<path d="M359.302 363.945L369.859 375.967L362.04 382.834L360.436 381.008L366.078 376.054L363.212 372.79L357.975 377.388L356.372 375.562L361.609 370.964L358.727 367.683L353.039 372.678L351.436 370.852L359.302 363.945Z" fill="black"/>
<path d="M344.719 377.679L353.864 390.809L348.94 394.238C347.932 394.94 346.963 395.355 346.035 395.48C345.103 395.609 344.242 395.479 343.451 395.091C342.658 394.71 341.97 394.1 341.387 393.263C340.801 392.421 340.471 391.565 340.398 390.695C340.325 389.833 340.516 388.991 340.973 388.172C341.434 387.356 342.168 386.597 343.177 385.894L346.683 383.452L348.058 385.426L344.872 387.646C344.283 388.056 343.856 388.474 343.593 388.898C343.333 389.327 343.224 389.762 343.264 390.203C343.304 390.652 343.486 391.109 343.81 391.575C344.135 392.041 344.503 392.374 344.916 392.575C345.332 392.781 345.788 392.838 346.283 392.747C346.781 392.66 347.327 392.41 347.921 391.996L350.101 390.478L342.341 379.336L344.719 377.679ZM342.08 388.353L334.686 384.667L337.34 382.819L344.677 386.544L342.08 388.353Z" fill="black"/>
<path d="M334.479 404.867L324.821 395.774L324.677 395.852L327.018 408.906L324.214 410.424L321.558 393.668L324.704 391.964L337.275 403.353L334.479 404.867Z" fill="black"/>
<path d="M311.668 416.826L305.674 401.991L308.362 400.905L314.355 415.74L311.668 416.826Z" fill="black"/>
<path d="M291.085 418.665L293.899 417.881C294.108 418.32 294.37 418.687 294.685 418.984C295.002 419.285 295.355 419.516 295.746 419.677C296.137 419.839 296.556 419.925 297.002 419.936C297.445 419.953 297.902 419.896 298.374 419.764C299.212 419.531 299.896 419.113 300.425 418.511C300.957 417.914 301.293 417.161 301.434 416.251C301.576 415.347 301.486 414.315 301.163 413.156C300.835 411.977 300.375 411.034 299.783 410.329C299.188 409.629 298.512 409.163 297.756 408.931C296.995 408.705 296.198 408.708 295.366 408.94C294.904 409.069 294.489 409.249 294.121 409.481C293.75 409.72 293.437 410.005 293.183 410.335C292.924 410.667 292.733 411.039 292.611 411.452C292.483 411.866 292.439 412.31 292.479 412.786L289.661 413.555C289.562 412.793 289.599 412.042 289.771 411.302C289.938 410.563 290.234 409.87 290.659 409.222C291.085 408.578 291.636 408.014 292.312 407.528C292.989 407.048 293.787 406.679 294.705 406.424C296.059 406.046 297.356 406.023 298.594 406.353C299.833 406.684 300.923 407.356 301.865 408.37C302.807 409.383 303.509 410.718 303.97 412.373C304.433 414.034 304.52 415.54 304.232 416.891C303.945 418.247 303.357 419.387 302.468 420.31C301.579 421.234 300.462 421.883 299.117 422.258C298.26 422.497 297.428 422.599 296.624 422.563C295.819 422.528 295.063 422.358 294.356 422.052C293.651 421.751 293.018 421.316 292.46 420.747C291.898 420.185 291.439 419.491 291.085 418.665Z" fill="black"/>
<path d="M278.13 411.894L280.672 427.69L270.398 429.344L270.012 426.945L277.424 425.752L276.734 421.463L269.854 422.571L269.468 420.172L276.348 419.065L275.654 414.753L268.18 415.956L267.794 413.557L278.13 411.894Z" fill="black"/>
<path d="M250.341 427.764C250.446 428.442 250.779 428.958 251.338 429.312C251.891 429.667 252.598 429.823 253.456 429.783C254.059 429.754 254.573 429.638 254.996 429.436C255.419 429.233 255.738 428.971 255.952 428.648C256.166 428.325 256.266 427.963 256.252 427.562C256.237 427.229 256.147 426.944 255.985 426.706C255.817 426.469 255.597 426.271 255.323 426.112C255.05 425.958 254.749 425.832 254.422 425.732C254.094 425.633 253.764 425.552 253.432 425.49L251.916 425.186C251.306 425.075 250.717 424.912 250.149 424.699C249.576 424.487 249.059 424.209 248.6 423.865C248.135 423.522 247.761 423.1 247.476 422.597C247.192 422.094 247.033 421.497 247 420.805C246.956 419.869 247.156 419.033 247.601 418.297C248.046 417.567 248.711 416.98 249.598 416.537C250.479 416.098 251.56 415.849 252.839 415.788C254.083 415.729 255.171 415.871 256.105 416.212C257.034 416.554 257.773 417.082 258.323 417.797C258.868 418.511 259.187 419.398 259.279 420.457L256.43 420.592C256.362 420.038 256.169 419.583 255.849 419.228C255.53 418.873 255.124 418.616 254.632 418.456C254.134 418.298 253.584 418.232 252.98 418.261C252.351 418.291 251.804 418.411 251.339 418.62C250.869 418.836 250.507 419.119 250.253 419.47C249.999 419.826 249.88 420.233 249.896 420.691C249.921 421.107 250.06 421.445 250.312 421.704C250.564 421.968 250.911 422.181 251.351 422.343C251.787 422.51 252.294 422.653 252.873 422.771L254.714 423.153C256.046 423.429 257.111 423.892 257.908 424.543C258.7 425.198 259.124 426.099 259.178 427.243C259.223 428.185 259.007 429.022 258.531 429.753C258.049 430.485 257.375 431.067 256.509 431.499C255.644 431.937 254.652 432.182 253.533 432.235C252.399 432.289 251.396 432.138 250.524 431.783C249.647 431.434 248.948 430.922 248.426 430.248C247.904 429.579 247.614 428.795 247.555 427.896L250.341 427.764Z" fill="black"/>
<path d="M211.24 421.001L208.423 436.751L205.57 436.241L206.763 429.573L199.464 428.268L198.272 434.935L195.411 434.424L198.228 418.674L201.089 419.185L199.892 425.876L207.19 427.182L208.387 420.491L211.24 421.001Z" fill="black"/>
<path d="M176.26 430.752L173.482 429.925L176.463 419.906C176.79 418.808 177.337 417.919 178.104 417.24C178.867 416.559 179.784 416.123 180.857 415.932C181.929 415.745 183.089 415.838 184.337 416.209C185.59 416.582 186.614 417.139 187.409 417.881C188.203 418.628 188.733 419.495 188.999 420.482C189.265 421.469 189.235 422.511 188.908 423.609L185.927 433.628L183.149 432.802L186.061 423.015C186.251 422.376 186.281 421.765 186.15 421.183C186.014 420.599 185.731 420.088 185.302 419.651C184.871 419.218 184.303 418.897 183.599 418.688C182.895 418.478 182.245 418.437 181.647 418.563C181.044 418.693 180.528 418.966 180.1 419.382C179.671 419.798 179.362 420.326 179.172 420.965L176.26 430.752Z" fill="black"/>
<path d="M156.049 419.118C156.004 419.558 156.022 419.975 156.102 420.372C156.176 420.771 156.312 421.143 156.511 421.488C156.705 421.83 156.966 422.136 157.293 422.405C157.618 422.679 158.001 422.909 158.442 423.097C159.233 423.432 160.023 423.533 160.81 423.397C161.597 423.262 162.332 422.883 163.015 422.262C163.69 421.644 164.262 420.783 164.73 419.68C165.202 418.568 165.427 417.552 165.405 416.631C165.382 415.711 165.145 414.917 164.693 414.25C164.238 413.587 163.599 413.081 162.774 412.731C162.026 412.413 161.318 412.282 160.65 412.338C159.976 412.392 159.379 412.619 158.858 413.02C158.335 413.426 157.921 413.987 157.618 414.701L157.054 414.351L161.052 416.048L160.167 418.134L154.191 415.597L154.942 413.828C155.477 412.567 156.208 411.59 157.136 410.898C158.064 410.205 159.103 409.809 160.255 409.709C161.404 409.614 162.587 409.825 163.805 410.342C165.162 410.918 166.224 411.728 166.992 412.773C167.752 413.82 168.181 415.029 168.278 416.4C168.369 417.773 168.084 419.237 167.425 420.79C166.92 421.979 166.302 422.97 165.569 423.762C164.832 424.553 164.021 425.145 163.135 425.538C162.247 425.937 161.321 426.132 160.357 426.124C159.391 426.122 158.426 425.916 157.462 425.507C156.647 425.161 155.938 424.718 155.335 424.179C154.73 423.645 154.247 423.044 153.885 422.376C153.519 421.706 153.286 420.995 153.185 420.246C153.085 419.496 153.133 418.735 153.33 417.965L156.049 419.118Z" fill="black"/>
<path d="M141.935 418.179L150.229 404.497L152.708 406L144.413 419.682L141.935 418.179Z" fill="black"/>
<path d="M98.1596 386.156C97.7545 386.71 97.6244 387.309 97.7693 387.955C97.9103 388.597 98.2988 389.207 98.9345 389.786C99.3815 390.192 99.8262 390.473 100.269 390.629C100.711 390.785 101.122 390.825 101.502 390.748C101.882 390.671 102.209 390.486 102.482 390.193C102.707 389.946 102.845 389.681 102.898 389.399C102.947 389.112 102.931 388.816 102.85 388.51C102.766 388.208 102.643 387.906 102.481 387.604C102.319 387.302 102.143 387.012 101.953 386.734L101.096 385.447C100.743 384.936 100.442 384.405 100.191 383.853C99.9357 383.297 99.7671 382.735 99.6849 382.168C99.5988 381.597 99.6329 381.033 99.7872 380.476C99.9415 379.92 100.252 379.385 100.718 378.872C101.348 378.179 102.081 377.729 102.916 377.524C103.747 377.322 104.632 377.378 105.573 377.691C106.506 378.004 107.446 378.592 108.394 379.454C109.315 380.292 109.985 381.161 110.404 382.063C110.819 382.962 110.968 383.858 110.852 384.752C110.732 385.643 110.33 386.495 109.646 387.309L107.536 385.39C107.88 384.95 108.065 384.491 108.09 384.015C108.116 383.538 108.01 383.069 107.775 382.608C107.535 382.144 107.192 381.709 106.745 381.302C106.279 380.878 105.807 380.576 105.33 380.396C104.846 380.216 104.39 380.16 103.962 380.228C103.53 380.301 103.158 380.504 102.846 380.84C102.57 381.152 102.429 381.488 102.424 381.85C102.416 382.215 102.51 382.611 102.707 383.037C102.897 383.463 103.155 383.922 103.48 384.416L104.512 385.987C105.259 387.124 105.684 388.205 105.788 389.228C105.885 390.253 105.547 391.188 104.776 392.036C104.142 392.734 103.398 393.173 102.544 393.353C101.686 393.53 100.798 393.465 99.8798 393.159C98.9584 392.856 98.0836 392.328 97.2551 391.574C96.4151 390.81 95.8123 389.995 95.4467 389.127C95.0738 388.26 94.941 387.403 95.0484 386.558C95.1522 385.716 95.5015 384.956 96.0962 384.279L98.1596 386.156Z" fill="black"/>
<path d="M95.904 369.236L83.8813 379.793L77.015 371.973L78.8407 370.37L83.7946 376.012L87.0585 373.146L82.4604 367.909L84.2861 366.306L88.8843 371.542L92.1659 368.661L87.1708 362.972L88.9965 361.369L95.904 369.236Z" fill="black"/>
<path d="M82.1702 354.651L69.041 363.795L65.6118 358.872C64.9093 357.863 64.4951 356.895 64.3693 355.967C64.2405 355.035 64.3703 354.173 64.7587 353.382C65.1399 352.59 65.7493 351.902 66.587 351.319C67.4289 350.732 68.2848 350.403 69.1545 350.33C70.017 350.256 70.8582 350.448 71.6781 350.905C72.4937 351.365 73.2527 352.1 73.9553 353.108L76.3977 356.615L74.4232 357.99L72.204 354.804C71.7932 354.214 71.3756 353.788 70.9513 353.525C70.5226 353.265 70.0877 353.155 69.6464 353.196C69.1979 353.235 68.7407 353.417 68.2748 353.742C67.809 354.066 67.4755 354.435 67.2744 354.848C67.0691 355.264 67.0119 355.72 67.1029 356.215C67.1896 356.713 67.4399 357.259 67.8536 357.853L69.3718 360.033L80.5137 352.272L82.1702 354.651ZM71.4969 352.012L75.1823 344.618L77.0308 347.272L73.3053 354.608L71.4969 352.012Z" fill="black"/>
<path d="M54.9826 344.41L64.0752 334.753L63.9971 334.609L50.9434 336.949L49.426 334.146L66.1818 331.489L67.8853 334.636L56.4964 347.207L54.9826 344.41Z" fill="black"/>
<path d="M44.4642 321.694L59.2991 315.701L60.3849 318.388L45.55 324.382L44.4642 321.694Z" fill="black"/>
<path d="M42.6279 301.11L43.4123 303.925C42.9731 304.134 42.6054 304.396 42.3093 304.711C42.0082 305.027 41.777 305.381 41.6156 305.772C41.4542 306.163 41.3681 306.581 41.3574 307.028C41.3402 307.47 41.3973 307.928 41.5287 308.399C41.7622 309.237 42.1799 309.921 42.7817 310.451C43.3785 310.982 44.1318 311.318 45.0416 311.459C45.9464 311.602 46.9783 311.511 48.1373 311.189C49.3163 310.86 50.2587 310.4 50.9643 309.809C51.6636 309.214 52.1295 308.538 52.3619 307.781C52.5879 307.02 52.5849 306.224 52.3528 305.391C52.2242 304.929 52.0437 304.515 51.8115 304.147C51.5728 303.775 51.2883 303.463 50.958 303.209C50.6263 302.95 50.254 302.759 49.8413 302.636C49.4272 302.508 48.9825 302.464 48.5072 302.505L47.7378 299.686C48.4997 299.587 49.2507 299.624 49.9907 299.796C50.7294 299.963 51.4229 300.259 52.0712 300.684C52.7144 301.111 53.2789 301.662 53.7646 302.337C54.2452 303.014 54.6135 303.812 54.8694 304.73C55.2469 306.085 55.2703 307.381 54.9395 308.62C54.6088 309.858 53.9367 310.948 52.9232 311.89C51.9098 312.832 50.5752 313.534 48.9196 313.996C47.2589 314.458 45.753 314.546 44.402 314.257C43.046 313.97 41.9062 313.382 40.9826 312.493C40.0591 311.604 39.4099 310.487 39.0352 309.143C38.7961 308.285 38.6942 307.454 38.7295 306.649C38.7648 305.844 38.9354 305.089 39.2412 304.382C39.5419 303.676 39.9768 303.044 40.5456 302.485C41.108 301.923 41.8021 301.465 42.6279 301.11Z" fill="black"/>
<path d="M49.3994 288.155L33.6027 290.697L31.9491 280.423L34.3479 280.037L35.5409 287.45L39.8295 286.76L38.7221 279.879L41.1209 279.493L42.2283 286.373L46.54 285.679L45.337 278.205L47.7358 277.819L49.3994 288.155Z" fill="black"/>
<path d="M33.5271 260.367C32.8491 260.472 32.333 260.804 31.9788 261.363C31.6245 261.917 31.4676 262.623 31.5083 263.481C31.5369 264.085 31.6525 264.598 31.8551 265.021C32.0577 265.445 32.3204 265.763 32.6434 265.977C32.9664 266.191 33.3284 266.292 33.7292 266.278C34.0622 266.262 34.3473 266.173 34.5847 266.01C34.8218 265.843 35.0199 265.622 35.179 265.349C35.3329 265.075 35.4594 264.775 35.5586 264.447C35.6578 264.119 35.7386 263.789 35.8011 263.458L36.1046 261.942C36.2165 261.332 36.3789 260.742 36.5918 260.174C36.8044 259.601 37.0824 259.085 37.4256 258.625C37.7685 258.161 38.1914 257.786 38.6941 257.502C39.1968 257.217 39.7941 257.058 40.4861 257.026C41.4225 256.981 42.2585 257.181 42.9939 257.626C43.7241 258.071 44.311 258.737 44.7545 259.623C45.1926 260.504 45.442 261.585 45.5026 262.865C45.5616 264.108 45.4203 265.197 45.0787 266.131C44.7369 267.059 44.2088 267.799 43.4945 268.349C42.7799 268.894 41.893 269.212 40.8336 269.304L40.6986 266.456C41.2533 266.388 41.7082 266.194 42.0632 265.875C42.4183 265.556 42.6754 265.15 42.8345 264.657C42.9934 264.16 43.0586 263.609 43.03 263.005C43.0001 262.376 42.8803 261.829 42.6706 261.364C42.4554 260.895 42.1723 260.533 41.8213 260.278C41.4651 260.024 41.058 259.905 40.5999 259.922C40.184 259.947 39.8464 260.085 39.5872 260.337C39.3228 260.59 39.1098 260.936 38.9482 261.377C38.7812 261.812 38.6384 262.319 38.5198 262.899L38.1378 264.739C37.8621 266.071 37.399 267.136 36.7485 267.934C36.0926 268.726 35.1924 269.149 34.0478 269.203C33.1062 269.248 32.2695 269.032 31.5378 268.556C30.8058 268.075 30.2238 267.401 29.7916 266.535C29.3543 265.669 29.1091 264.677 29.0561 263.559C29.0023 262.424 29.1529 261.421 29.5078 260.549C29.8573 259.673 30.369 258.973 31.043 258.451C31.7117 257.929 32.4957 257.639 33.395 257.581L33.5271 260.367Z" fill="black"/>
<path d="M38.8482 221.173L23.0982 218.356L23.6086 215.502L30.2762 216.695L31.5817 209.397L24.9141 208.204L25.4259 205.343L41.1759 208.161L40.6641 211.022L33.9735 209.825L32.6679 217.123L39.3586 218.32L38.8482 221.173Z" fill="black"/>
<path d="M29.095 186.191L29.9216 183.413L39.9406 186.394C41.0388 186.721 41.9276 187.268 42.6067 188.035C43.2874 188.797 43.7235 189.715 43.915 190.788C44.1014 191.86 44.009 193.019 43.6377 194.267C43.2648 195.52 42.7074 196.545 41.9654 197.34C41.2183 198.134 40.3515 198.664 39.3648 198.93C38.3782 199.196 37.3357 199.166 36.2375 198.839L26.2185 195.858L27.0451 193.08L36.832 195.992C37.4709 196.182 38.0816 196.212 38.664 196.081C39.2479 195.945 39.7586 195.662 40.1961 195.232C40.6287 194.801 40.9497 194.234 41.1591 193.53C41.3686 192.826 41.41 192.175 41.2834 191.578C41.1534 190.974 40.8803 190.458 40.4643 190.03C40.0483 189.602 39.5208 189.293 38.8818 189.103L29.095 186.191Z" fill="black"/>
<path d="M40.7282 165.979C40.289 165.934 39.8712 165.952 39.4748 166.033C39.0757 166.107 38.7038 166.243 38.3591 166.442C38.0165 166.636 37.7107 166.897 37.4417 167.224C37.1679 167.549 36.9374 167.932 36.7501 168.373C36.4144 169.164 36.3142 169.953 36.4496 170.741C36.585 171.528 36.9633 172.263 37.5846 172.945C38.2032 173.621 39.0638 174.193 40.1665 174.661C41.2787 175.133 42.2951 175.358 43.2155 175.336C44.136 175.313 44.9298 175.076 45.5971 174.624C46.2596 174.169 46.7659 173.53 47.1159 172.705C47.4333 171.957 47.5642 171.249 47.5086 170.58C47.4549 169.907 47.2275 169.31 46.8263 168.788C46.4203 168.265 45.8602 167.852 45.1458 167.549L45.4957 166.985L43.7985 170.983L41.713 170.098L44.2496 164.122L46.0187 164.873C47.2796 165.408 48.2564 166.139 48.949 167.067C49.6415 167.995 50.0377 169.034 50.1375 170.185C50.2324 171.335 50.0214 172.518 49.5045 173.736C48.9286 175.093 48.1185 176.155 47.0741 176.923C46.027 177.683 44.818 178.112 43.4471 178.209C42.0735 178.299 40.61 178.015 39.0566 177.356C37.8676 176.851 36.8769 176.232 36.0845 175.5C35.2941 174.763 34.7021 173.951 34.3085 173.066C33.9101 172.178 33.7148 171.252 33.7224 170.288C33.7252 169.321 33.9311 168.356 34.3401 167.393C34.6861 166.578 35.1285 165.869 35.6673 165.266C36.2014 164.66 36.8026 164.177 37.4709 163.816C38.1412 163.45 38.8513 163.216 39.6011 163.116C40.351 163.016 41.1113 163.064 41.8821 163.261L40.7282 165.979Z" fill="black"/>
<path d="M47.7124 138.738L61.648 146.6L60.2239 149.124L46.2883 141.263L47.7124 138.738Z" fill="black"/>
<path d="M73.6929 108.093C73.1391 107.688 72.5393 107.558 71.8936 107.703C71.2513 107.844 70.6411 108.232 70.0629 108.868C69.6564 109.315 69.3752 109.76 69.2192 110.202C69.0632 110.645 69.0237 111.056 69.1007 111.436C69.1777 111.815 69.3628 112.142 69.656 112.416C69.9026 112.64 70.1673 112.779 70.45 112.832C70.7362 112.881 71.0323 112.865 71.3381 112.784C71.6402 112.7 71.9422 112.577 72.2442 112.415C72.5463 112.253 72.8366 112.077 73.1151 111.887L74.4018 111.029C74.9123 110.677 75.4437 110.375 75.9959 110.124C76.5516 109.869 77.1132 109.701 77.6808 109.618C78.2519 109.532 78.8158 109.567 79.3725 109.721C79.9291 109.875 80.4637 110.185 80.9762 110.651C81.6697 111.282 82.1193 112.015 82.3248 112.849C82.5264 113.68 82.4707 114.566 82.1576 115.506C81.8443 116.439 81.2565 117.38 80.3945 118.328C79.557 119.248 78.6873 119.918 77.7854 120.337C76.887 120.752 75.9908 120.902 75.0967 120.785C74.2061 120.665 73.3538 120.263 72.5397 119.579L74.4583 117.47C74.8986 117.814 75.3572 117.999 75.834 118.024C76.3108 118.049 76.7796 117.944 77.2404 117.708C77.7047 117.469 78.14 117.126 78.5465 116.679C78.9705 116.212 79.2726 115.741 79.4528 115.264C79.6326 114.78 79.6884 114.324 79.6202 113.896C79.5481 113.464 79.3443 113.092 79.0087 112.78C78.697 112.503 78.3603 112.363 77.9987 112.358C77.6333 112.349 77.2378 112.443 76.812 112.641C76.386 112.83 75.9263 113.088 75.4329 113.414L73.8614 114.445C72.7244 115.192 71.644 115.618 70.6202 115.722C69.5961 115.818 68.6602 115.481 67.8125 114.71C67.1151 114.076 66.6761 113.331 66.4955 112.477C66.3184 111.619 66.3832 110.731 66.6899 109.813C66.9928 108.892 67.521 108.017 68.2744 107.189C69.0383 106.349 69.854 105.746 70.7216 105.38C71.5888 105.007 72.4452 104.875 73.291 104.982C74.1328 105.086 74.8923 105.435 75.5694 106.03L73.6929 108.093Z" fill="black"/>
<path d="M90.614 105.835L80.0569 93.812L87.8764 86.9457L89.4795 88.7714L83.838 93.7253L86.7041 96.9893L91.9406 92.3911L93.5437 94.2168L88.3072 98.815L91.1888 102.097L96.8773 97.1015L98.4805 98.9273L90.614 105.835Z" fill="black"/>
<path d="M105.195 92.0989L96.0504 78.9697L100.974 75.5405C101.982 74.838 102.951 74.4238 103.879 74.298C104.811 74.1692 105.672 74.299 106.463 74.6874C107.256 75.0686 107.944 75.678 108.527 76.5157C109.113 77.3576 109.443 78.2135 109.516 79.0833C109.59 79.9458 109.398 80.7869 108.941 81.6068C108.481 82.4224 107.746 83.1815 106.738 83.884L103.231 86.3264L101.856 84.3519L105.042 82.1327C105.632 81.7219 106.058 81.3044 106.321 80.88C106.581 80.4514 106.69 80.0164 106.65 79.5751C106.61 79.1266 106.428 78.6694 106.104 78.2035C105.779 77.7377 105.411 77.4042 104.998 77.2031C104.582 76.9978 104.126 76.9406 103.631 77.0316C103.133 77.1183 102.587 77.3686 101.993 77.7823L99.813 79.3005L107.573 90.4424L105.195 92.0989ZM107.834 81.4256L115.228 85.111L112.574 86.9596L105.238 83.234L107.834 81.4256Z" fill="black"/>
<path d="M115.437 64.9133L125.095 74.0059L125.239 73.9278L122.898 60.8741L125.702 59.3567L128.358 76.1125L125.212 77.8159L112.641 66.427L115.437 64.9133Z" fill="black"/>
<path d="M137.744 52.3538L144.43 66.8899L141.797 68.101L135.111 53.565L137.744 52.3538Z" fill="black"/>
<path d="M158.216 49.5487L155.441 50.4648C155.212 50.0359 154.933 49.681 154.604 49.4001C154.274 49.1142 153.91 48.8999 153.512 48.7571C153.113 48.6144 152.691 48.5481 152.245 48.5584C151.802 48.562 151.348 48.6406 150.883 48.7941C150.057 49.0668 149.394 49.5162 148.893 50.1423C148.39 50.7635 148.09 51.5318 147.992 52.4472C147.892 53.3578 148.031 54.3843 148.408 55.5267C148.792 56.689 149.296 57.6086 149.92 58.2857C150.547 58.9561 151.244 59.3897 152.011 59.5862C152.781 59.7761 153.577 59.7356 154.398 59.4645C154.853 59.3143 155.258 59.1145 155.615 58.8652C155.975 58.6092 156.274 58.3103 156.512 57.9684C156.755 57.6249 156.928 57.2441 157.031 56.826C157.14 56.4064 157.162 55.9601 157.099 55.4872L159.879 54.586C160.013 55.3423 160.012 56.0942 159.875 56.8415C159.743 57.5873 159.48 58.2939 159.086 58.9615C158.69 59.6241 158.166 60.2139 157.514 60.7309C156.861 61.2429 156.081 61.6483 155.176 61.9471C153.841 62.388 152.547 62.4725 151.294 62.2004C150.042 61.9284 148.921 61.3084 147.932 60.3404C146.944 59.3725 146.18 58.0725 145.641 56.4404C145.1 54.8033 144.942 53.3033 145.167 51.9402C145.39 50.5721 145.924 49.4059 146.768 48.4415C147.612 47.4771 148.697 46.7761 150.023 46.3384C150.868 46.0592 151.694 45.9183 152.499 45.9156C153.305 45.913 154.068 46.0477 154.788 46.3199C155.507 46.5871 156.159 46.9916 156.744 47.5335C157.332 48.0688 157.823 48.7406 158.216 49.5487Z" fill="black"/>
<path d="M171.476 55.7009L168.192 40.0415L178.377 37.9058L178.875 40.2838L171.527 41.8246L172.419 46.0759L179.239 44.6457L179.738 47.0236L172.918 48.4539L173.814 52.7281L181.223 51.1744L181.722 53.5524L171.476 55.7009Z" fill="black"/>
<path d="M198.486 38.5417C198.349 37.8694 197.993 37.3695 197.418 37.0421C196.848 36.7142 196.135 36.5908 195.28 36.6719C194.678 36.7289 194.171 36.8686 193.758 37.0908C193.345 37.3131 193.039 37.5906 192.84 37.9233C192.641 38.2561 192.558 38.6223 192.591 39.0221C192.623 39.3539 192.725 39.6345 192.899 39.864C193.077 40.093 193.307 40.2804 193.588 40.4265C193.868 40.5673 194.174 40.6796 194.506 40.7632C194.838 40.8468 195.172 40.912 195.506 40.9588L197.034 41.1906C197.649 41.2736 198.245 41.408 198.823 41.5939C199.405 41.7794 199.934 42.0327 200.409 42.3539C200.89 42.6745 201.284 43.0793 201.592 43.568C201.899 44.0568 202.086 44.6459 202.151 45.3356C202.24 46.2689 202.079 47.1133 201.67 47.8689C201.259 48.6193 200.622 49.2369 199.758 49.7216C198.898 50.2007 197.831 50.5007 196.555 50.6216C195.316 50.7391 194.222 50.6492 193.273 50.352C192.329 50.0544 191.566 49.5617 190.982 48.8741C190.405 48.186 190.045 47.315 189.903 46.2612L192.742 45.9921C192.836 46.5429 193.051 46.9882 193.386 47.3278C193.722 47.6675 194.139 47.9052 194.639 48.0409C195.143 48.1762 195.697 48.2154 196.298 48.1583C196.925 48.0989 197.466 47.9534 197.92 47.7221C198.379 47.485 198.727 47.1852 198.965 46.8226C199.202 46.4548 199.302 46.0425 199.264 45.5857C199.219 45.1714 199.065 44.8408 198.801 44.5937C198.536 44.3415 198.18 44.1451 197.733 44.0044C197.29 43.8581 196.776 43.7393 196.192 43.6482L194.336 43.3533C192.992 43.1406 191.907 42.7282 191.08 42.116C190.257 41.4982 189.792 40.6189 189.684 39.4781C189.595 38.5396 189.771 37.6937 190.212 36.9404C190.659 36.1866 191.304 35.5734 192.149 35.101C192.993 34.6234 193.972 34.3317 195.087 34.226C196.218 34.1189 197.227 34.2221 198.114 34.5355C199.007 34.8433 199.73 35.3215 200.283 35.9701C200.836 36.6135 201.162 37.383 201.263 38.2786L198.486 38.5417Z" fill="black"/>
<path d="M323.511 71.4654C322.952 71.4291 322.485 71.1976 322.11 70.7709C321.735 70.3442 321.566 69.8512 321.602 69.2918C321.639 68.7323 321.87 68.2653 322.297 67.8906C322.724 67.5159 323.217 67.3468 323.776 67.3831C324.335 67.4194 324.802 67.6509 325.177 68.0776C325.552 68.5042 325.721 68.9973 325.685 69.5567C325.661 69.9272 325.544 70.2612 325.335 70.5589C325.133 70.8571 324.871 71.0906 324.549 71.2595C324.235 71.4213 323.889 71.4899 323.511 71.4654Z" fill="black"/>
<path d="M221.091 43.773C220.532 43.7367 220.065 43.5052 219.69 43.0785C219.315 42.6519 219.146 42.1588 219.182 41.5994C219.219 41.0399 219.45 40.5729 219.877 40.1982C220.304 39.8236 220.797 39.6544 221.356 39.6907C221.915 39.727 222.383 39.9585 222.757 40.3852C223.132 40.8119 223.301 41.3049 223.265 41.8643C223.241 42.2348 223.124 42.5688 222.915 42.8665C222.713 43.1647 222.452 43.3982 222.129 43.5671C221.815 43.7289 221.469 43.7976 221.091 43.773Z" fill="black"/>
<path d="M59.8098 135.519C59.2504 135.483 58.7834 135.251 58.4087 134.825C58.034 134.398 57.8649 133.905 57.9012 133.345C57.9375 132.786 58.169 132.319 58.5957 131.944C59.0223 131.57 59.5154 131.4 60.0748 131.437C60.6342 131.473 61.1013 131.705 61.476 132.131C61.8506 132.558 62.0198 133.051 61.9835 133.61C61.9594 133.981 61.8429 134.315 61.6338 134.613C61.4322 134.911 61.1703 135.144 60.8481 135.313C60.5339 135.475 60.1878 135.544 59.8098 135.519Z" fill="black"/>
<path d="M418.316 231.943C417.756 231.907 417.289 231.675 416.915 231.248C416.54 230.822 416.371 230.329 416.407 229.769C416.443 229.21 416.675 228.743 417.102 228.368C417.528 227.993 418.021 227.824 418.581 227.861C419.14 227.897 419.607 228.128 419.982 228.555C420.356 228.982 420.526 229.475 420.489 230.034C420.465 230.405 420.349 230.739 420.14 231.036C419.938 231.335 419.676 231.568 419.354 231.737C419.04 231.899 418.694 231.967 418.316 231.943Z" fill="black"/>
<path d="M227.347 425.981C226.788 425.945 226.32 425.713 225.946 425.287C225.571 424.86 225.402 424.367 225.438 423.807C225.475 423.248 225.706 422.781 226.133 422.406C226.559 422.032 227.052 421.862 227.612 421.899C228.171 421.935 228.638 422.167 229.013 422.593C229.388 423.02 229.557 423.513 229.521 424.072C229.497 424.443 229.38 424.777 229.171 425.075C228.969 425.373 228.707 425.606 228.385 425.775C228.071 425.937 227.725 426.006 227.347 425.981Z" fill="black"/>
<path d="M32.7903 242.996C32.2309 242.959 31.7638 242.728 31.3892 242.301C31.0145 241.875 30.8453 241.381 30.8816 240.822C30.918 240.263 31.1494 239.796 31.5761 239.421C32.0028 239.046 32.4959 238.877 33.0553 238.913C33.6147 238.95 34.0818 239.181 34.4564 239.608C34.8311 240.035 35.0003 240.528 34.964 241.087C34.9399 241.457 34.8233 241.791 34.6142 242.089C34.4127 242.387 34.1508 242.621 33.8286 242.79C33.5144 242.952 33.1683 243.02 32.7903 242.996Z" fill="black"/>
<path d="M125.536 404.341C124.977 404.305 124.51 404.074 124.135 403.647C123.761 403.22 123.591 402.727 123.628 402.168C123.664 401.608 123.896 401.141 124.322 400.767C124.749 400.392 125.242 400.223 125.801 400.259C126.361 400.295 126.828 400.527 127.203 400.954C127.577 401.38 127.746 401.873 127.71 402.433C127.686 402.803 127.569 403.137 127.36 403.435C127.159 403.733 126.897 403.967 126.575 404.135C126.26 404.297 125.914 404.366 125.536 404.341Z" fill="black"/>
<path d="M392.556 335.492C391.997 335.455 391.529 335.224 391.155 334.797C390.78 334.371 390.611 333.878 390.647 333.318C390.684 332.759 390.915 332.292 391.342 331.917C391.768 331.542 392.261 331.373 392.821 331.409C393.38 331.446 393.847 331.677 394.222 332.104C394.597 332.531 394.766 333.024 394.73 333.583C394.706 333.954 394.589 334.288 394.38 334.585C394.178 334.883 393.916 335.117 393.594 335.286C393.28 335.448 392.934 335.516 392.556 335.492Z" fill="black"/>
</svg>
