<svg width="186" height="190" viewBox="0 0 186 190" fill="none" xmlns="http://www.w3.org/2000/svg">
<circle cx="92.7675" cy="96.8768" r="86.7964" transform="rotate(3.7137 92.7675 96.8768)" fill="#ECCC5A" stroke="black"/>
<path d="M90.9839 64.0636L71.1313 42.6985L70.6931 72.413L41.4517 69.3997L60.143 91.4329L36.4032 106.994L64.3632 112.527L55.4388 140.947L81.7039 126.665L93.0088 153.424L104.459 126.283L129.688 139.446L120.657 112.091L147.998 104.199L123.212 89.9498L141.173 65.8341L111.379 71.3359L110.308 41.8954L90.9839 64.0636Z" fill="#131213"/>
<path d="M98.0751 22.0208L99.4838 14.1458L100.91 14.401L100.314 17.7348L103.963 18.3876L104.559 15.0538L105.99 15.3096L104.581 23.1846L103.151 22.9287L103.749 19.5834L100.1 18.9306L99.5016 22.276L98.0751 22.0208Z" fill="black"/>
<path d="M112.247 16.5138L109.965 24.1815L108.576 23.7682L110.858 16.1004L112.247 16.5138Z" fill="black"/>
<path d="M121.621 22.1864C121.644 21.9668 121.635 21.7579 121.594 21.5597C121.557 21.3601 121.489 21.1741 121.39 21.0018C121.293 20.8305 121.163 20.6776 120.999 20.5431C120.836 20.4062 120.645 20.2909 120.424 20.1973C120.029 20.0294 119.634 19.9793 119.24 20.0471C118.847 20.1148 118.479 20.3039 118.138 20.6146C117.8 20.9238 117.514 21.3542 117.28 21.9055C117.044 22.4616 116.932 22.9698 116.943 23.43C116.954 23.8903 117.073 24.2872 117.299 24.6208C117.526 24.9521 117.846 25.2052 118.258 25.3802C118.632 25.5389 118.986 25.6044 119.321 25.5765C119.657 25.5497 119.956 25.436 120.217 25.2354C120.478 25.0324 120.685 24.7523 120.836 24.3952L121.119 24.5701L119.119 23.7215L119.562 22.6787L122.55 23.9471L122.175 24.8316C121.907 25.4621 121.541 25.9504 121.077 26.2967C120.614 26.643 120.094 26.8411 119.518 26.891C118.944 26.9385 118.352 26.833 117.743 26.5745C117.064 26.2866 116.533 25.8815 116.15 25.3593C115.769 24.8358 115.555 24.2313 115.506 23.5458C115.461 22.859 115.603 22.1273 115.933 21.3506C116.185 20.7561 116.495 20.2607 116.861 19.8645C117.23 19.4693 117.635 19.1733 118.078 18.9765C118.522 18.7773 118.985 18.6796 119.467 18.6834C119.95 18.6848 120.433 18.7878 120.915 18.9923C121.322 19.1653 121.677 19.3865 121.978 19.6559C122.281 19.923 122.522 20.2235 122.703 20.5577C122.886 20.8928 123.003 21.2479 123.053 21.6228C123.103 21.9978 123.079 22.3779 122.98 22.7633L121.621 22.1864Z" fill="black"/>
<path d="M127.992 22.6797L124.463 29.8594L123.163 29.2201L126.692 22.0404L127.992 22.6797Z" fill="black"/>
<path d="M144.896 35.7224C145.098 35.4455 145.163 35.1456 145.091 34.8228C145.02 34.5017 144.826 34.1965 144.508 33.9074C144.285 33.7042 144.062 33.5636 143.841 33.4856C143.62 33.4076 143.414 33.3878 143.225 33.4263C143.035 33.4648 142.871 33.5574 142.734 33.704C142.622 33.8273 142.553 33.9596 142.527 34.101C142.502 34.2441 142.51 34.3921 142.55 34.545C142.593 34.6961 142.654 34.8471 142.735 34.9981C142.816 35.1491 142.904 35.2943 142.999 35.4335L143.428 36.0769C143.604 36.3321 143.755 36.5978 143.88 36.8739C144.008 37.1518 144.092 37.4326 144.133 37.7164C144.176 38.0019 144.159 38.2839 144.082 38.5622C144.005 38.8405 143.85 39.1078 143.617 39.3641C143.301 39.7108 142.935 39.9356 142.518 40.0384C142.102 40.1392 141.659 40.1113 141.189 39.9548C140.723 39.7981 140.253 39.5042 139.779 39.0732C139.318 38.6545 138.983 38.2196 138.774 37.7687C138.566 37.3195 138.492 36.8714 138.55 36.4243C138.61 35.979 138.811 35.5529 139.153 35.1458L140.208 36.1051C140.035 36.3253 139.943 36.5546 139.93 36.793C139.918 37.0314 139.97 37.2658 140.088 37.4962C140.208 37.7283 140.38 37.946 140.603 38.1492C140.836 38.3613 141.072 38.5123 141.31 38.6024C141.552 38.6923 141.781 38.7202 141.995 38.6861C142.21 38.65 142.396 38.5481 142.552 38.3803C142.691 38.2245 142.761 38.0561 142.764 37.8753C142.768 37.6926 142.721 37.4949 142.622 37.282C142.527 37.069 142.398 36.8391 142.235 36.5924L141.72 35.8067C141.346 35.2382 141.134 34.698 141.082 34.1861C141.033 33.674 141.202 33.2061 141.587 32.7822C141.905 32.4335 142.277 32.214 142.704 32.1237C143.133 32.0352 143.577 32.0676 144.036 32.2209C144.496 32.3724 144.934 32.6365 145.348 33.0132C145.768 33.3951 146.069 33.803 146.252 34.2368C146.439 34.6704 146.505 35.0986 146.451 35.5215C146.399 35.9424 146.225 36.3221 145.927 36.6607L144.896 35.7224Z" fill="black"/>
<path d="M144.406 42.7875L150.418 37.5089L153.851 41.4186L152.938 42.2202L150.461 39.3995L148.829 40.8325L151.128 43.4508L150.215 44.2523L147.916 41.6341L146.275 43.0749L148.773 45.9191L147.86 46.7207L144.406 42.7875Z" fill="black"/>
<path d="M149.914 48.6317L156.479 44.0594L158.193 46.5211C158.544 47.0254 158.751 47.5095 158.814 47.9735C158.879 48.4396 158.814 48.8704 158.62 49.2659C158.429 49.662 158.124 50.006 157.706 50.2977C157.285 50.5909 156.857 50.7557 156.422 50.792C155.991 50.829 155.57 50.7331 155.16 50.5045C154.752 50.2745 154.373 49.9073 154.021 49.4029L152.8 47.6496L153.787 46.962L154.897 48.555C155.102 48.8499 155.311 49.0631 155.523 49.1946C155.738 49.3246 155.955 49.3794 156.176 49.359C156.4 49.3393 156.629 49.2483 156.862 49.0861C157.095 48.9238 157.261 48.7395 157.362 48.533C157.464 48.325 157.493 48.0972 157.448 47.8496C157.404 47.6006 157.279 47.3275 157.072 47.0305L156.313 45.9407L150.742 49.8209L149.914 48.6317ZM155.251 49.9511L153.408 53.6481L152.484 52.3211L154.346 48.653L155.251 49.9511Z" fill="black"/>
<path d="M162.312 52.1639L157.766 56.9927L157.805 57.0648L164.332 55.8946L165.091 57.2961L156.713 58.6245L155.861 57.0512L161.556 50.7658L162.312 52.1639Z" fill="black"/>
<path d="M168.43 61.7861L161.013 64.783L160.47 63.4393L167.887 60.4424L168.43 61.7861Z" fill="black"/>
<path d="M168.921 71.2633L168.529 69.856C168.749 69.7516 168.933 69.6206 169.081 69.4631C169.231 69.3049 169.347 69.128 169.428 68.9325C169.508 68.737 169.551 68.5277 169.557 68.3045C169.565 68.0831 169.537 67.8545 169.471 67.6187C169.354 67.1998 169.145 66.8579 168.845 66.593C168.546 66.3274 168.169 66.1593 167.715 66.0888C167.262 66.0175 166.746 66.0626 166.167 66.2241C165.577 66.3884 165.106 66.6184 164.753 66.9141C164.404 67.2115 164.171 67.5495 164.054 67.9279C163.941 68.3082 163.943 68.7065 164.059 69.1229C164.123 69.3537 164.213 69.561 164.33 69.745C164.449 69.9307 164.591 70.087 164.756 70.214C164.922 70.3435 165.108 70.439 165.315 70.5004C165.522 70.5644 165.744 70.5862 165.982 70.5659L166.366 71.9754C165.985 72.0247 165.61 72.0064 165.24 71.9203C164.871 71.8367 164.524 71.6886 164.2 71.4762C163.878 71.263 163.596 70.9875 163.353 70.6497C163.113 70.3112 162.929 69.9124 162.801 69.4533C162.612 68.776 162.6 68.1277 162.766 67.5085C162.931 66.8893 163.267 66.3442 163.774 65.8732C164.28 65.4021 164.948 65.0513 165.776 64.8206C166.606 64.5892 167.359 64.5456 168.034 64.6899C168.712 64.8334 169.282 65.1274 169.744 65.5719C170.206 66.0163 170.53 66.5746 170.718 67.2469C170.837 67.6759 170.888 68.0916 170.871 68.4939C170.853 68.8962 170.768 69.2741 170.615 69.6276C170.464 69.9804 170.247 70.2965 169.963 70.5758C169.681 70.8569 169.334 71.0861 168.921 71.2633Z" fill="black"/>
<path d="M164.846 75.4762L172.745 74.205L173.571 79.342L172.372 79.535L171.775 75.8288L169.631 76.1739L170.185 79.614L168.985 79.8071L168.432 76.367L166.276 76.714L166.877 80.451L165.678 80.6441L164.846 75.4762Z" fill="black"/>
<path d="M172.402 87.4241C172.741 87.3715 173 87.2055 173.177 86.9259C173.354 86.649 173.432 86.2959 173.412 85.8667C173.398 85.565 173.34 85.3083 173.238 85.0967C173.137 84.8851 173.006 84.7258 172.844 84.6188C172.683 84.5117 172.502 84.4616 172.301 84.4685C172.135 84.4764 171.992 84.521 171.874 84.6022C171.755 84.686 171.656 84.7963 171.577 84.9331C171.5 85.0697 171.436 85.22 171.387 85.384C171.337 85.548 171.297 85.7128 171.265 85.8785L171.114 86.6366C171.058 86.9417 170.977 87.2362 170.87 87.5202C170.764 87.8068 170.625 88.065 170.453 88.2947C170.282 88.5271 170.07 88.7144 169.819 88.8567C169.568 88.9989 169.269 89.0783 168.923 89.0947C168.455 89.1169 168.037 89.0168 167.669 88.7943C167.304 88.5718 167.011 88.239 166.789 87.7959C166.57 87.3552 166.445 86.8149 166.415 86.175C166.385 85.5533 166.456 85.009 166.627 84.5421C166.798 84.0777 167.062 83.708 167.419 83.433C167.776 83.1606 168.22 83.0014 168.749 82.9554L168.817 84.3796C168.539 84.4136 168.312 84.5104 168.134 84.67C167.957 84.8297 167.828 85.0326 167.749 85.2788C167.669 85.5277 167.637 85.8029 167.651 86.1047C167.666 86.4194 167.726 86.6929 167.831 86.9252C167.938 87.16 168.08 87.341 168.255 87.4682C168.433 87.5953 168.637 87.6548 168.866 87.6465C169.074 87.6341 169.243 87.5648 169.372 87.4387C169.505 87.3125 169.611 87.1393 169.692 86.9191C169.775 86.7013 169.847 86.4477 169.906 86.1581L170.097 85.2379C170.235 84.5717 170.467 84.0393 170.792 83.6407C171.12 83.2445 171.57 83.0328 172.142 83.0057C172.613 82.9834 173.031 83.0913 173.397 83.3294C173.763 83.5702 174.054 83.907 174.27 84.34C174.489 84.7728 174.611 85.2689 174.638 85.8281C174.665 86.3952 174.59 86.8967 174.412 87.3327C174.237 87.7712 173.981 88.1209 173.645 88.382C173.31 88.6429 172.918 88.7879 172.469 88.8171L172.402 87.4241Z" fill="black"/>
<path d="M167.332 102.165L175.207 103.574L174.952 105L171.618 104.404L170.965 108.053L174.299 108.649L174.043 110.08L166.168 108.671L166.424 107.241L169.769 107.839L170.422 104.19L167.077 103.591L167.332 102.165Z" fill="black"/>
<path d="M172.465 117.666L164.797 115.384L165.21 113.995L172.878 116.277L172.465 117.666Z" fill="black"/>
<path d="M167.165 125.712C167.385 125.734 167.594 125.726 167.792 125.685C167.991 125.648 168.177 125.58 168.35 125.481C168.521 125.384 168.674 125.253 168.808 125.09C168.945 124.927 169.061 124.736 169.154 124.515C169.322 124.12 169.372 123.725 169.305 123.331C169.237 122.938 169.048 122.57 168.737 122.229C168.428 121.891 167.997 121.605 167.446 121.371C166.89 121.135 166.382 121.023 165.922 121.034C165.461 121.045 165.064 121.164 164.731 121.39C164.399 121.617 164.146 121.937 163.971 122.349C163.813 122.723 163.747 123.077 163.775 123.412C163.802 123.748 163.916 124.047 164.116 124.307C164.319 124.569 164.599 124.776 164.956 124.927L164.781 125.209L165.63 123.21L166.673 123.653L165.404 126.641L164.52 126.265C163.889 125.998 163.401 125.632 163.055 125.168C162.709 124.704 162.51 124.185 162.461 123.609C162.413 123.034 162.519 122.443 162.777 121.834C163.065 121.155 163.47 120.624 163.992 120.24C164.516 119.86 165.12 119.646 165.806 119.597C166.493 119.552 167.224 119.694 168.001 120.024C168.595 120.276 169.091 120.586 169.487 120.952C169.882 121.32 170.178 121.726 170.375 122.169C170.574 122.613 170.672 123.076 170.668 123.558C170.667 124.041 170.564 124.524 170.359 125.005C170.186 125.413 169.965 125.767 169.696 126.069C169.429 126.371 169.128 126.613 168.794 126.794C168.459 126.977 168.104 127.093 167.729 127.144C167.354 127.194 166.974 127.17 166.588 127.071L167.165 125.712Z" fill="black"/>
<path d="M167.638 131.357L160.436 127.875L161.067 126.57L168.269 130.053L167.638 131.357Z" fill="black"/>
<path d="M153.629 148.988C153.906 149.19 154.206 149.255 154.529 149.183C154.85 149.112 155.155 148.918 155.444 148.6C155.647 148.377 155.788 148.154 155.866 147.933C155.944 147.712 155.964 147.506 155.925 147.316C155.887 147.126 155.794 146.963 155.648 146.826C155.524 146.714 155.392 146.645 155.251 146.618C155.107 146.594 154.959 146.602 154.807 146.642C154.656 146.684 154.504 146.746 154.353 146.827C154.202 146.908 154.057 146.996 153.918 147.091L153.275 147.519C153.019 147.696 152.754 147.847 152.478 147.972C152.2 148.1 151.919 148.184 151.635 148.225C151.35 148.268 151.068 148.251 150.789 148.174C150.511 148.097 150.244 147.942 149.987 147.709C149.641 147.393 149.416 147.027 149.313 146.61C149.212 146.194 149.24 145.751 149.397 145.281C149.553 144.815 149.847 144.344 150.278 143.87C150.697 143.41 151.132 143.075 151.583 142.866C152.032 142.658 152.48 142.583 152.927 142.641C153.373 142.701 153.799 142.902 154.206 143.245L153.246 144.299C153.026 144.127 152.797 144.035 152.559 144.022C152.32 144.01 152.086 144.062 151.855 144.18C151.623 144.3 151.406 144.471 151.202 144.695C150.99 144.928 150.839 145.164 150.749 145.402C150.659 145.644 150.631 145.872 150.665 146.086C150.702 146.302 150.803 146.488 150.971 146.644C151.127 146.783 151.295 146.853 151.476 146.855C151.659 146.86 151.857 146.812 152.07 146.714C152.283 146.619 152.512 146.49 152.759 146.327L153.545 145.812C154.113 145.438 154.654 145.225 155.165 145.173C155.678 145.125 156.145 145.294 156.569 145.679C156.918 145.996 157.138 146.368 157.228 146.796C157.316 147.225 157.284 147.669 157.131 148.127C156.979 148.588 156.715 149.026 156.338 149.44C155.956 149.86 155.549 150.161 155.115 150.344C154.681 150.53 154.253 150.597 153.83 150.543C153.409 150.491 153.029 150.317 152.691 150.019L153.629 148.988Z" fill="black"/>
<path d="M146.565 148.497L151.844 154.509L147.934 157.942L147.132 157.029L149.953 154.552L148.52 152.92L145.902 155.219L145.1 154.306L147.718 152.007L146.278 150.366L143.433 152.864L142.632 151.951L146.565 148.497Z" fill="black"/>
<path d="M140.723 154.006L145.295 160.57L142.833 162.285C142.329 162.636 141.845 162.843 141.381 162.906C140.915 162.971 140.484 162.906 140.089 162.711C139.692 162.521 139.349 162.216 139.057 161.797C138.764 161.376 138.599 160.948 138.562 160.514C138.526 160.082 138.621 159.662 138.85 159.252C139.08 158.844 139.447 158.464 139.952 158.113L141.705 156.892L142.393 157.879L140.799 158.989C140.505 159.194 140.291 159.403 140.16 159.615C140.03 159.829 139.975 160.047 139.995 160.268C140.015 160.492 140.106 160.72 140.268 160.953C140.431 161.186 140.615 161.353 140.822 161.454C141.029 161.556 141.257 161.585 141.505 161.539C141.754 161.496 142.027 161.371 142.324 161.164L143.414 160.405L139.534 154.834L140.723 154.006ZM139.403 159.342L135.706 157.5L137.033 156.575L140.702 158.438L139.403 159.342Z" fill="black"/>
<path d="M137.189 166.404L132.36 161.858L132.288 161.897L133.458 168.424L132.056 169.183L130.728 160.805L132.301 159.953L138.587 165.647L137.189 166.404Z" fill="black"/>
<path d="M127.772 171.296L124.775 163.879L126.118 163.336L129.115 170.753L127.772 171.296Z" fill="black"/>
<path d="M118.291 171.79L119.699 171.397C119.803 171.617 119.934 171.801 120.092 171.949C120.25 172.099 120.427 172.215 120.622 172.296C120.818 172.376 121.027 172.419 121.25 172.425C121.472 172.433 121.7 172.405 121.936 172.339C122.355 172.222 122.697 172.014 122.962 171.713C123.227 171.414 123.395 171.038 123.466 170.583C123.537 170.13 123.492 169.614 123.331 169.035C123.166 168.445 122.936 167.974 122.641 167.621C122.343 167.272 122.005 167.039 121.627 166.923C121.247 166.81 120.848 166.811 120.432 166.927C120.201 166.991 119.994 167.082 119.81 167.198C119.624 167.317 119.468 167.459 119.341 167.624C119.211 167.79 119.116 167.976 119.054 168.183C118.99 168.39 118.968 168.612 118.989 168.85L117.579 169.235C117.53 168.854 117.548 168.478 117.634 168.108C117.718 167.739 117.866 167.392 118.079 167.068C118.292 166.746 118.567 166.464 118.905 166.221C119.244 165.981 119.642 165.797 120.101 165.669C120.779 165.48 121.427 165.468 122.046 165.634C122.665 165.799 123.211 166.135 123.682 166.642C124.153 167.149 124.503 167.816 124.734 168.644C124.966 169.474 125.009 170.227 124.865 170.902C124.721 171.581 124.427 172.15 123.983 172.612C123.538 173.074 122.98 173.399 122.308 173.586C121.879 173.705 121.463 173.756 121.061 173.739C120.659 173.721 120.281 173.636 119.927 173.483C119.574 173.333 119.258 173.115 118.979 172.831C118.698 172.549 118.469 172.202 118.291 171.79Z" fill="black"/>
<path d="M114.08 167.713L115.352 175.612L110.215 176.439L110.022 175.239L113.728 174.643L113.383 172.498L109.943 173.052L109.75 171.853L113.19 171.299L112.843 169.143L109.106 169.745L108.913 168.545L114.08 167.713Z" fill="black"/>
<path d="M102.135 175.269C102.187 175.608 102.353 175.866 102.633 176.043C102.91 176.22 103.263 176.298 103.692 176.278C103.994 176.264 104.25 176.206 104.462 176.105C104.673 176.003 104.833 175.872 104.94 175.711C105.047 175.549 105.097 175.368 105.09 175.168C105.082 175.001 105.038 174.859 104.956 174.74C104.873 174.621 104.762 174.522 104.626 174.443C104.489 174.366 104.339 174.303 104.175 174.253C104.011 174.203 103.846 174.163 103.68 174.132L102.922 173.98C102.617 173.924 102.322 173.843 102.038 173.736C101.752 173.63 101.494 173.491 101.264 173.319C101.032 173.148 100.844 172.937 100.702 172.685C100.56 172.434 100.48 172.135 100.464 171.789C100.442 171.321 100.542 170.903 100.764 170.535C100.987 170.17 101.32 169.877 101.763 169.655C102.203 169.436 102.744 169.311 103.384 169.281C104.005 169.251 104.55 169.322 105.017 169.493C105.481 169.664 105.851 169.928 106.126 170.285C106.398 170.642 106.557 171.086 106.603 171.615L105.179 171.683C105.145 171.406 105.048 171.178 104.889 171.001C104.729 170.823 104.526 170.695 104.28 170.615C104.031 170.536 103.756 170.503 103.454 170.517C103.139 170.532 102.866 170.592 102.633 170.697C102.399 170.805 102.218 170.946 102.09 171.122C101.963 171.3 101.904 171.503 101.912 171.732C101.925 171.94 101.994 172.109 102.12 172.239C102.246 172.371 102.419 172.477 102.639 172.558C102.857 172.642 103.111 172.713 103.4 172.772L104.321 172.963C104.987 173.101 105.519 173.333 105.918 173.658C106.314 173.986 106.526 174.436 106.553 175.008C106.575 175.479 106.467 175.897 106.229 176.263C105.988 176.629 105.652 176.92 105.219 177.136C104.786 177.355 104.29 177.478 103.73 177.504C103.163 177.531 102.662 177.456 102.226 177.278C101.787 177.104 101.438 176.848 101.177 176.511C100.916 176.176 100.771 175.784 100.742 175.335L102.135 175.269Z" fill="black"/>
<path d="M87.1876 171.424L85.7789 179.299L84.3523 179.043L84.9487 175.71L81.2996 175.057L80.7032 178.391L79.2728 178.135L80.6815 170.26L82.112 170.516L81.5135 173.861L85.1626 174.514L85.7611 171.168L87.1876 171.424Z" fill="black"/>
<path d="M72.8489 176.901L75.1305 169.234L76.5196 169.647L74.238 177.315L72.8489 176.901Z" fill="black"/>
<path d="M63.6405 171.257C63.618 171.477 63.627 171.686 63.6673 171.884C63.7043 172.083 63.7724 172.269 63.8719 172.442C63.9689 172.613 64.0992 172.766 64.2628 172.9C64.4253 173.037 64.6169 173.152 64.8374 173.246C65.2329 173.414 65.6276 173.464 66.0212 173.396C66.4149 173.329 66.7824 173.139 67.1236 172.829C67.4614 172.52 67.7473 172.089 67.9813 171.538C68.2174 170.982 68.3298 170.474 68.3186 170.013C68.3075 169.553 68.1888 169.156 67.9626 168.823C67.7355 168.491 67.4157 168.238 67.0034 168.063C66.6294 167.904 66.2753 167.839 65.941 167.867C65.6042 167.894 65.3056 168.007 65.0451 168.208C64.7835 168.411 64.5769 168.691 64.4253 169.048L64.1431 168.873L66.1423 169.722L65.6997 170.765L62.7117 169.496L63.0871 168.612C63.3547 167.981 63.7204 167.493 64.1843 167.147C64.6481 166.8 65.1679 166.602 65.7435 166.552C66.3182 166.505 66.91 166.61 67.5188 166.869C68.1972 167.157 68.7283 167.562 69.1121 168.084C69.4924 168.608 69.7069 169.212 69.7554 169.898C69.8006 170.584 69.6583 171.316 69.3286 172.093C69.0763 172.687 68.767 173.183 68.4008 173.579C68.0322 173.974 67.6265 174.27 67.1836 174.467C66.7398 174.666 66.2768 174.764 65.7947 174.76C65.3115 174.759 64.829 174.656 64.3471 174.451C63.9396 174.278 63.5851 174.057 63.2836 173.787C62.9811 173.52 62.7395 173.22 62.5588 172.886C62.3757 172.551 62.2591 172.195 62.2089 171.821C62.1587 171.446 62.1828 171.065 62.2813 170.68L63.6405 171.257Z" fill="black"/>
<path d="M58.3795 171.539L62.5268 164.698L63.766 165.449L59.6188 172.29L58.3795 171.539Z" fill="black"/>
<path d="M40.3649 157.722C40.1624 157.999 40.0973 158.299 40.1698 158.622C40.2403 158.943 40.4345 159.248 40.7524 159.537C40.9759 159.74 41.1983 159.881 41.4195 159.959C41.6407 160.037 41.8463 160.057 42.0362 160.018C42.2261 159.979 42.3895 159.887 42.5263 159.74C42.6384 159.617 42.7077 159.485 42.7342 159.343C42.7588 159.2 42.7508 159.052 42.7104 158.899C42.6682 158.748 42.6067 158.597 42.5258 158.446C42.4449 158.295 42.3569 158.15 42.2618 158.011L41.8331 157.367C41.6569 157.112 41.506 156.847 41.3805 156.57C41.253 156.293 41.1687 156.012 41.1276 155.728C41.0846 155.442 41.1016 155.16 41.1787 154.882C41.2559 154.604 41.411 154.337 41.644 154.08C41.9594 153.733 42.3257 153.509 42.743 153.406C43.1585 153.305 43.6014 153.333 44.0715 153.49C44.538 153.646 45.0082 153.94 45.4821 154.371C45.9426 154.79 46.2775 155.225 46.4869 155.676C46.6944 156.125 46.7691 156.573 46.7111 157.02C46.6511 157.465 46.4501 157.891 46.108 158.298L45.0532 157.339C45.2253 157.119 45.3177 156.89 45.3303 156.651C45.343 156.413 45.2904 156.179 45.1725 155.948C45.0528 155.716 44.8811 155.498 44.6576 155.295C44.4245 155.083 44.1888 154.932 43.9504 154.842C43.7083 154.752 43.4802 154.724 43.2662 154.758C43.0503 154.794 42.8644 154.896 42.7083 155.064C42.57 155.22 42.4996 155.388 42.4972 155.569C42.4929 155.752 42.5401 155.949 42.6387 156.162C42.7336 156.375 42.8625 156.605 43.0253 156.852L43.541 157.638C43.9145 158.206 44.1272 158.746 44.1792 159.258C44.2274 159.77 44.0588 160.238 43.6733 160.662C43.3562 161.011 42.9841 161.23 42.557 161.321C42.128 161.409 41.684 161.377 41.2251 161.223C40.7644 161.072 40.3269 160.808 39.9127 160.431C39.4927 160.049 39.1913 159.641 39.0085 159.208C38.8221 158.774 38.7557 158.346 38.8093 157.923C38.8613 157.502 39.0359 157.122 39.3333 156.784L40.3649 157.722Z" fill="black"/>
<path d="M40.8563 150.657L34.8449 155.935L31.4118 152.026L32.3247 151.224L34.8016 154.045L36.4336 152.612L34.1345 149.994L35.0474 149.192L37.3464 151.81L38.9872 150.369L36.4897 147.525L37.4026 146.724L40.8563 150.657Z" fill="black"/>
<path d="M35.3468 144.813L28.7822 149.385L27.0676 146.923C26.7164 146.419 26.5093 145.935 26.4464 145.471C26.382 145.005 26.4469 144.574 26.6411 144.178C26.8317 143.782 27.1364 143.438 27.5552 143.147C27.9762 142.853 28.4041 142.689 28.839 142.652C29.2702 142.615 29.6908 142.711 30.1008 142.94C30.5086 143.17 30.8881 143.537 31.2393 144.041L32.4606 145.795L31.4733 146.482L30.3637 144.889C30.1583 144.594 29.9495 144.381 29.7374 144.25C29.523 144.12 29.3056 144.065 29.0849 144.085C28.8606 144.105 28.6321 144.196 28.3991 144.358C28.1662 144.52 27.9995 144.705 27.8989 144.911C27.7962 145.119 27.7677 145.347 27.8132 145.595C27.8565 145.844 27.9817 146.117 28.1885 146.414L28.9476 147.504L34.5185 143.623L35.3468 144.813ZM30.0102 143.493L31.8529 139.796L32.7771 141.123L30.9144 144.791L30.0102 143.493Z" fill="black"/>
<path d="M22.9483 141.279L27.4947 136.451L27.4556 136.379L20.9288 137.549L20.17 136.147L28.5479 134.819L29.3997 136.392L23.7052 142.678L22.9483 141.279Z" fill="black"/>
<path d="M18.6501 131.902L26.0675 128.905L26.6104 130.249L19.193 133.246L18.6501 131.902Z" fill="black"/>
<path d="M18.1587 122.422L18.5509 123.83C18.3313 123.934 18.1474 124.065 17.9994 124.222C17.8488 124.381 17.7332 124.558 17.6525 124.753C17.5718 124.949 17.5288 125.158 17.5234 125.381C17.5148 125.602 17.5434 125.831 17.6091 126.067C17.7258 126.486 17.9347 126.828 18.2356 127.093C18.534 127.358 18.9106 127.526 19.3655 127.597C19.8179 127.668 20.3339 127.623 20.9134 127.461C21.5029 127.297 21.9741 127.067 22.3269 126.771C22.6765 126.474 22.9095 126.136 23.0257 125.758C23.1387 125.377 23.1372 124.979 23.0211 124.563C22.9568 124.332 22.8666 124.124 22.7505 123.941C22.6311 123.755 22.4889 123.599 22.3237 123.472C22.1579 123.342 21.9717 123.247 21.7654 123.185C21.5583 123.121 21.336 123.099 21.0983 123.12L20.7136 121.71C21.0946 121.661 21.4701 121.679 21.8401 121.765C22.2094 121.849 22.5562 121.997 22.8803 122.209C23.2019 122.423 23.4842 122.698 23.727 123.036C23.9673 123.374 24.1515 123.773 24.2794 124.232C24.4682 124.91 24.4799 125.558 24.3145 126.177C24.1491 126.796 23.8131 127.341 23.3063 127.812C22.7996 128.283 22.1323 128.634 21.3045 128.865C20.4742 129.096 19.7212 129.14 19.0457 128.996C18.3677 128.852 17.7978 128.558 17.336 128.114C16.8743 127.669 16.5497 127.111 16.3623 126.439C16.2428 126.01 16.1918 125.594 16.2095 125.192C16.2271 124.789 16.3124 124.411 16.4653 124.058C16.6157 123.705 16.8331 123.389 17.1175 123.11C17.3987 122.829 17.7458 122.599 18.1587 122.422Z" fill="black"/>
<path d="M22.2329 118.209L14.3345 119.481L13.5077 114.344L14.7071 114.151L15.3037 117.857L17.4479 117.512L16.8943 114.072L18.0937 113.878L18.6473 117.319L20.8032 116.972L20.2017 113.235L21.4011 113.041L22.2329 118.209Z" fill="black"/>
<path d="M14.6776 106.264C14.3386 106.317 14.0805 106.483 13.9035 106.763C13.7263 107.039 13.6479 107.393 13.6682 107.822C13.6825 108.124 13.7403 108.38 13.8416 108.592C13.9429 108.803 14.0743 108.963 14.2358 109.07C14.3973 109.177 14.5782 109.227 14.7787 109.22C14.9451 109.212 15.0877 109.167 15.2064 109.086C15.325 109.002 15.424 108.892 15.5036 108.755C15.5805 108.619 15.6438 108.468 15.6934 108.305C15.7429 108.141 15.7834 107.976 15.8146 107.81L15.9664 107.052C16.0223 106.747 16.1035 106.452 16.2099 106.168C16.3163 105.882 16.4553 105.623 16.6269 105.394C16.7983 105.161 17.0098 104.974 17.2611 104.832C17.5125 104.69 17.8111 104.61 18.1571 104.594C18.6253 104.572 19.0433 104.672 19.411 104.894C19.7761 105.117 20.0696 105.449 20.2913 105.893C20.5104 106.333 20.635 106.874 20.6654 107.513C20.6949 108.135 20.6242 108.679 20.4534 109.146C20.2825 109.611 20.0185 109.98 19.6613 110.255C19.304 110.528 18.8606 110.687 18.3309 110.733L18.2634 109.309C18.5407 109.275 18.7681 109.178 18.9457 109.018C19.1232 108.859 19.2518 108.656 19.3313 108.41C19.4108 108.161 19.4434 107.886 19.429 107.584C19.4141 107.269 19.3542 106.996 19.2494 106.763C19.1418 106.529 19.0002 106.348 18.8247 106.22C18.6466 106.093 18.4431 106.034 18.214 106.042C18.0061 106.054 17.8373 106.124 17.7077 106.25C17.5755 106.376 17.469 106.549 17.3882 106.769C17.3047 106.987 17.2333 107.241 17.174 107.53L16.983 108.451C16.8451 109.117 16.6136 109.649 16.2883 110.048C15.9604 110.444 15.5102 110.656 14.938 110.683C14.4671 110.705 14.0488 110.597 13.683 110.359C13.317 110.118 13.0259 109.781 12.8099 109.349C12.5912 108.916 12.4686 108.42 12.4421 107.86C12.4152 107.293 12.4905 106.792 12.668 106.356C12.8427 105.917 13.0986 105.568 13.4356 105.307C13.7699 105.046 14.1619 104.901 14.6116 104.871L14.6776 106.264Z" fill="black"/>
<path d="M17.93 91.2794L10.055 89.8707L10.3102 88.4441L13.644 89.0405L14.2967 85.3914L10.9629 84.795L11.2188 83.3646L19.0938 84.7733L18.8379 86.2037L15.4926 85.6053L14.8398 89.2544L18.1851 89.8528L17.93 91.2794Z" fill="black"/>
<path d="M12.5948 76.4544L20.2626 78.736L19.8492 80.125L12.1815 77.8434L12.5948 76.4544Z" fill="black"/>
<path d="M18.0946 67.7304C17.875 67.7079 17.6661 67.7168 17.4679 67.7572C17.2683 67.7941 17.0824 67.8623 16.91 67.9617C16.7387 68.0588 16.5858 68.1891 16.4513 68.3526C16.3144 68.5152 16.1991 68.7067 16.1055 68.9273C15.9376 69.3228 15.8876 69.7174 15.9553 70.1111C16.023 70.5048 16.2121 70.8722 16.5228 71.2134C16.832 71.5512 17.2624 71.8372 17.8137 72.0712C18.3698 72.3072 18.878 72.4197 19.3382 72.4085C19.7985 72.3973 20.1954 72.2787 20.529 72.0525C20.8603 71.8253 21.1134 71.5056 21.2884 71.0933C21.4471 70.7193 21.5126 70.3652 21.4848 70.0309C21.4579 69.6941 21.3442 69.3955 21.1436 69.135C20.9406 68.8734 20.6605 68.6668 20.3034 68.5152L20.4783 68.233L19.6297 70.2322L18.587 69.7896L19.8553 66.8015L20.7398 67.177C21.3703 67.4446 21.8587 67.8103 22.205 68.2742C22.5512 68.738 22.7493 69.2578 22.7992 69.8334C22.8467 70.4081 22.7412 70.9999 22.4827 71.6087C22.1948 72.2871 21.7897 72.8182 21.2675 73.202C20.744 73.5823 20.1395 73.7968 19.454 73.8453C18.7672 73.8904 18.0355 73.7482 17.2588 73.4185C16.6643 73.1662 16.1689 72.8569 15.7727 72.4907C15.3775 72.122 15.0815 71.7163 14.8847 71.2735C14.6855 70.8297 14.5878 70.3667 14.5916 69.8845C14.593 69.4013 14.696 68.9188 14.9005 68.437C15.0735 68.0295 15.2947 67.675 15.5641 67.3735C15.8312 67.071 16.1318 66.8294 16.4659 66.6487C16.8011 66.4656 17.1561 66.349 17.531 66.2988C17.906 66.2485 18.2861 66.2727 18.6715 66.3712L18.0946 67.7304Z" fill="black"/>
<path d="M17.3552 62.2638L24.323 66.1944L23.611 67.4567L16.6432 63.526L17.3552 62.2638Z" fill="black"/>
<path d="M31.6316 44.4567C31.3547 44.2542 31.0548 44.1891 30.7319 44.2616C30.4108 44.3321 30.1057 44.5263 29.8166 44.8442C29.6134 45.0677 29.4728 45.2901 29.3948 45.5113C29.3168 45.7325 29.297 45.9381 29.3355 46.128C29.374 46.3179 29.4666 46.4812 29.6132 46.6181C29.7365 46.7302 29.8688 46.7995 30.0102 46.826C30.1533 46.8506 30.3013 46.8426 30.4542 46.8022C30.6052 46.76 30.7562 46.6985 30.9073 46.6176C31.0583 46.5367 31.2034 46.4487 31.3427 46.3536L31.986 45.9249C32.2413 45.7487 32.507 45.5978 32.7831 45.4723C33.0609 45.3448 33.3418 45.2605 33.6256 45.2194C33.9111 45.1764 34.193 45.1934 34.4714 45.2705C34.7497 45.3477 35.017 45.5028 35.2732 45.7358C35.62 46.0512 35.8448 46.4175 35.9475 46.8348C36.0484 47.2503 36.0205 47.6932 35.864 48.1633C35.7073 48.6298 35.4134 49.1 34.9824 49.5739C34.5636 50.0344 34.1288 50.3693 33.6778 50.5787C33.2287 50.7862 32.7805 50.8609 32.3335 50.8029C31.8882 50.7429 31.4621 50.5419 31.055 50.1998L32.0143 49.145C32.2345 49.3171 32.4638 49.4095 32.7022 49.4221C32.9406 49.4348 33.175 49.3822 33.4054 49.2643C33.6375 49.1446 33.8552 48.9729 34.0584 48.7494C34.2704 48.5163 34.4215 48.2806 34.5116 48.0422C34.6015 47.8001 34.6294 47.572 34.5953 47.358C34.5592 47.1421 34.4573 46.9562 34.2895 46.8001C34.1336 46.6618 33.9653 46.5914 33.7845 46.589C33.6018 46.5847 33.404 46.6319 33.1912 46.7305C32.9781 46.8254 32.7483 46.9543 32.5016 47.1171L31.7158 47.6328C31.1473 48.0063 30.6071 48.219 30.0953 48.271C29.5832 48.3192 29.1153 48.1506 28.6914 47.7651C28.3427 47.448 28.1232 47.0759 28.0329 46.6488C27.9443 46.2198 27.9767 45.7758 28.1301 45.3169C28.2816 44.8562 28.5456 44.4187 28.9223 44.0045C29.3043 43.5845 29.7122 43.2831 30.1459 43.1003C30.5795 42.9138 31.0078 42.8475 31.4306 42.9011C31.8516 42.9531 32.2313 43.1277 32.5699 43.4251L31.6316 44.4567Z" fill="black"/>
<path d="M38.6957 44.9481L33.4171 38.9368L37.3269 35.5036L38.1284 36.4165L35.3077 38.8934L36.7407 40.5254L39.359 38.2263L40.1605 39.1392L37.5423 41.4382L38.9831 43.0791L41.8273 40.5815L42.6289 41.4944L38.6957 44.9481Z" fill="black"/>
<path d="M44.5389 39.4377L39.9666 32.8731L42.4283 31.1584C42.9326 30.8072 43.4168 30.6001 43.8807 30.5372C44.3468 30.4728 44.7776 30.5377 45.1731 30.7319C45.5693 30.9225 45.9132 31.2272 46.2049 31.646C46.4981 32.067 46.6629 32.4949 46.6992 32.9298C46.7362 33.3611 46.6404 33.7817 46.4118 34.1916C46.1817 34.5994 45.8145 34.9789 45.3102 35.3302L43.5568 36.5514L42.8692 35.5641L44.4623 34.4545C44.7572 34.2491 44.9704 34.0404 45.1018 33.8282C45.2318 33.6139 45.2867 33.3964 45.2663 33.1757C45.2465 32.9515 45.1555 32.7229 44.9933 32.4899C44.8311 32.257 44.6467 32.0903 44.4402 31.9898C44.2322 31.8871 44.0044 31.8585 43.7569 31.904C43.5078 31.9473 43.2347 32.0725 42.9377 32.2794L41.8479 33.0384L45.7281 38.6094L44.5389 39.4377ZM45.8584 34.101L49.5553 35.9437L48.2283 36.868L44.5602 35.0052L45.8584 34.101Z" fill="black"/>
<path d="M48.0731 27.0392L52.9018 31.5855L52.974 31.5464L51.8037 25.0196L53.2053 24.2608L54.5336 32.6388L52.9603 33.4905L46.675 27.796L48.0731 27.0392Z" fill="black"/>
<path d="M57.2979 21.8742L60.6409 29.1422L59.3243 29.7478L55.9812 22.4798L57.2979 21.8742Z" fill="black"/>
<path d="M66.7436 20.9365L65.3563 21.3945C65.2417 21.1801 65.1022 21.0026 64.9379 20.8622C64.7727 20.7192 64.5906 20.6121 64.3915 20.5407C64.1925 20.4693 63.9813 20.4362 63.7581 20.4413C63.5366 20.4431 63.3096 20.4824 63.0772 20.5592C62.6642 20.6955 62.3325 20.9202 62.0821 21.2333C61.8309 21.5438 61.6807 21.928 61.6316 22.3857C61.5818 22.841 61.6511 23.3542 61.8397 23.9255C62.0316 24.5066 62.2835 24.9664 62.5955 25.3049C62.9091 25.6402 63.2577 25.8569 63.6412 25.9552C64.0263 26.0502 64.4241 26.0299 64.8346 25.8944C65.0621 25.8192 65.265 25.7194 65.4432 25.5947C65.6231 25.4667 65.7726 25.3173 65.8917 25.1463C66.0132 24.9746 66.0998 24.7842 66.1515 24.5751C66.2056 24.3653 66.2169 24.1422 66.1855 23.9057L67.5752 23.4551C67.6425 23.8333 67.6418 24.2092 67.5732 24.5829C67.5071 24.9557 67.3756 25.3091 67.1786 25.6429C66.9809 25.9742 66.719 26.2691 66.393 26.5275C66.0661 26.7836 65.6764 26.9863 65.2239 27.1357C64.5562 27.3561 63.9092 27.3983 63.2829 27.2623C62.6566 27.1263 62.0963 26.8163 61.6019 26.3323C61.1075 25.8483 60.7256 25.1983 60.4562 24.3823C60.1859 23.5638 60.1069 22.8137 60.2192 22.1322C60.3307 21.4482 60.5975 20.8651 61.0197 20.3829C61.4419 19.9007 61.9844 19.5501 62.6471 19.3313C63.0699 19.1917 63.4827 19.1212 63.8854 19.1199C64.2881 19.1186 64.6696 19.186 65.0299 19.322C65.3894 19.4557 65.7154 19.6579 66.0078 19.9289C66.3018 20.1965 66.5471 20.5324 66.7436 20.9365Z" fill="black"/>
<path d="M71.1422 24.807L69.5003 16.9773L74.5926 15.9094L74.842 17.0984L71.168 17.8689L71.6137 19.9945L75.0239 19.2794L75.2733 20.4684L71.8631 21.1835L72.3112 23.3206L76.0158 22.5437L76.2651 23.7327L71.1422 24.807Z" fill="black"/>
<path d="M82.7197 16.6991C82.6512 16.3629 82.4731 16.113 82.1856 15.9493C81.9006 15.7853 81.5442 15.7236 81.1165 15.7642C80.8157 15.7927 80.5621 15.8625 80.3555 15.9736C80.1489 16.0848 79.996 16.2235 79.8966 16.3899C79.7973 16.5563 79.7558 16.7394 79.7721 16.9393C79.7879 17.1052 79.8391 17.2455 79.9258 17.3602C80.0152 17.4747 80.13 17.5684 80.2703 17.6415C80.4104 17.7119 80.5635 17.768 80.7297 17.8098C80.8958 17.8516 81.0624 17.8842 81.2294 17.9076L81.9937 18.0235C82.3011 18.065 82.5992 18.1322 82.8879 18.2252C83.1792 18.3179 83.4436 18.4446 83.6812 18.6051C83.9213 18.7655 84.1184 18.9679 84.2723 19.2122C84.4263 19.4566 84.5196 19.7512 84.5523 20.096C84.5965 20.5627 84.5162 20.9849 84.3114 21.3627C84.1063 21.7379 83.7877 22.0467 83.3555 22.289C82.9256 22.5286 82.3918 22.6786 81.7541 22.739C81.1345 22.7978 80.5874 22.7528 80.1129 22.6042C79.6411 22.4554 79.2593 22.2091 78.9678 21.8653C78.6788 21.5212 78.4989 21.0857 78.428 20.5588L79.8474 20.4243C79.8945 20.6997 80.0019 20.9223 80.1697 21.0921C80.3375 21.262 80.5463 21.3808 80.796 21.4487C81.0483 21.5163 81.3248 21.5359 81.6256 21.5074C81.9393 21.4777 82.2096 21.4049 82.4367 21.2892C82.6661 21.1707 82.8403 21.0208 82.9591 20.8395C83.0777 20.6556 83.1275 20.4495 83.1084 20.2211C83.0862 20.0139 83.009 19.8486 82.877 19.7251C82.7447 19.599 82.5667 19.5008 82.3429 19.4304C82.1215 19.3572 81.8647 19.2979 81.5727 19.2523L80.6445 19.1049C79.9726 18.9985 79.4299 18.7923 79.0163 18.4862C78.6051 18.1773 78.3725 17.7377 78.3184 17.1673C78.2739 16.698 78.362 16.2751 78.5827 15.8984C78.8059 15.5215 79.1287 15.2149 79.551 14.9787C79.973 14.7399 80.4628 14.5941 81.0202 14.5412C81.5853 14.4877 82.0899 14.5393 82.5337 14.696C82.9799 14.8499 83.3413 15.089 83.618 15.4133C83.8943 15.735 84.0577 16.1197 84.108 16.5675L82.7197 16.6991Z" fill="black"/>
<path d="M133.455 31.6991C133.175 31.6809 132.942 31.5652 132.754 31.3518C132.567 31.1385 132.482 30.892 132.501 30.6123C132.519 30.3325 132.634 30.099 132.848 29.9117C133.061 29.7244 133.308 29.6398 133.587 29.6579C133.867 29.6761 134.101 29.7918 134.288 30.0052C134.475 30.2185 134.56 30.465 134.542 30.7447C134.53 30.93 134.471 31.097 134.367 31.2458C134.266 31.3949 134.135 31.5117 133.974 31.5961C133.817 31.677 133.644 31.7113 133.455 31.6991Z" fill="black"/>
<path d="M91.2811 20.2958C91.0013 20.2776 90.7678 20.1619 90.5805 19.9485C90.3932 19.7352 90.3086 19.4887 90.3267 19.2089C90.3449 18.9292 90.4606 18.6957 90.674 18.5084C90.8873 18.321 91.1338 18.2364 91.4135 18.2546C91.6933 18.2728 91.9268 18.3885 92.1141 18.6018C92.3014 18.8152 92.386 19.0617 92.3679 19.3414C92.3559 19.5266 92.2976 19.6937 92.193 19.8425C92.0922 19.9916 91.9613 20.1084 91.8002 20.1928C91.6431 20.2737 91.4701 20.308 91.2811 20.2958Z" fill="black"/>
<path d="M24.8699 58.076C24.5902 58.0579 24.3567 57.9421 24.1694 57.7288C23.982 57.5155 23.8974 57.2689 23.9156 56.9892C23.9337 56.7095 24.0495 56.476 24.2628 56.2886C24.4762 56.1013 24.7227 56.0167 25.0024 56.0349C25.2821 56.053 25.5157 56.1688 25.703 56.3821C25.8903 56.5955 25.9749 56.842 25.9567 57.1217C25.9447 57.3069 25.8864 57.4739 25.7819 57.6228C25.6811 57.7719 25.5502 57.8886 25.389 57.9731C25.232 58.054 25.0589 58.0883 24.8699 58.076Z" fill="black"/>
<path d="M172.494 97.7811C172.214 97.763 171.981 97.6472 171.793 97.4339C171.606 97.2205 171.521 96.974 171.54 96.6943C171.558 96.4146 171.674 96.1811 171.887 95.9937C172.1 95.8064 172.347 95.7218 172.626 95.74C172.906 95.7581 173.14 95.8739 173.327 96.0872C173.514 96.3005 173.599 96.5471 173.581 96.8268C173.569 97.012 173.51 97.179 173.406 97.3279C173.305 97.477 173.174 97.5937 173.013 97.6782C172.856 97.7591 172.683 97.7934 172.494 97.7811Z" fill="black"/>
<path d="M93.8582 177.681C93.5785 177.662 93.345 177.547 93.1576 177.333C92.9703 177.12 92.8857 176.873 92.9039 176.594C92.922 176.314 93.0378 176.08 93.2511 175.893C93.4645 175.706 93.711 175.621 93.9907 175.639C94.2704 175.658 94.5039 175.773 94.6913 175.987C94.8786 176.2 94.9632 176.446 94.945 176.726C94.933 176.911 94.8747 177.078 94.7702 177.227C94.6694 177.376 94.5384 177.493 94.3773 177.578C94.2202 177.658 94.0472 177.693 93.8582 177.681Z" fill="black"/>
<path d="M13.7439 102.331C13.4642 102.313 13.2307 102.197 13.0434 101.984C12.856 101.77 12.7715 101.524 12.7896 101.244C12.8078 100.964 12.9235 100.731 13.1369 100.544C13.3502 100.356 13.5967 100.272 13.8764 100.29C14.1562 100.308 14.3897 100.424 14.577 100.637C14.7643 100.85 14.8489 101.097 14.8308 101.377C14.8188 101.562 14.7605 101.729 14.6559 101.878C14.5551 102.027 14.4242 102.144 14.2631 102.228C14.106 102.309 13.9329 102.343 13.7439 102.331Z" fill="black"/>
<path d="M51.9334 168.769C51.6537 168.751 51.4202 168.635 51.2328 168.422C51.0455 168.209 50.9609 167.962 50.9791 167.683C50.9972 167.403 51.113 167.169 51.3263 166.982C51.5396 166.795 51.7862 166.71 52.0659 166.728C52.3456 166.746 52.5791 166.862 52.7665 167.075C52.9538 167.289 53.0384 167.535 53.0202 167.815C53.0082 168 52.9499 168.167 52.8454 168.316C52.7446 168.465 52.6136 168.582 52.4525 168.666C52.2954 168.747 52.1224 168.782 51.9334 168.769Z" fill="black"/>
<path d="M161.887 140.42C161.607 140.402 161.373 140.286 161.186 140.073C160.999 139.859 160.914 139.613 160.932 139.333C160.95 139.053 161.066 138.82 161.279 138.632C161.493 138.445 161.739 138.36 162.019 138.379C162.299 138.397 162.532 138.513 162.72 138.726C162.907 138.939 162.992 139.186 162.973 139.465C162.961 139.651 162.903 139.818 162.798 139.967C162.698 140.116 162.567 140.232 162.406 140.317C162.249 140.398 162.076 140.432 161.887 140.42Z" fill="black"/>
</svg>
