<svg width="178" height="181" viewBox="0 0 178 181" fill="none" xmlns="http://www.w3.org/2000/svg">
<circle cx="88.8434" cy="92.4339" r="82.2626" transform="rotate(3.7137 88.8434 92.4339)" fill="#ECCC5A" stroke="black"/>
<path d="M87.1523 61.3248L68.3308 41.0694L67.9154 69.2406L40.1927 66.3838L57.9133 87.2727L35.4064 102.026L61.9142 107.271L53.4533 134.215L78.3543 120.675L89.072 146.044L99.9271 120.313L123.846 132.792L115.284 106.858L141.205 99.376L117.707 85.8666L134.734 63.0033L106.488 68.2195L105.473 40.3079L87.1523 61.3248Z" fill="#131213"/>
<path d="M93.8124 22.0349L95.2211 14.1599L96.6477 14.4151L96.0513 17.7489L99.7004 18.4017L100.297 15.0679L101.727 15.3238L100.318 23.1988L98.888 22.9429L99.4865 19.5976L95.8374 18.9448L95.2389 22.2901L93.8124 22.0349Z" fill="black"/>
<path d="M108.76 16.8175L110.149 17.2308L108.658 22.2403C108.495 22.7894 108.221 23.2338 107.838 23.5734C107.456 23.9137 106.998 24.1318 106.461 24.2275C105.925 24.3207 105.345 24.2745 104.721 24.0888C104.095 23.9024 103.583 23.6237 103.185 23.2527C102.788 22.8792 102.523 22.4458 102.39 21.9524C102.257 21.4591 102.272 20.9379 102.435 20.3887L103.926 15.3793L105.315 15.7926L103.859 20.686C103.764 21.0055 103.749 21.3108 103.815 21.602C103.883 21.894 104.024 22.1493 104.239 22.3681C104.454 22.5844 104.738 22.7449 105.09 22.8496C105.442 22.9543 105.767 22.975 106.066 22.9117C106.368 22.8467 106.626 22.7102 106.84 22.5022C107.054 22.2942 107.208 22.0304 107.304 21.7109L108.76 16.8175Z" fill="black"/>
<path d="M116.378 22.0127C116.401 21.7931 116.392 21.5842 116.351 21.386C116.314 21.1864 116.246 21.0004 116.147 20.8281C116.05 20.6568 115.919 20.5039 115.756 20.3694C115.593 20.2325 115.402 20.1172 115.181 20.0236C114.786 19.8557 114.391 19.8056 113.997 19.8733C113.604 19.9411 113.236 20.1302 112.895 20.4409C112.557 20.7501 112.271 21.1804 112.037 21.7318C111.801 22.2879 111.689 22.7961 111.7 23.2563C111.711 23.7166 111.83 24.1135 112.056 24.4471C112.283 24.7784 112.603 25.0315 113.015 25.2065C113.389 25.3652 113.743 25.4307 114.078 25.4028C114.414 25.376 114.713 25.2623 114.973 25.0617C115.235 24.8587 115.442 24.5786 115.593 24.2215L115.875 24.3964L113.876 23.5478L114.319 22.505L117.307 23.7734L116.931 24.6579C116.664 25.2884 116.298 25.7767 115.834 26.123C115.37 26.4693 114.851 26.6674 114.275 26.7173C113.7 26.7648 113.109 26.6593 112.5 26.4008C111.821 26.1129 111.29 25.7078 110.906 25.1856C110.526 24.6621 110.312 24.0576 110.263 23.3721C110.218 22.6853 110.36 21.9536 110.69 21.1769C110.942 20.5824 111.252 20.087 111.618 19.6908C111.986 19.2956 112.392 18.9996 112.835 18.8028C113.279 18.6036 113.742 18.5059 114.224 18.5097C114.707 18.5111 115.19 18.6141 115.671 18.8186C116.079 18.9916 116.433 19.2128 116.735 19.4822C117.037 19.7492 117.279 20.0498 117.46 20.384C117.643 20.7191 117.759 21.0742 117.81 21.4491C117.86 21.8241 117.836 22.2042 117.737 22.5896L116.378 22.0127Z" fill="black"/>
<path d="M121.318 21.4996L117.79 28.6793L116.489 28.0401L120.018 20.8604L121.318 21.4996Z" fill="black"/>
<path d="M138.279 34.8346C138.481 34.5577 138.546 34.2578 138.474 33.9349C138.403 33.6138 138.209 33.3087 137.891 33.0196C137.668 32.8164 137.445 32.6758 137.224 32.5978C137.003 32.5198 136.797 32.5 136.607 32.5385C136.417 32.577 136.254 32.6696 136.117 32.8162C136.005 32.9395 135.936 33.0718 135.909 33.2132C135.885 33.3563 135.893 33.5043 135.933 33.6572C135.975 33.8082 136.037 33.9593 136.118 34.1103C136.199 34.2613 136.287 34.4064 136.382 34.5457L136.81 35.189C136.987 35.4443 137.138 35.71 137.263 35.9861C137.391 36.2639 137.475 36.5448 137.516 36.8286C137.559 37.1141 137.542 37.396 137.465 37.6744C137.388 37.9527 137.233 38.22 137 38.4762C136.684 38.823 136.318 39.0478 135.901 39.1505C135.485 39.2514 135.042 39.2235 134.572 39.067C134.106 38.9103 133.635 38.6164 133.161 38.1854C132.701 37.7666 132.366 37.3318 132.157 36.8808C131.949 36.4317 131.874 35.9835 131.932 35.5365C131.992 35.0912 132.193 34.6651 132.536 34.258L133.59 35.2173C133.418 35.4375 133.326 35.6668 133.313 35.9052C133.301 36.1436 133.353 36.378 133.471 36.6084C133.591 36.8405 133.762 37.0582 133.986 37.2614C134.219 37.4734 134.455 37.6245 134.693 37.7146C134.935 37.8045 135.163 37.8324 135.377 37.7983C135.593 37.7622 135.779 37.6603 135.935 37.4925C136.074 37.3366 136.144 37.1683 136.146 36.9875C136.151 36.8048 136.103 36.607 136.005 36.3942C135.91 36.1811 135.781 35.9513 135.618 35.7046L135.103 34.9189C134.729 34.3503 134.516 33.8101 134.464 33.2983C134.416 32.7862 134.585 32.3183 134.97 31.8944C135.287 31.5457 135.659 31.3262 136.087 31.2359C136.516 31.1473 136.96 31.1798 137.418 31.3331C137.879 31.4846 138.317 31.7486 138.731 32.1253C139.151 32.5073 139.452 32.9152 139.635 33.3489C139.822 33.7825 139.888 34.2108 139.834 34.6336C139.782 35.0546 139.608 35.4343 139.31 35.7729L138.279 34.8346Z" fill="black"/>
<path d="M137.396 41.5612L143.407 36.2826L146.84 40.1923L145.927 40.9939L143.45 38.1731L141.818 39.6062L144.117 42.2244L143.205 43.026L140.906 40.4078L139.265 41.8486L141.762 44.6928L140.849 45.4944L137.396 41.5612Z" fill="black"/>
<path d="M142.575 47.0543L149.14 42.482L150.854 44.9437C151.206 45.448 151.413 45.9321 151.476 46.3961C151.54 46.8622 151.475 47.293 151.281 47.6885C151.09 48.0847 150.785 48.4286 150.367 48.7203C149.946 49.0135 149.518 49.1783 149.083 49.2146C148.652 49.2516 148.231 49.1557 147.821 48.9271C147.413 48.6971 147.034 48.3299 146.683 47.8256L145.461 46.0722L146.449 45.3846L147.558 46.9777C147.764 47.2725 147.972 47.4857 148.185 47.6172C148.399 47.7472 148.616 47.802 148.837 47.7816C149.061 47.7619 149.29 47.6709 149.523 47.5087C149.756 47.3464 149.922 47.1621 150.023 46.9556C150.126 46.7476 150.154 46.5198 150.109 46.2722C150.065 46.0232 149.94 45.7501 149.733 45.4531L148.974 44.3633L143.403 48.2435L142.575 47.0543ZM147.912 48.3737L146.069 52.0707L145.145 50.7437L147.007 47.0756L147.912 48.3737Z" fill="black"/>
<path d="M154.683 50.202L150.136 55.0307L150.175 55.1029L156.702 53.9326L157.461 55.3342L149.083 56.6626L148.231 55.0893L153.926 48.8039L154.683 50.202Z" fill="black"/>
<path d="M160.473 59.3315L153.056 62.3284L152.513 60.9847L159.93 57.9878L160.473 59.3315Z" fill="black"/>
<path d="M160.861 68.6118L160.469 67.2045C160.688 67.1001 160.872 66.9691 161.02 66.8116C161.171 66.6534 161.286 66.4765 161.367 66.281C161.448 66.0855 161.491 65.8762 161.496 65.653C161.505 65.4316 161.476 65.203 161.41 64.9672C161.294 64.5483 161.085 64.2064 160.784 63.9415C160.486 63.6759 160.109 63.5079 159.654 63.4373C159.202 63.366 158.686 63.4111 158.106 63.5726C157.517 63.7369 157.045 63.9669 156.693 64.2626C156.343 64.5601 156.11 64.898 155.994 65.2764C155.881 65.6567 155.882 66.055 155.998 66.4714C156.063 66.7022 156.153 66.9096 156.269 67.0935C156.388 67.2792 156.531 67.4355 156.696 67.5625C156.862 67.692 157.048 67.7875 157.254 67.8489C157.461 67.9129 157.684 67.9347 157.921 67.9145L158.306 69.3239C157.925 69.3733 157.549 69.3549 157.179 69.2688C156.81 69.1852 156.463 69.0371 156.139 68.8247C155.818 68.6115 155.535 68.336 155.293 67.9982C155.052 67.6597 154.868 67.2609 154.74 66.8018C154.551 66.1245 154.54 65.4762 154.705 64.857C154.87 64.2378 155.206 63.6927 155.713 63.2217C156.22 62.7506 156.887 62.3998 157.715 62.1691C158.545 61.9377 159.298 61.8941 159.974 62.0384C160.652 62.1819 161.222 62.4759 161.683 62.9204C162.145 63.3648 162.47 63.9232 162.657 64.5955C162.777 65.0244 162.828 65.4401 162.81 65.8424C162.792 66.2447 162.707 66.6226 162.554 66.9761C162.404 67.3289 162.186 67.645 161.902 67.9243C161.621 68.2054 161.274 68.4346 160.861 68.6118Z" fill="black"/>
<path d="M156.619 72.2757L164.517 71.0044L165.344 76.1414L164.144 76.3345L163.548 72.6283L161.404 72.9734L161.957 76.4135L160.758 76.6065L160.204 73.1664L158.048 73.5134L158.65 77.2505L157.45 77.4435L156.619 72.2757Z" fill="black"/>
<path d="M164.083 83.751C164.422 83.6984 164.68 83.5324 164.857 83.2528C165.034 82.9759 165.113 82.6228 165.093 82.1936C165.078 81.8919 165.02 81.6352 164.919 81.4236C164.818 81.212 164.686 81.0527 164.525 80.9457C164.363 80.8386 164.182 80.7885 163.982 80.7954C163.816 80.8033 163.673 80.8479 163.554 80.9291C163.436 81.013 163.337 81.1232 163.257 81.26C163.18 81.3966 163.117 81.5469 163.067 81.7109C163.018 81.8749 162.977 82.0397 162.946 82.2055L162.794 82.9635C162.738 83.2686 162.657 83.5631 162.551 83.8471C162.444 84.1337 162.305 84.3919 162.134 84.6216C161.962 84.854 161.751 85.0413 161.5 85.1836C161.248 85.3258 160.95 85.4052 160.604 85.4216C160.135 85.4438 159.717 85.3437 159.35 85.1213C158.985 84.8987 158.691 84.5659 158.469 84.1228C158.25 83.6821 158.126 83.1418 158.095 82.5019C158.066 81.8802 158.137 81.3359 158.307 80.869C158.478 80.4046 158.742 80.0349 159.099 79.7599C159.457 79.4875 159.9 79.3283 160.43 79.2823L160.497 80.7065C160.22 80.7405 159.993 80.8373 159.815 80.9969C159.638 81.1566 159.509 81.3595 159.429 81.6057C159.35 81.8546 159.317 82.1298 159.332 82.4316C159.347 82.7463 159.407 83.0199 159.511 83.2521C159.619 83.4869 159.761 83.6679 159.936 83.7951C160.114 83.9222 160.318 83.9817 160.547 83.9734C160.755 83.961 160.923 83.8917 161.053 83.7656C161.185 83.6394 161.292 83.4662 161.373 83.246C161.456 83.0283 161.527 82.7746 161.587 82.485L161.778 81.5648C161.916 80.8986 162.147 80.3662 162.472 79.9676C162.8 79.5714 163.25 79.3597 163.823 79.3326C164.294 79.3103 164.712 79.4182 165.078 79.6563C165.444 79.8971 165.735 80.2339 165.951 80.6669C166.17 81.0997 166.292 81.5958 166.319 82.155C166.346 82.7221 166.27 83.2236 166.093 83.6596C165.918 84.0981 165.662 84.4478 165.325 84.7089C164.991 84.9698 164.599 85.1148 164.149 85.144L164.083 83.751Z" fill="black"/>
<path d="M158.963 97.3867L166.838 98.7955L166.582 100.222L163.249 99.6257L162.596 103.275L165.93 103.871L165.674 105.302L157.799 103.893L158.055 102.462L161.4 103.061L162.053 99.4117L158.707 98.8133L158.963 97.3867Z" fill="black"/>
<path d="M164.18 112.336L163.767 113.725L158.757 112.234C158.208 112.071 157.764 111.798 157.424 111.414C157.084 111.033 156.866 110.574 156.77 110.037C156.677 109.502 156.723 108.922 156.909 108.298C157.095 107.671 157.374 107.159 157.745 106.761C158.118 106.364 158.552 106.099 159.045 105.966C159.538 105.833 160.06 105.848 160.609 106.012L165.618 107.503L165.205 108.892L160.312 107.435C159.992 107.34 159.687 107.326 159.396 107.391C159.104 107.459 158.848 107.6 158.629 107.815C158.413 108.031 158.253 108.314 158.148 108.666C158.043 109.018 158.023 109.344 158.086 109.642C158.151 109.944 158.287 110.202 158.495 110.416C158.703 110.63 158.967 110.785 159.287 110.88L164.18 112.336Z" fill="black"/>
<path d="M158.985 119.952C159.204 119.975 159.413 119.966 159.611 119.926C159.811 119.889 159.997 119.82 160.169 119.721C160.34 119.624 160.493 119.494 160.628 119.33C160.765 119.168 160.88 118.976 160.974 118.755C161.141 118.36 161.192 117.965 161.124 117.572C161.056 117.178 160.867 116.81 160.556 116.469C160.247 116.131 159.817 115.846 159.265 115.612C158.709 115.375 158.201 115.263 157.741 115.274C157.281 115.285 156.884 115.404 156.55 115.63C156.219 115.857 155.966 116.177 155.791 116.589C155.632 116.963 155.567 117.318 155.594 117.652C155.621 117.989 155.735 118.287 155.935 118.548C156.138 118.809 156.419 119.016 156.776 119.168L156.601 119.45L157.449 117.451L158.492 117.893L157.224 120.881L156.339 120.506C155.709 120.238 155.22 119.872 154.874 119.409C154.528 118.945 154.33 118.425 154.28 117.849C154.232 117.275 154.338 116.683 154.596 116.074C154.884 115.396 155.289 114.865 155.812 114.481C156.335 114.1 156.94 113.886 157.625 113.837C158.312 113.792 159.044 113.935 159.82 114.264C160.415 114.517 160.91 114.826 161.306 115.192C161.702 115.561 161.998 115.966 162.194 116.409C162.394 116.853 162.491 117.316 162.487 117.798C162.486 118.281 162.383 118.764 162.179 119.246C162.006 119.653 161.784 120.008 161.515 120.309C161.248 120.612 160.947 120.853 160.613 121.034C160.278 121.217 159.923 121.334 159.548 121.384C159.173 121.434 158.793 121.41 158.408 121.312L158.985 119.952Z" fill="black"/>
<path d="M159.633 125.16L152.431 121.677L153.062 120.373L160.264 123.855L159.633 125.16Z" fill="black"/>
<path d="M146.162 141.854C146.439 142.056 146.739 142.121 147.062 142.049C147.383 141.978 147.688 141.784 147.977 141.466C148.181 141.243 148.321 141.02 148.399 140.799C148.477 140.578 148.497 140.372 148.458 140.182C148.42 139.992 148.327 139.829 148.181 139.692C148.057 139.58 147.925 139.511 147.784 139.484C147.641 139.46 147.493 139.468 147.34 139.508C147.189 139.55 147.038 139.612 146.887 139.693C146.736 139.774 146.591 139.862 146.451 139.957L145.808 140.385C145.553 140.562 145.287 140.712 145.011 140.838C144.733 140.965 144.452 141.05 144.168 141.091C143.883 141.134 143.601 141.117 143.323 141.04C143.044 140.963 142.777 140.808 142.521 140.575C142.174 140.259 141.949 139.893 141.846 139.475C141.746 139.06 141.773 138.617 141.93 138.147C142.087 137.681 142.381 137.21 142.812 136.736C143.23 136.276 143.665 135.941 144.116 135.732C144.565 135.524 145.013 135.449 145.46 135.507C145.906 135.567 146.332 135.768 146.739 136.11L145.78 137.165C145.559 136.993 145.33 136.901 145.092 136.888C144.853 136.876 144.619 136.928 144.389 137.046C144.156 137.166 143.939 137.337 143.736 137.561C143.524 137.794 143.372 138.03 143.282 138.268C143.192 138.51 143.165 138.738 143.199 138.952C143.235 139.168 143.337 139.354 143.504 139.51C143.66 139.648 143.829 139.719 144.009 139.721C144.192 139.726 144.39 139.678 144.603 139.58C144.816 139.485 145.046 139.356 145.292 139.193L146.078 138.678C146.647 138.304 147.187 138.091 147.699 138.039C148.211 137.991 148.679 138.16 149.103 138.545C149.451 138.862 149.671 139.234 149.761 139.662C149.85 140.091 149.817 140.535 149.664 140.993C149.512 141.454 149.248 141.892 148.872 142.306C148.49 142.726 148.082 143.027 147.648 143.21C147.214 143.396 146.786 143.463 146.363 143.409C145.942 143.357 145.563 143.183 145.224 142.885L146.162 141.854Z" fill="black"/>
<path d="M139.436 140.971L144.715 146.982L140.805 150.415L140.003 149.502L142.824 147.025L141.391 145.393L138.773 147.692L137.971 146.78L140.59 144.481L139.149 142.84L136.305 145.337L135.503 144.424L139.436 140.971Z" fill="black"/>
<path d="M133.946 146.15L138.519 152.715L136.057 154.429C135.553 154.78 135.069 154.988 134.605 155.05C134.139 155.115 133.708 155.05 133.312 154.856C132.916 154.665 132.572 154.36 132.28 153.942C131.987 153.521 131.822 153.093 131.786 152.658C131.749 152.227 131.845 151.806 132.074 151.396C132.304 150.988 132.671 150.609 133.175 150.257L134.929 149.036L135.616 150.024L134.023 151.133C133.728 151.338 133.515 151.547 133.384 151.759C133.254 151.974 133.199 152.191 133.219 152.412C133.239 152.636 133.33 152.865 133.492 153.098C133.654 153.331 133.839 153.497 134.045 153.598C134.253 153.701 134.481 153.729 134.728 153.684C134.978 153.64 135.251 153.515 135.548 153.308L136.637 152.549L132.757 146.978L133.946 146.15ZM132.627 151.487L128.93 149.644L130.257 148.72L133.925 150.582L132.627 151.487Z" fill="black"/>
<path d="M130.796 158.259L125.967 153.713L125.895 153.752L127.065 160.279L125.664 161.037L124.335 152.659L125.909 151.808L132.194 157.502L130.796 158.259Z" fill="black"/>
<path d="M121.861 162.887L118.864 155.469L120.208 154.927L123.205 162.344L121.861 162.887Z" fill="black"/>
<path d="M112.578 163.277L113.986 162.885C114.09 163.104 114.221 163.288 114.379 163.436C114.537 163.587 114.714 163.702 114.909 163.783C115.105 163.864 115.314 163.907 115.537 163.912C115.759 163.921 115.987 163.892 116.223 163.826C116.642 163.71 116.984 163.501 117.249 163.2C117.514 162.902 117.682 162.525 117.753 162.07C117.824 161.618 117.779 161.102 117.618 160.522C117.453 159.933 117.223 159.461 116.928 159.109C116.63 158.759 116.292 158.526 115.914 158.41C115.534 158.297 115.135 158.298 114.719 158.414C114.488 158.479 114.281 158.569 114.097 158.685C113.911 158.804 113.755 158.947 113.628 159.112C113.498 159.278 113.403 159.464 113.341 159.67C113.277 159.877 113.256 160.1 113.276 160.337L111.866 160.722C111.817 160.341 111.835 159.965 111.922 159.595C112.005 159.226 112.153 158.879 112.366 158.555C112.579 158.234 112.854 157.951 113.192 157.708C113.531 157.468 113.929 157.284 114.389 157.156C115.066 156.967 115.714 156.956 116.333 157.121C116.953 157.286 117.498 157.622 117.969 158.129C118.44 158.636 118.791 159.303 119.021 160.131C119.253 160.961 119.296 161.714 119.152 162.39C119.008 163.068 118.714 163.638 118.27 164.099C117.826 164.561 117.267 164.886 116.595 165.073C116.166 165.193 115.75 165.244 115.348 165.226C114.946 165.208 114.568 165.123 114.214 164.97C113.861 164.82 113.545 164.602 113.266 164.318C112.985 164.037 112.756 163.69 112.578 163.277Z" fill="black"/>
<path d="M108.916 159.034L110.188 166.932L105.051 167.759L104.858 166.559L108.564 165.963L108.219 163.819L104.779 164.372L104.585 163.173L108.026 162.619L107.679 160.463L103.942 161.065L103.748 159.865L108.916 159.034Z" fill="black"/>
<path d="M97.4431 166.497C97.4957 166.836 97.6617 167.094 97.9413 167.271C98.2182 167.448 98.5713 167.527 99.0005 167.506C99.3022 167.492 99.5589 167.434 99.7705 167.333C99.982 167.232 100.141 167.1 100.248 166.939C100.355 166.777 100.406 166.596 100.399 166.396C100.391 166.229 100.346 166.087 100.265 165.968C100.181 165.85 100.071 165.751 99.9341 165.671C99.7975 165.594 99.6472 165.531 99.4832 165.481C99.3192 165.432 99.1544 165.391 98.9886 165.36L98.2306 165.208C97.9255 165.152 97.631 165.071 97.347 164.965C97.0604 164.858 96.8022 164.719 96.5724 164.548C96.3401 164.376 96.1528 164.165 96.0105 163.913C95.8683 163.662 95.7889 163.363 95.7725 163.017C95.7503 162.549 95.8504 162.131 96.0728 161.764C96.2954 161.398 96.6282 161.105 97.0713 160.883C97.512 160.664 98.0522 160.54 98.6921 160.509C99.3138 160.48 99.8582 160.55 100.325 160.721C100.789 160.892 101.159 161.156 101.434 161.513C101.707 161.871 101.866 162.314 101.912 162.844L100.488 162.911C100.454 162.634 100.357 162.406 100.197 162.229C100.038 162.051 99.8346 161.923 99.5884 161.843C99.3395 161.764 99.0642 161.731 98.7625 161.746C98.4477 161.76 98.1742 161.82 97.942 161.925C97.7072 162.033 97.5262 162.174 97.399 162.35C97.2718 162.528 97.2124 162.732 97.2207 162.961C97.2331 163.169 97.3024 163.337 97.4285 163.467C97.5547 163.599 97.7279 163.706 97.9481 163.786C98.1658 163.87 98.4195 163.941 98.7091 164.001L99.6293 164.192C100.295 164.329 100.828 164.561 101.227 164.886C101.623 165.214 101.834 165.664 101.862 166.237C101.884 166.707 101.776 167.126 101.538 167.492C101.297 167.858 100.96 168.149 100.527 168.365C100.094 168.583 99.5983 168.706 99.0391 168.732C98.472 168.759 97.9705 168.684 97.5345 168.507C97.096 168.332 96.7463 168.076 96.4852 167.739C96.2243 167.405 96.0793 167.013 96.0501 166.563L97.4431 166.497Z" fill="black"/>
<path d="M83.6115 162.539L82.2027 170.414L80.7761 170.159L81.3725 166.825L77.7234 166.172L77.127 169.506L75.6966 169.25L77.1054 161.375L78.5358 161.631L77.9373 164.976L81.5864 165.629L82.1849 162.284L83.6115 162.539Z" fill="black"/>
<path d="M68.6623 167.754L67.2732 167.34L68.7639 162.331C68.9272 161.782 69.2008 161.337 69.5844 160.998C69.9655 160.657 70.4243 160.439 70.9609 160.344C71.4967 160.25 72.0766 160.297 72.7006 160.482C73.3271 160.669 73.8392 160.947 74.2369 161.318C74.6339 161.692 74.8989 162.125 75.0319 162.619C75.165 163.112 75.1498 163.633 74.9864 164.182L73.4958 169.192L72.1068 168.778L73.5628 163.885C73.6579 163.566 73.6727 163.26 73.6072 162.969C73.5392 162.677 73.3978 162.422 73.183 162.203C72.9675 161.987 72.6838 161.826 72.3319 161.721C71.98 161.617 71.6546 161.596 71.356 161.659C71.054 161.724 70.7961 161.861 70.582 162.069C70.368 162.277 70.2134 162.541 70.1183 162.86L68.6623 167.754Z" fill="black"/>
<path d="M61.0458 162.56C61.0233 162.78 61.0322 162.989 61.0726 163.187C61.1095 163.387 61.1777 163.573 61.2771 163.745C61.3742 163.916 61.5045 164.069 61.668 164.204C61.8306 164.341 62.0221 164.456 62.2427 164.549C62.6382 164.717 63.0328 164.767 63.4265 164.7C63.8202 164.632 64.1876 164.443 64.5289 164.132C64.8666 163.823 65.1526 163.393 65.3866 162.841C65.6226 162.285 65.7351 161.777 65.7239 161.317C65.7127 160.856 65.5941 160.46 65.3679 160.126C65.1407 159.795 64.821 159.542 64.4087 159.366C64.0347 159.208 63.6806 159.142 63.3462 159.17C63.0095 159.197 62.7109 159.311 62.4503 159.511C62.1888 159.714 61.9822 159.994 61.8306 160.352L61.5484 160.177L63.5476 161.025L63.105 162.068L60.1169 160.8L60.4924 159.915C60.76 159.285 61.1257 158.796 61.5896 158.45C62.0534 158.104 62.5732 157.906 63.1488 157.856C63.7235 157.808 64.3152 157.914 64.9241 158.172C65.6025 158.46 66.1336 158.865 66.5174 159.387C66.8977 159.911 67.1122 160.515 67.1607 161.201C67.2058 161.888 67.0636 162.619 66.7339 163.396C66.4816 163.991 66.1723 164.486 65.8061 164.882C65.4375 165.277 65.0317 165.573 64.5889 165.77C64.1451 165.969 63.6821 166.067 63.1999 166.063C62.7168 166.062 62.2342 165.959 61.7524 165.754C61.3449 165.581 60.9904 165.36 60.6889 165.091C60.3864 164.824 60.1448 164.523 59.9641 164.189C59.781 163.854 59.6643 163.499 59.6141 163.124C59.5639 162.749 59.5881 162.369 59.6866 161.983L61.0458 162.56Z" fill="black"/>
<path d="M56.2213 163.025L60.3685 156.183L61.6078 156.935L57.4606 163.776L56.2213 163.025Z" fill="black"/>
<path d="M39.1452 149.739C38.9427 150.016 38.8776 150.316 38.9501 150.639C39.0206 150.96 39.2148 151.265 39.5327 151.554C39.7562 151.757 39.9785 151.898 40.1998 151.976C40.421 152.054 40.6266 152.074 40.8165 152.035C41.0064 151.997 41.1697 151.904 41.3066 151.758C41.4187 151.634 41.488 151.502 41.5145 151.361C41.539 151.218 41.5311 151.07 41.4907 150.917C41.4485 150.766 41.3869 150.615 41.306 150.464C41.2251 150.313 41.1371 150.167 41.042 150.028L40.6133 149.385C40.4372 149.13 40.2863 148.864 40.1608 148.588C40.0333 148.31 39.949 148.029 39.9079 147.745C39.8648 147.46 39.8819 147.178 39.959 146.899C40.0362 146.621 40.1912 146.354 40.4243 146.098C40.7397 145.751 41.106 145.526 41.5233 145.423C41.9388 145.322 42.3817 145.35 42.8518 145.507C43.3183 145.664 43.7885 145.957 44.2624 146.388C44.7228 146.807 45.0578 147.242 45.2672 147.693C45.4747 148.142 45.5494 148.59 45.4913 149.037C45.4313 149.483 45.2303 149.909 44.8883 150.316L43.8335 149.357C44.0056 149.136 44.0979 148.907 44.1106 148.669C44.1232 148.43 44.0707 148.196 43.9528 147.965C43.833 147.733 43.6614 147.516 43.4379 147.312C43.2048 147.1 42.969 146.949 42.7307 146.859C42.4886 146.769 42.2605 146.741 42.0464 146.776C41.8306 146.812 41.6446 146.914 41.4885 147.081C41.3503 147.237 41.2799 147.406 41.2774 147.586C41.2732 147.769 41.3204 147.967 41.4189 148.18C41.5138 148.393 41.6427 148.623 41.8056 148.869L42.3212 149.655C42.6948 150.224 42.9075 150.764 42.9594 151.276C43.0077 151.788 42.8391 152.256 42.4536 152.679C42.1365 153.028 41.7644 153.248 41.3373 153.338C40.9082 153.427 40.4643 153.394 40.0053 153.241C39.5447 153.089 39.1072 152.825 38.693 152.449C38.273 152.067 37.9716 151.659 37.7888 151.225C37.6023 150.791 37.5359 150.363 37.5896 149.94C37.6416 149.519 37.8162 149.14 38.1135 148.801L39.1452 149.739Z" fill="black"/>
<path d="M40.0282 143.013L34.0168 148.291L30.5837 144.382L31.4965 143.58L33.9735 146.401L35.6054 144.968L33.3064 142.349L34.2192 141.548L36.5183 144.166L38.1591 142.725L35.6616 139.881L36.5744 139.079L40.0282 143.013Z" fill="black"/>
<path d="M34.8488 137.52L28.2842 142.092L26.5696 139.63C26.2183 139.126 26.0112 138.642 25.9483 138.178C25.8839 137.712 25.9488 137.281 26.143 136.885C26.3336 136.489 26.6383 136.145 27.0572 135.854C27.4781 135.56 27.9061 135.396 28.3409 135.359C28.7722 135.322 29.1928 135.418 29.6027 135.647C30.0105 135.877 30.39 136.244 30.7413 136.748L31.9625 138.502L30.9753 139.189L29.8657 137.596C29.6603 137.301 29.4515 137.088 29.2393 136.957C29.025 136.827 28.8075 136.772 28.5869 136.792C28.3626 136.812 28.134 136.903 27.9011 137.065C27.6682 137.228 27.5014 137.412 27.4009 137.618C27.2982 137.826 27.2696 138.054 27.3151 138.302C27.3585 138.551 27.4836 138.824 27.6905 139.121L28.4496 140.211L34.0205 136.33L34.8488 137.52ZM29.5121 136.2L31.3548 132.503L32.2791 133.83L30.4163 137.498L29.5121 136.2Z" fill="black"/>
<path d="M22.7394 134.371L27.2857 129.542L27.2466 129.47L20.7198 130.64L19.961 129.239L28.339 127.91L29.1907 129.484L23.4962 135.769L22.7394 134.371Z" fill="black"/>
<path d="M18.6735 125.474L26.0909 122.477L26.6338 123.821L19.2164 126.818L18.6735 125.474Z" fill="black"/>
<path d="M18.2856 116.191L18.6778 117.598C18.4582 117.702 18.2744 117.833 18.1263 117.991C17.9758 118.149 17.8602 118.326 17.7795 118.521C17.6988 118.717 17.6557 118.926 17.6504 119.149C17.6418 119.371 17.6703 119.599 17.736 119.835C17.8528 120.254 18.0616 120.596 18.3625 120.861C18.6609 121.127 19.0376 121.295 19.4925 121.365C19.9449 121.436 20.4608 121.391 21.0403 121.23C21.6298 121.066 22.101 120.836 22.4539 120.54C22.8035 120.242 23.0364 119.904 23.1526 119.526C23.2657 119.146 23.2641 118.747 23.1481 118.331C23.0838 118.1 22.9935 117.893 22.8774 117.709C22.7581 117.523 22.6158 117.367 22.4507 117.24C22.2848 117.11 22.0987 117.015 21.8923 116.954C21.6853 116.89 21.4629 116.868 21.2253 116.888L20.8406 115.479C21.2215 115.429 21.597 115.448 21.9671 115.534C22.3364 115.617 22.6831 115.765 23.0073 115.978C23.3289 116.191 23.6111 116.466 23.854 116.804C24.0943 117.143 24.2784 117.542 24.4064 118.001C24.5951 118.678 24.6068 119.326 24.4414 119.945C24.2761 120.565 23.94 121.11 23.4333 121.581C22.9266 122.052 22.2593 122.403 21.4315 122.633C20.6011 122.865 19.8482 122.908 19.1727 122.764C18.4947 122.621 17.9248 122.327 17.463 121.882C17.0012 121.438 16.6767 120.879 16.4893 120.207C16.3697 119.778 16.3188 119.362 16.3364 118.96C16.3541 118.558 16.4394 118.18 16.5923 117.826C16.7427 117.474 16.9601 117.158 17.2445 116.878C17.5257 116.597 17.8727 116.368 18.2856 116.191Z" fill="black"/>
<path d="M22.5278 112.527L14.6295 113.798L13.8027 108.661L15.0021 108.468L15.5986 112.174L17.7429 111.829L17.1892 108.389L18.3886 108.196L18.9423 111.636L21.0981 111.289L20.4966 107.552L21.696 107.359L22.5278 112.527Z" fill="black"/>
<path d="M15.0634 101.054C14.7243 101.107 14.4663 101.273 14.2892 101.552C14.112 101.829 14.0336 102.182 14.054 102.612C14.0683 102.913 14.1261 103.17 14.2274 103.382C14.3286 103.593 14.46 103.753 14.6215 103.86C14.783 103.967 14.964 104.017 15.1644 104.01C15.3309 104.002 15.4735 103.957 15.5921 103.876C15.7107 103.792 15.8098 103.682 15.8893 103.545C15.9663 103.409 16.0295 103.258 16.0791 103.094C16.1287 102.93 16.1691 102.766 16.2003 102.6L16.3521 101.842C16.408 101.537 16.4892 101.242 16.5957 100.958C16.702 100.672 16.841 100.413 17.0126 100.184C17.1841 99.9513 17.3955 99.764 17.6469 99.6217C17.8982 99.4795 18.1969 99.4001 18.5428 99.3837C19.0111 99.3615 19.429 99.4616 19.7967 99.684C20.1619 99.9066 20.4553 100.239 20.6771 100.683C20.8961 101.123 21.0208 101.663 21.0511 102.303C21.0806 102.925 21.01 103.469 20.8392 103.936C20.6683 104.401 20.4042 104.77 20.0471 105.045C19.6898 105.318 19.2463 105.477 18.7166 105.523L18.6491 104.099C18.9264 104.065 19.1539 103.968 19.3314 103.808C19.5089 103.649 19.6375 103.446 19.7171 103.2C19.7965 102.951 19.8291 102.675 19.8148 102.374C19.7999 102.059 19.74 101.785 19.6351 101.553C19.5275 101.318 19.386 101.137 19.2105 101.01C19.0324 100.883 18.8288 100.824 18.5998 100.832C18.3918 100.844 18.223 100.914 18.0934 101.04C17.9612 101.166 17.8547 101.339 17.7739 101.559C17.6904 101.777 17.619 102.031 17.5597 102.32L17.3687 103.241C17.2308 103.907 16.9993 104.439 16.6741 104.838C16.3461 105.234 15.896 105.446 15.3237 105.473C14.8529 105.495 14.4345 105.387 14.0687 105.149C13.7027 104.908 13.4117 104.571 13.1956 104.138C12.977 103.706 12.8544 103.21 12.8279 102.65C12.801 102.083 12.8763 101.582 13.0537 101.146C13.2285 100.707 13.4843 100.357 13.8213 100.096C14.1557 99.8355 14.5477 99.6905 14.9973 99.6613L15.0634 101.054Z" fill="black"/>
<path d="M18.4592 87.1871L10.5843 85.7784L10.8395 84.3518L14.1732 84.9482L14.826 81.2991L11.4922 80.7027L11.7481 79.2723L19.6231 80.681L19.3672 82.1115L16.0219 81.513L15.3691 85.1621L18.7144 85.7606L18.4592 87.1871Z" fill="black"/>
<path d="M13.2438 72.2379L13.6571 70.8489L18.6666 72.3395C19.2157 72.5029 19.6601 72.7764 19.9997 73.16C20.34 73.5412 20.558 74 20.6538 74.5366C20.747 75.0724 20.7008 75.6523 20.5151 76.2763C20.3287 76.9028 20.05 77.4149 19.679 77.8126C19.3055 78.2095 18.872 78.4745 18.3787 78.6076C17.8854 78.7407 17.3641 78.7255 16.815 78.5621L11.8055 77.0715L12.2188 75.6824L17.1123 77.1385C17.4318 77.2336 17.7371 77.2484 18.0283 77.1829C18.3202 77.1149 18.5756 76.9735 18.7944 76.7587C19.0106 76.5432 19.1711 76.2595 19.2758 75.9076C19.3806 75.5556 19.4013 75.2303 19.338 74.9316C19.273 74.6297 19.1365 74.3717 18.9285 74.1577C18.7204 73.9436 18.4567 73.7891 18.1372 73.694L13.2438 72.2379Z" fill="black"/>
<path d="M18.4374 64.6197C18.2177 64.5972 18.0089 64.6061 17.8107 64.6465C17.6111 64.6834 17.4251 64.7516 17.2528 64.851C17.0815 64.948 16.9286 65.0783 16.7941 65.2419C16.6572 65.4045 16.5419 65.596 16.4483 65.8166C16.2804 66.2121 16.2303 66.6067 16.298 67.0004C16.3657 67.3941 16.5549 67.7615 16.8656 68.1027C17.1748 68.4405 17.6051 68.7264 18.1565 68.9605C18.7126 69.1965 19.2208 69.309 19.681 69.2978C20.1412 69.2866 20.5382 69.168 20.8718 68.9418C21.203 68.7146 21.4562 68.3949 21.6312 67.9826C21.7899 67.6086 21.8554 67.2545 21.8275 66.9202C21.8007 66.5834 21.687 66.2848 21.4864 66.0242C21.2834 65.7627 21.0033 65.5561 20.6461 65.4045L20.8211 65.1223L19.9725 67.1215L18.9297 66.6789L20.1981 63.6908L21.0826 64.0663C21.7131 64.3339 22.2014 64.6996 22.5477 65.1635C22.894 65.6273 23.0921 66.1471 23.142 66.7227C23.1894 67.2974 23.084 67.8891 22.8255 68.498C22.5376 69.1764 22.1325 69.7075 21.6103 70.0913C21.0867 70.4716 20.4822 70.6861 19.7968 70.7346C19.11 70.7797 18.3782 70.6375 17.6016 70.3078C17.0071 70.0554 16.5117 69.7462 16.1155 69.3799C15.7203 69.0113 15.4243 68.6056 15.2275 68.1628C15.0283 67.719 14.9306 67.256 14.9344 66.7738C14.9358 66.2906 15.0388 65.8081 15.2433 65.3263C15.4163 64.9188 15.6375 64.5643 15.9069 64.2628C16.1739 63.9602 16.4745 63.7186 16.8087 63.538C17.1438 63.3549 17.4989 63.2382 17.8738 63.188C18.2488 63.1378 18.6289 63.162 19.0143 63.2605L18.4374 64.6197Z" fill="black"/>
<path d="M17.5388 59.5935L24.5066 63.5241L23.7946 64.7864L16.8268 60.8557L17.5388 59.5935Z" fill="black"/>
<path d="M31.2595 42.7203C30.9826 42.5177 30.6827 42.4527 30.3599 42.5251C30.0388 42.5957 29.7337 42.7899 29.4446 43.1078C29.2413 43.3313 29.1007 43.5536 29.0227 43.7748C28.9447 43.9961 28.9249 44.2016 28.9634 44.3915C29.0019 44.5814 29.0945 44.7448 29.2411 44.8816C29.3644 44.9938 29.4967 45.0631 29.6381 45.0896C29.7812 45.1141 29.9292 45.1062 30.0822 45.0657C30.2332 45.0236 30.3842 44.962 30.5352 44.8811C30.6862 44.8002 30.8314 44.7122 30.9706 44.6171L31.614 44.1884C31.8692 44.0122 32.1349 43.8614 32.411 43.7358C32.6889 43.6084 32.9697 43.5241 33.2535 43.483C33.539 43.4399 33.821 43.457 34.0993 43.5341C34.3777 43.6112 34.6449 43.7663 34.9012 43.9993C35.248 44.3147 35.4727 44.6811 35.5755 45.0984C35.6763 45.5139 35.6484 45.9567 35.4919 46.4269C35.3352 46.8933 35.0414 47.3635 34.6103 47.8375C34.1916 48.2979 33.7567 48.6329 33.3058 48.8423C32.8566 49.0498 32.4085 49.1245 31.9614 49.0664C31.5162 49.0064 31.09 48.8054 30.6829 48.4634L31.6422 47.4086C31.8624 47.5806 32.0917 47.673 32.3301 47.6857C32.5685 47.6983 32.8029 47.6457 33.0333 47.5279C33.2654 47.4081 33.4831 47.2365 33.6864 47.013C33.8984 46.7799 34.0494 46.5441 34.1395 46.3057C34.2294 46.0637 34.2573 45.8356 34.2232 45.6215C34.1871 45.4057 34.0852 45.2197 33.9174 45.0636C33.7616 44.9254 33.5932 44.855 33.4125 44.8525C33.2297 44.8483 33.032 44.8954 32.8191 44.994C32.6061 45.0889 32.3762 45.2178 32.1295 45.3807L31.3438 45.8963C30.7753 46.2699 30.2351 46.4826 29.7232 46.5345C29.2111 46.5828 28.7432 46.4141 28.3194 46.0287C27.9706 45.7115 27.7511 45.3394 27.6608 44.9123C27.5723 44.4833 27.6047 44.0393 27.758 43.5804C27.9095 43.1197 28.1736 42.6823 28.5503 42.2681C28.9322 41.8481 29.3401 41.5467 29.7739 41.3639C30.2075 41.1774 30.6357 41.111 31.0586 41.1647C31.4795 41.2166 31.8592 41.3913 32.1978 41.6886L31.2595 42.7203Z" fill="black"/>
<path d="M37.9857 43.6041L32.7071 37.5928L36.6169 34.1596L37.4185 35.0725L34.5977 37.5494L36.0308 39.1814L38.649 36.8823L39.4506 37.7952L36.8323 40.0943L38.2731 41.7351L41.1174 39.2375L41.9189 40.1504L37.9857 43.6041Z" fill="black"/>
<path d="M43.4774 38.423L38.9051 31.8584L41.3668 30.1438C41.8711 29.7925 42.3552 29.5854 42.8192 29.5225C43.2853 29.4581 43.7161 29.523 44.1116 29.7172C44.5077 29.9078 44.8517 30.2126 45.1434 30.6314C45.4366 31.0524 45.6014 31.4803 45.6377 31.9152C45.6747 32.3464 45.5788 32.767 45.3502 33.1769C45.1202 33.5847 44.753 33.9643 44.2486 34.3155L42.4953 35.5367L41.8077 34.5495L43.4007 33.4399C43.6956 33.2345 43.9088 33.0257 44.0403 32.8135C44.1703 32.5992 44.2251 32.3817 44.2047 32.1611C44.185 31.9368 44.094 31.7082 43.9318 31.4753C43.7695 31.2424 43.5852 31.0756 43.3787 30.9751C43.1707 30.8724 42.9429 30.8438 42.6953 30.8893C42.4463 30.9327 42.1732 31.0578 41.8762 31.2647L40.7864 32.0238L44.6666 37.5947L43.4774 38.423ZM44.7968 33.0864L48.4938 34.929L47.1668 35.8533L43.4987 33.9905L44.7968 33.0864Z" fill="black"/>
<path d="M46.6278 26.3141L51.4565 30.8604L51.5287 30.8213L50.3584 24.2945L51.76 23.5357L53.0883 31.9137L51.515 32.7654L45.2297 27.0709L46.6278 26.3141Z" fill="black"/>
<path d="M55.3848 21.4193L58.7278 28.6874L57.4112 29.293L54.0682 22.0249L55.3848 21.4193Z" fill="black"/>
<path d="M64.6381 20.5941L63.2509 21.0521C63.1362 20.8377 62.9967 20.6602 62.8324 20.5198C62.6673 20.3768 62.4852 20.2697 62.2861 20.1983C62.087 20.1269 61.8759 20.0938 61.6527 20.0989C61.4311 20.1007 61.2041 20.14 60.9717 20.2168C60.5587 20.3531 60.227 20.5778 59.9766 20.8909C59.7254 21.2014 59.5752 21.5856 59.5262 22.0433C59.4763 22.4986 59.5457 23.0118 59.7343 23.5831C59.9261 24.1642 60.1781 24.624 60.49 24.9625C60.8037 25.2978 61.1522 25.5145 61.5357 25.6128C61.9208 25.7078 62.3186 25.6875 62.7291 25.552C62.9566 25.4768 63.1595 25.3769 63.3377 25.2523C63.5176 25.1243 63.6671 24.9749 63.7862 24.8039C63.9077 24.6321 63.9943 24.4418 64.046 24.2327C64.1001 24.0229 64.1114 23.7997 64.08 23.5633L65.4697 23.1127C65.537 23.4909 65.5363 23.8668 65.4678 24.2405C65.4016 24.6133 65.2701 24.9667 65.0732 25.3004C64.8754 25.6318 64.6135 25.9267 64.2875 26.1851C63.9606 26.4411 63.571 26.6439 63.1184 26.7933C62.4508 27.0137 61.8038 27.0559 61.1775 26.9199C60.5511 26.7839 59.9908 26.4739 59.4964 25.9899C59.002 25.5059 58.6201 24.8559 58.3507 24.0399C58.0804 23.2214 58.0015 22.4713 58.1138 21.7898C58.2252 21.1058 58.4921 20.5226 58.9142 20.0404C59.3364 19.5582 59.8789 19.2077 60.5416 18.9889C60.9645 18.8493 61.3773 18.7788 61.78 18.7775C62.1827 18.7762 62.5642 18.8436 62.9245 18.9796C63.284 19.1132 63.6099 19.3155 63.9023 19.5865C64.1964 19.8541 64.4416 20.19 64.6381 20.5941Z" fill="black"/>
<path d="M68.4967 24.6576L66.8548 16.8279L71.9471 15.76L72.1965 16.949L68.5225 17.7195L68.9682 19.8451L72.3784 19.13L72.6278 20.319L69.2176 21.0341L69.6657 23.1712L73.3703 22.3943L73.6196 23.5833L68.4967 24.6576Z" fill="black"/>
<path d="M79.6064 16.6637C79.5379 16.3275 79.3599 16.0776 79.0723 15.9139C78.7873 15.7499 78.431 15.6882 78.0032 15.7288C77.7025 15.7573 77.4488 15.8271 77.2422 15.9382C77.0356 16.0494 76.8827 16.1881 76.7834 16.3545C76.684 16.5209 76.6425 16.704 76.6589 16.9039C76.6746 17.0698 76.7258 17.2101 76.8126 17.3248C76.9019 17.4393 77.0167 17.533 77.157 17.6061C77.2971 17.6765 77.4502 17.7326 77.6164 17.7744C77.7825 17.8162 77.9491 17.8488 78.1161 17.8722L78.8805 17.9881C79.1878 18.0296 79.4859 18.0968 79.7746 18.1898C80.0659 18.2825 80.3303 18.4092 80.5679 18.5697C80.808 18.7301 81.0051 18.9325 81.1591 19.1768C81.313 19.4212 81.4063 19.7158 81.439 20.0606C81.4833 20.5273 81.4029 20.9495 81.1981 21.3273C80.993 21.7025 80.6744 22.0113 80.2422 22.2536C79.8124 22.4932 79.2786 22.6432 78.6408 22.7036C78.0212 22.7624 77.4741 22.7174 76.9997 22.5688C76.5278 22.42 76.1461 22.1737 75.8545 21.8299C75.5655 21.4858 75.3856 21.0503 75.3147 20.5234L76.7342 20.3889C76.7812 20.6643 76.8886 20.8869 77.0564 21.0567C77.2243 21.2266 77.433 21.3454 77.6827 21.4133C77.935 21.4809 78.2115 21.5005 78.5123 21.472C78.826 21.4423 79.0964 21.3695 79.3234 21.2538C79.5529 21.1353 79.727 20.9854 79.8458 20.8041C79.9644 20.6202 80.0142 20.4141 79.9952 20.1857C79.9729 19.9785 79.8958 19.8132 79.7637 19.6897C79.6314 19.5636 79.4534 19.4654 79.2296 19.395C79.0082 19.3218 78.7515 19.2625 78.4594 19.2169L77.5312 19.0695C76.8593 18.9631 76.3166 18.7569 75.903 18.4508C75.4918 18.1419 75.2592 17.7023 75.2051 17.1319C75.1607 16.6626 75.2487 16.2397 75.4694 15.863C75.6926 15.4861 76.0154 15.1795 76.4377 14.9433C76.8598 14.7045 77.3495 14.5587 77.9069 14.5058C78.4721 14.4523 78.9766 14.5039 79.4204 14.6606C79.8666 14.8145 80.228 15.0536 80.5047 15.3779C80.7811 15.6996 80.9444 16.0843 80.9947 16.5321L79.6064 16.6637Z" fill="black"/>
<path d="M127.48 31.4309C127.201 31.4127 126.967 31.297 126.78 31.0837C126.592 30.8703 126.508 30.6238 126.526 30.3441C126.544 30.0644 126.66 29.8308 126.873 29.6435C127.087 29.4562 127.333 29.3716 127.613 29.3897C127.892 29.4079 128.126 29.5236 128.313 29.737C128.501 29.9503 128.585 30.1968 128.567 30.4766C128.555 30.6618 128.497 30.8288 128.392 30.9776C128.291 31.1267 128.161 31.2435 127.999 31.3279C127.842 31.4088 127.669 31.4432 127.48 31.4309Z" fill="black"/>
<path d="M87.4959 20.6197C87.2162 20.6016 86.9827 20.4858 86.7953 20.2725C86.608 20.0592 86.5234 19.8126 86.5416 19.5329C86.5597 19.2532 86.6755 19.0197 86.8888 18.8323C87.1021 18.645 87.3487 18.5604 87.6284 18.5786C87.9081 18.5967 88.1416 18.7125 88.329 18.9258C88.5163 19.1392 88.6009 19.3857 88.5827 19.6654C88.5707 19.8506 88.5124 20.0176 88.4079 20.1665C88.3071 20.3156 88.1761 20.4323 88.015 20.5168C87.8579 20.5977 87.6849 20.632 87.4959 20.6197Z" fill="black"/>
<path d="M24.535 56.4379C24.2553 56.4197 24.0217 56.3039 23.8344 56.0906C23.6471 55.8773 23.5625 55.6307 23.5806 55.351C23.5988 55.0713 23.7145 54.8378 23.9279 54.6505C24.1412 54.4631 24.3877 54.3785 24.6675 54.3967C24.9472 54.4148 25.1807 54.5306 25.368 54.7439C25.5554 54.9573 25.6399 55.2038 25.6218 55.4835C25.6098 55.6687 25.5515 55.8358 25.4469 55.9846C25.3461 56.1337 25.2152 56.2505 25.0541 56.3349C24.897 56.4158 24.724 56.4501 24.535 56.4379Z" fill="black"/>
<path d="M164.492 94.0808C164.212 94.0626 163.979 93.9469 163.791 93.7336C163.604 93.5202 163.52 93.2737 163.538 92.994C163.556 92.7143 163.672 92.4807 163.885 92.2934C164.098 92.1061 164.345 92.0215 164.624 92.0396C164.904 92.0578 165.138 92.1735 165.325 92.3869C165.512 92.6002 165.597 92.8467 165.579 93.1265C165.567 93.3117 165.509 93.4787 165.404 93.6275C165.303 93.7766 165.172 93.8934 165.011 93.9778C164.854 94.0587 164.681 94.0931 164.492 94.0808Z" fill="black"/>
<path d="M89.9393 169.831C89.6595 169.812 89.426 169.697 89.2387 169.483C89.0514 169.27 88.9668 169.023 88.9849 168.744C89.0031 168.464 89.1188 168.23 89.3322 168.043C89.5455 167.856 89.792 167.771 90.0717 167.789C90.3515 167.808 90.585 167.923 90.7723 168.137C90.9597 168.35 91.0442 168.597 91.0261 168.876C91.0141 169.061 90.9558 169.228 90.8512 169.377C90.7504 169.526 90.6195 169.643 90.4584 169.728C90.3013 169.808 90.1283 169.843 89.9393 169.831Z" fill="black"/>
<path d="M13.9861 98.3943C13.7064 98.3761 13.4729 98.2604 13.2856 98.047C13.0982 97.8337 13.0136 97.5872 13.0318 97.3074C13.05 97.0277 13.1657 96.7942 13.379 96.6069C13.5924 96.4195 13.8389 96.335 14.1186 96.3531C14.3983 96.3713 14.6319 96.487 14.8192 96.7004C15.0065 96.9137 15.0911 97.1602 15.073 97.4399C15.0609 97.6252 15.0026 97.7922 14.8981 97.941C14.7973 98.0901 14.6664 98.2069 14.5053 98.2913C14.3482 98.3722 14.1751 98.4065 13.9861 98.3943Z" fill="black"/>
<path d="M50.1932 161.382C49.9135 161.364 49.6799 161.248 49.4926 161.035C49.3053 160.822 49.2207 160.575 49.2388 160.295C49.257 160.016 49.3727 159.782 49.5861 159.595C49.7994 159.408 50.0459 159.323 50.3257 159.341C50.6054 159.359 50.8389 159.475 51.0262 159.688C51.2136 159.902 51.2981 160.148 51.28 160.428C51.268 160.613 51.2097 160.78 51.1051 160.929C51.0043 161.078 50.8734 161.195 50.7123 161.279C50.5552 161.36 50.3822 161.395 50.1932 161.382Z" fill="black"/>
<path d="M154.435 134.505C154.156 134.487 153.922 134.371 153.735 134.158C153.547 133.945 153.463 133.698 153.481 133.418C153.499 133.139 153.615 132.905 153.828 132.718C154.042 132.53 154.288 132.446 154.568 132.464C154.848 132.482 155.081 132.598 155.268 132.811C155.456 133.025 155.54 133.271 155.522 133.551C155.51 133.736 155.452 133.903 155.347 134.052C155.247 134.201 155.116 134.318 154.954 134.402C154.797 134.483 154.624 134.517 154.435 134.505Z" fill="black"/>
</svg>
