<?xml version="1.0" standalone="no"?>
<svg xmlns:xlink="http://www.w3.org/1999/xlink" id="wave" style="transform:rotate(0deg); transition: 0.3s" viewBox="0 0 1440 490" version="1.1" xmlns="http://www.w3.org/2000/svg"><defs><linearGradient id="sw-gradient-0" x1="0" x2="0" y1="1" y2="0"><stop stop-color="rgba(243, 106, 62, 1)" offset="0%" data-darkreader-inline-stopcolor="" style="--darkreader-inline-stopcolor: #a4300a;"/><stop stop-color="rgba(255, 179, 11, 1)" offset="100%" data-darkreader-inline-stopcolor="" style="--darkreader-inline-stopcolor: #946600;"/></linearGradient></defs><path style="transform:translate(0, 0px); opacity:1" fill="url(#sw-gradient-0)" d="M0,343L48,351.2C96,359,192,376,288,375.7C384,376,480,359,576,310.3C672,261,768,180,864,138.8C960,98,1056,98,1152,98C1248,98,1344,98,1440,122.5C1536,147,1632,196,1728,236.8C1824,278,1920,310,2016,343C2112,376,2208,408,2304,392C2400,376,2496,310,2592,269.5C2688,229,2784,212,2880,196C2976,180,3072,163,3168,179.7C3264,196,3360,245,3456,277.7C3552,310,3648,327,3744,334.8C3840,343,3936,343,4032,351.2C4128,359,4224,376,4320,343C4416,310,4512,229,4608,236.8C4704,245,4800,343,4896,375.7C4992,408,5088,376,5184,375.7C5280,376,5376,408,5472,400.2C5568,392,5664,343,5760,269.5C5856,196,5952,98,6048,57.2C6144,16,6240,33,6336,106.2C6432,180,6528,310,6624,375.7C6720,441,6816,441,6864,441L6912,441L6912,490L6864,490C6816,490,6720,490,6624,490C6528,490,6432,490,6336,490C6240,490,6144,490,6048,490C5952,490,5856,490,5760,490C5664,490,5568,490,5472,490C5376,490,5280,490,5184,490C5088,490,4992,490,4896,490C4800,490,4704,490,4608,490C4512,490,4416,490,4320,490C4224,490,4128,490,4032,490C3936,490,3840,490,3744,490C3648,490,3552,490,3456,490C3360,490,3264,490,3168,490C3072,490,2976,490,2880,490C2784,490,2688,490,2592,490C2496,490,2400,490,2304,490C2208,490,2112,490,2016,490C1920,490,1824,490,1728,490C1632,490,1536,490,1440,490C1344,490,1248,490,1152,490C1056,490,960,490,864,490C768,490,672,490,576,490C480,490,384,490,288,490C192,490,96,490,48,490L0,490Z"/></svg>